<?xml version="1.0" standalone="no"?>
<!DOCTYPE svg PUBLIC "-//W3C//DTD SVG 20010904//EN"
 "http://www.w3.org/TR/2001/REC-SVG-20010904/DTD/svg10.dtd">
<svg version="1.0" xmlns="http://www.w3.org/2000/svg"
 width="300.000000pt" height="345.000000pt" viewBox="0 0 300.000000 345.000000"
 preserveAspectRatio="xMidYMid meet">
<metadata>
Created by potrace 1.10, written by Peter Selinger 2001-2011
</metadata>
<g transform="translate(0.000000,345.000000) scale(0.100000,-0.100000)"
fill="#FEBA17" stroke="none">
<path d="M1472 3358 c-10 -29 -25 -71 -32 -93 -16 -51 -40 -98 -54 -107 -6 -4
-71 -8 -144 -8 -77 0 -131 -4 -128 -9 3 -5 53 -41 111 -80 57 -39 107 -76 110
-81 3 -6 -12 -62 -35 -127 -22 -64 -39 -120 -38 -124 2 -4 52 26 112 67 61 41
116 74 123 74 8 0 63 -34 123 -76 61 -41 110 -72 110 -67 0 4 -16 58 -35 118
-19 61 -35 117 -35 125 0 14 150 128 202 154 40 20 12 26 -115 26 -149 0 -171
7 -182 63 -10 45 -56 180 -65 190 -4 5 -17 -15 -28 -45z m48 -110 c34 -108 61
-128 170 -128 38 0 70 -4 70 -10 0 -5 -24 -27 -53 -50 -77 -58 -84 -75 -63
-154 27 -99 22 -105 -48 -56 -32 22 -71 43 -86 46 -29 6 -73 -12 -126 -52 -29
-23 -54 -31 -54 -18 0 3 9 37 21 74 20 65 20 71 4 97 -9 15 -40 44 -68 63 -75
52 -73 60 20 60 66 0 83 3 101 20 25 23 56 81 66 123 9 40 31 33 46 -15z"/>
<path d="M648 2893 c-93 -94 -114 -152 -86 -234 27 -80 78 -121 152 -121 46 0
109 23 138 49 16 14 16 18 2 44 -28 55 -100 73 -171 44 -20 -8 -38 -13 -41
-11 -2 3 8 20 23 38 44 51 65 107 64 168 -1 97 -6 99 -81 23z m47 -50 c-3 -20
-22 -66 -41 -101 -35 -61 -35 -64 -18 -83 12 -14 26 -18 43 -14 57 12 102 8
121 -11 26 -25 14 -40 -41 -55 -55 -15 -90 -7 -124 27 -69 69 -61 167 20 247
37 36 47 34 40 -10z"/>
<path d="M2256 2945 c-22 -59 9 -172 67 -241 15 -18 27 -34 27 -36 0 -3 -23 1
-52 8 -83 22 -106 19 -144 -22 -19 -19 -34 -41 -34 -48 0 -7 23 -25 51 -41
128 -69 251 -5 266 137 7 71 -17 120 -98 196 -70 66 -74 68 -83 47z m74 -88
c70 -62 89 -132 57 -209 -17 -41 -68 -78 -106 -78 -39 0 -100 22 -106 39 -11
27 25 42 96 40 37 -1 72 1 78 5 19 12 12 46 -23 104 -37 62 -54 122 -33 122 6
0 23 -11 37 -23z"/>
<path d="M893 2895 c-36 -18 -62 -41 -82 -72 -37 -55 -37 -60 -10 -68 57 -19
196 35 259 100 43 45 33 58 -53 63 -52 3 -71 -1 -114 -23z m127 -20 c0 -23
-109 -85 -150 -85 -29 0 -33 17 -8 41 50 47 158 78 158 44z"/>
<path d="M1923 2913 c-30 -6 -29 -16 7 -56 59 -68 225 -129 268 -99 30 20 -50
117 -120 146 -35 15 -104 19 -155 9z m140 -39 c35 -18 87 -63 87 -76 0 -26
-140 21 -170 57 -29 34 27 47 83 19z"/>
<path d="M390 2658 c-48 -88 -51 -97 -48 -154 3 -49 10 -69 32 -99 37 -48 104
-79 155 -70 41 7 151 86 151 109 0 20 -34 46 -74 57 -31 9 -44 7 -80 -11 -46
-22 -88 -60 -67 -60 7 0 33 9 58 21 51 23 113 20 113 -7 0 -21 -89 -74 -125
-74 -74 0 -140 81 -131 159 6 47 51 137 72 145 19 7 18 -95 -1 -149 -31 -85
-10 -103 26 -22 38 85 27 247 -17 247 -7 0 -36 -42 -64 -92z"/>
<path d="M2508 2713 c-20 -48 -13 -132 15 -203 15 -35 24 -66 22 -68 -2 -3
-18 7 -35 21 -17 15 -48 32 -70 38 -33 10 -44 9 -76 -8 -64 -33 -66 -48 -14
-93 89 -77 144 -86 220 -36 85 56 106 143 58 247 -25 55 -82 129 -99 129 -5 0
-15 -12 -21 -27z m80 -96 c36 -70 40 -127 12 -172 -47 -75 -127 -96 -190 -50
-48 35 -55 52 -30 65 24 13 73 5 107 -17 12 -8 32 -13 45 -11 30 4 35 41 14
103 -17 47 -21 116 -9 129 13 12 26 0 51 -47z"/>
<path d="M230 2449 c-27 -50 -60 -153 -60 -187 1 -117 108 -198 220 -166 52
15 125 84 135 126 6 24 3 29 -28 44 -62 29 -129 1 -178 -75 -14 -23 -15 -17
-15 95 1 109 -1 122 -22 152 -27 37 -37 40 -52 11z m41 -76 c5 -14 9 -61 7
-103 -3 -75 8 -110 34 -110 6 0 30 18 55 40 45 39 94 53 108 30 23 -37 -64
-104 -136 -104 -74 0 -119 41 -134 122 -5 29 33 152 47 152 5 0 13 -12 19 -27z"/>
<path d="M2704 2424 c-33 -56 -40 -121 -21 -192 8 -29 10 -55 6 -58 -5 -2 -20
14 -34 36 -42 67 -133 88 -191 45 -18 -12 -16 -17 26 -71 25 -32 60 -67 79
-78 68 -39 174 -13 219 54 21 31 23 44 20 115 -3 60 -10 94 -30 138 -15 31
-31 57 -37 57 -6 0 -22 -21 -37 -46z m56 -51 c18 -41 22 -151 5 -183 -29 -57
-117 -85 -173 -56 -37 19 -86 81 -77 96 14 23 63 10 108 -30 75 -66 105 -46
88 60 -6 34 -8 66 -6 73 19 53 26 67 33 67 5 0 15 -12 22 -27z"/>
<path d="M1094 2366 c-52 -23 -74 -60 -74 -128 0 -55 3 -63 34 -94 29 -29 41
-34 80 -34 26 0 60 7 76 15 87 45 77 202 -15 241 -42 17 -61 17 -101 0z m94
-59 c16 -19 25 -64 18 -91 -9 -35 -33 -56 -66 -56 -36 0 -60 32 -60 80 0 51
24 80 64 80 19 0 38 -6 44 -13z"/>
<path d="M1328 2239 l45 -130 35 3 35 3 43 125 c24 69 43 126 44 128 0 1 -15
2 -33 2 -31 0 -34 -3 -45 -47 -7 -27 -20 -73 -29 -103 l-16 -55 -9 35 c-5 19
-18 65 -29 103 -19 65 -21 67 -53 67 l-32 0 44 -131z"/>
<path d="M1560 2240 l0 -130 80 0 c79 0 80 0 80 25 0 23 -3 25 -50 25 -49 0
-50 1 -50 30 0 29 2 30 46 30 41 0 45 2 42 23 -3 19 -9 22 -46 22 -40 0 -42 1
-42 30 0 30 1 30 45 27 43 -4 45 -3 45 22 0 26 -1 26 -75 26 l-75 0 0 -130z"/>
<path d="M1755 2240 l0 -130 34 0 34 0 -5 50 c-4 43 -3 50 13 50 11 0 29 -19
46 -50 26 -46 31 -50 66 -50 l38 0 -32 48 c-18 26 -39 51 -47 56 -12 7 -10 12
11 30 40 32 44 70 13 100 -22 23 -33 26 -98 26 l-73 0 0 -130z m109 84 c23 -9
20 -51 -5 -64 -31 -17 -44 -7 -42 31 1 19 2 35 2 37 2 4 29 2 45 -4z"/>
<path d="M81 2066 c-20 -143 5 -211 92 -255 58 -28 97 -24 156 20 50 36 101
112 101 151 0 34 -36 53 -81 43 -32 -7 -82 -60 -107 -111 -8 -19 -19 -34 -22
-34 -4 0 -7 22 -7 48 1 77 -22 141 -65 184 -21 21 -42 38 -46 38 -5 0 -14 -38
-21 -84z m87 -51 c6 -16 13 -46 15 -66 5 -44 23 -79 42 -79 7 0 34 25 60 55
48 56 80 74 97 57 14 -14 1 -48 -34 -88 -58 -66 -116 -80 -176 -44 -43 26 -62
74 -62 154 0 90 26 95 58 11z"/>
<path d="M2848 2120 c-41 -34 -65 -88 -76 -175 l-8 -60 -21 40 c-25 48 -58 80
-97 95 -30 11 -81 5 -91 -10 -8 -13 33 -107 63 -149 74 -100 229 -86 283 25
18 39 21 58 17 127 -2 45 -11 94 -19 109 l-15 28 -36 -30z m37 -80 c8 -46 -1
-113 -21 -151 -16 -32 -70 -59 -116 -59 -61 0 -125 59 -143 133 -6 23 -4 27
15 27 15 0 44 -22 82 -61 66 -69 80 -68 98 5 23 91 31 116 46 131 24 23 32 18
39 -25z"/>
<path d="M1155 1879 c-33 -3 -76 -13 -95 -21 -69 -30 -120 -112 -120 -195 l0
-33 69 0 68 0 6 47 c7 64 40 93 105 93 50 -1 72 -12 90 -47 35 -64 2 -116
-148 -238 -151 -122 -182 -162 -188 -245 l-4 -60 251 0 251 0 0 66 0 66 -165
-4 c-91 -1 -165 -1 -165 2 0 3 45 38 99 78 112 82 185 156 207 207 17 40 18
122 3 162 -5 15 -22 41 -37 56 -55 58 -121 77 -227 66z m99 -35 c92 -12 158
-102 141 -193 -14 -79 -61 -132 -218 -246 -73 -53 -91 -85 -63 -113 13 -14 41
-18 139 -20 142 -4 147 -5 147 -32 0 -18 -7 -20 -62 -22 -207 -5 -348 -2 -357
7 -7 7 -7 23 0 50 12 43 93 128 200 210 123 93 163 176 122 255 -51 99 -218
76 -250 -33 -7 -27 -14 -33 -42 -35 l-34 -3 6 41 c13 99 125 154 271 134z"/>
<path d="M1725 1879 c-108 -14 -185 -89 -185 -180 l0 -29 70 0 70 0 0 28 c0
44 37 72 94 72 59 0 81 -11 95 -50 26 -76 -18 -130 -105 -130 l-54 0 0 -54 0
-54 66 -4 c58 -4 70 -8 90 -32 41 -46 28 -123 -25 -151 -79 -41 -181 2 -181
77 0 22 -3 23 -65 22 -36 0 -68 -4 -71 -7 -4 -3 -1 -29 6 -58 24 -100 118
-159 251 -159 149 0 249 80 249 198 0 29 -7 66 -15 81 -17 34 -70 81 -91 81
-24 0 -15 15 21 34 73 40 95 151 44 232 -39 63 -149 98 -264 83z m140 -40 c22
-6 56 -28 77 -49 34 -34 38 -43 38 -89 0 -43 -5 -57 -33 -88 -67 -77 -66 -68
-6 -129 53 -54 54 -55 53 -113 -1 -73 -25 -110 -90 -141 -61 -28 -179 -31
-241 -6 -46 19 -92 71 -95 108 -3 19 2 23 26 23 22 0 33 -7 46 -29 25 -46 63
-69 123 -74 94 -8 157 47 157 137 0 37 -6 49 -39 82 -23 24 -49 39 -65 40 -41
2 -44 3 -57 16 -9 9 -6 15 17 24 78 31 94 40 110 63 15 24 19 51 15 101 -2 32
-43 72 -86 84 -61 17 -113 -1 -153 -53 -26 -35 -37 -42 -57 -38 -51 9 -15 80
59 117 55 28 132 33 201 14z"/>
<path d="M2888 1761 c-48 -31 -84 -89 -95 -155 -8 -51 -20 -45 -33 19 -14 67
-49 111 -97 124 -53 15 -67 0 -60 -65 17 -168 190 -262 293 -159 38 37 53 84
61 188 7 90 2 93 -69 48z m36 -39 c9 -14 -22 -135 -42 -161 -36 -48 -121 -53
-176 -10 -53 42 -89 150 -53 157 26 5 54 -23 73 -77 10 -25 24 -54 33 -63 15
-16 19 -17 38 -3 12 8 29 37 38 64 22 68 72 120 89 93z"/>
<path d="M50 1716 c0 -67 17 -105 65 -141 92 -71 246 -21 274 89 17 70 16 76
-24 76 -67 0 -125 -51 -125 -110 0 -35 -17 -22 -44 34 -27 56 -65 88 -118 101
l-28 7 0 -56z m120 -67 c22 -33 40 -62 40 -65 0 -12 -46 -1 -71 17 -32 22 -43
39 -53 82 -6 24 -4 27 18 27 20 0 34 -14 66 -61z m185 41 c10 -16 -24 -70 -58
-90 -40 -24 -55 -12 -31 26 40 65 74 89 89 64z"/>
<path d="M336 1471 c-43 -29 -55 -58 -56 -133 0 -38 -3 -68 -7 -68 -5 0 -22
26 -38 57 -36 66 -65 91 -125 104 -65 15 -69 4 -37 -94 35 -107 73 -148 145
-155 107 -10 202 95 202 222 0 88 -24 107 -84 67z m45 -53 c4 -76 -6 -105 -54
-156 -36 -38 -93 -57 -130 -43 -63 24 -129 171 -76 171 21 0 54 -30 102 -94
17 -22 36 -36 45 -34 22 4 42 45 42 86 0 35 15 72 34 84 21 14 36 8 37 -14z"/>
<path d="M2587 1483 c-4 -3 -7 -40 -7 -82 0 -90 24 -148 78 -189 30 -23 45
-27 98 -27 53 0 67 4 89 25 36 34 87 142 89 187 l1 38 -39 -3 c-61 -5 -91 -26
-137 -97 -23 -36 -43 -65 -44 -65 -1 0 -2 26 -1 58 1 31 -5 72 -13 89 -19 47
-92 89 -114 66z m76 -75 c10 -14 20 -45 23 -69 9 -95 32 -104 90 -31 49 61 74
82 102 82 28 0 28 -11 -4 -75 -46 -95 -101 -123 -172 -86 -56 30 -92 95 -92
166 0 53 20 58 53 13z"/>
<path d="M2498 1213 c-30 -65 -30 -163 -1 -218 27 -51 58 -80 107 -100 36 -15
42 -15 82 0 49 18 95 67 126 130 24 50 20 70 -17 79 -42 11 -99 -11 -151 -58
-27 -25 -50 -43 -51 -42 -2 2 2 17 8 35 6 18 9 56 7 85 -4 54 -23 88 -65 120
-23 17 -24 17 -45 -31z m66 -55 c8 -18 13 -53 12 -78 -6 -95 24 -113 93 -56
41 34 91 53 111 41 22 -14 -42 -105 -94 -132 -80 -41 -176 50 -176 167 0 86
30 117 54 58z"/>
<path d="M396 1189 c-22 -37 -23 -110 -1 -161 8 -21 13 -38 10 -38 -3 0 -28
22 -55 50 -53 52 -102 73 -151 63 -49 -9 -54 -27 -25 -77 35 -59 108 -134 137
-138 66 -10 152 40 184 109 21 43 24 152 7 196 -10 23 -17 27 -50 27 -31 0
-41 -5 -56 -31z m78 -25 c12 -30 6 -116 -10 -151 -37 -77 -130 -112 -182 -68
-40 34 -85 106 -74 117 17 17 66 -1 117 -43 29 -24 56 -39 69 -37 19 3 21 9
21 88 0 47 4 91 8 98 12 17 44 15 51 -4z"/>
<path d="M2353 973 c-33 -60 -38 -76 -38 -133 1 -132 98 -234 187 -197 44 18
158 114 158 132 0 26 -42 45 -101 45 -46 0 -64 -6 -103 -31 -26 -17 -49 -29
-52 -26 -3 2 6 21 20 41 36 53 43 113 19 167 -35 79 -46 80 -90 2z m65 -51 c2
-18 -6 -60 -18 -93 -16 -47 -18 -64 -9 -75 15 -19 28 -18 74 6 55 28 105 35
129 17 18 -13 16 -16 -35 -55 -72 -54 -99 -60 -140 -31 -62 44 -88 160 -53
235 21 44 48 42 52 -4z"/>
<path d="M571 1017 c-6 -8 -18 -31 -27 -52 -20 -49 -13 -102 22 -161 14 -24
22 -44 17 -44 -4 0 -28 14 -52 30 -34 23 -55 30 -93 30 -53 0 -108 -22 -108
-44 0 -17 88 -99 130 -121 68 -35 129 -16 178 55 51 76 52 157 1 259 -31 61
-47 73 -68 48z m48 -83 c8 -16 17 -56 18 -89 4 -67 -19 -121 -69 -158 -24 -18
-32 -19 -66 -9 -21 6 -57 28 -80 48 -34 29 -40 39 -31 50 16 20 63 17 107 -5
60 -30 78 -33 96 -16 14 15 14 21 -4 68 -39 102 -14 198 29 111z"/>
<path d="M1010 915 c0 -3 16 -37 35 -75 23 -45 35 -84 35 -110 0 -36 2 -40 25
-40 23 0 25 4 25 40 0 26 12 65 35 110 19 38 35 72 35 75 0 3 -11 5 -25 5 -21
0 -29 -9 -48 -52 l-23 -53 -19 53 c-17 46 -22 52 -47 52 -15 0 -28 -2 -28 -5z"/>
<path d="M1220 805 l0 -115 71 0 c67 0 70 1 67 23 -3 19 -8 22 -45 19 -40 -2
-43 -1 -43 23 0 23 4 25 40 25 37 0 40 2 40 26 0 25 -2 26 -40 20 -38 -6 -40
-5 -40 19 0 23 4 25 40 25 36 0 40 3 40 25 0 24 -2 25 -65 25 l-65 0 0 -115z"/>
<path d="M1445 908 c-54 -149 -75 -210 -75 -213 0 -3 11 -5 25 -5 18 0 28 7
35 25 8 21 16 25 49 25 33 0 40 -4 45 -25 5 -20 13 -25 36 -25 l29 0 -40 110
c-21 61 -39 113 -39 115 0 11 -61 4 -65 -7z m48 -86 l15 -42 -30 0 c-25 0 -29
3 -23 18 3 9 9 30 12 45 7 34 8 33 26 -21z"/>
<path d="M1610 806 l0 -116 25 0 c23 0 25 4 25 45 0 32 4 45 14 45 8 0 26 -20
40 -45 23 -38 32 -45 58 -45 l30 0 -17 28 c-10 15 -27 37 -38 50 l-21 22 22
16 c25 18 30 75 8 93 -7 6 -43 14 -80 18 l-66 6 0 -117z m94 68 c22 -8 20 -41
-3 -54 -32 -17 -41 -12 -41 25 0 36 10 42 44 29z"/>
<path d="M1840 907 c-18 -9 -26 -22 -28 -45 -4 -39 9 -58 57 -80 20 -10 36
-24 36 -32 0 -19 -47 -25 -75 -10 -20 11 -21 9 -18 -17 3 -26 6 -28 53 -31
113 -7 130 94 24 138 -55 23 -24 64 33 42 28 -10 29 -10 26 16 -3 24 -8 27
-43 30 -22 1 -51 -4 -65 -11z"/>
<path d="M680 675 c-16 -19 -9 -28 58 -74 111 -75 315 -163 342 -146 5 3 10
17 10 30 0 19 -8 26 -37 34 -21 6 -42 11 -47 11 -5 0 -76 36 -158 80 -83 44
-151 80 -153 80 -1 0 -8 -7 -15 -15z"/>
<path d="M2215 649 c-106 -62 -194 -105 -257 -125 -53 -16 -58 -20 -58 -46 0
-34 0 -34 86 -7 109 34 317 146 329 177 5 14 -11 42 -24 42 -3 0 -37 -19 -76
-41z"/>
<path d="M1352 580 c-51 -32 -67 -101 -37 -160 19 -37 43 -50 93 -50 76 0 123
71 101 152 -17 67 -97 96 -157 58z m98 -49 c17 -33 12 -86 -10 -106 -51 -46
-116 39 -76 99 21 32 70 36 86 7z"/>
<path d="M1550 480 l0 -110 25 0 c23 0 25 4 25 46 l0 46 38 -4 c20 -1 36 0 35
5 -2 4 -3 14 -3 22 0 10 -11 15 -35 15 -31 0 -35 3 -35 25 0 23 4 25 40 25 33
0 40 3 40 20 0 18 -7 20 -65 20 l-65 0 0 -110z"/>
<path d="M1020 243 c-72 -37 -89 -137 -32 -190 22 -20 34 -23 81 -21 50 3 56
6 59 26 3 21 1 22 -38 16 -54 -9 -80 13 -80 67 0 49 33 74 85 66 32 -5 35 -4
35 19 0 16 -6 24 -17 24 -10 0 -27 3 -38 5 -11 3 -36 -2 -55 -12z"/>
<path d="M2120 242 c-71 -35 -89 -134 -34 -189 21 -21 32 -24 82 -21 51 3 57
6 60 26 3 21 1 22 -38 16 -53 -9 -80 14 -80 66 0 52 27 74 80 67 37 -5 40 -3
40 18 0 17 -7 24 -31 29 -42 8 -39 8 -79 -12z"/>
<path d="M600 140 l0 -110 65 0 c58 0 65 2 65 20 0 17 -7 20 -40 20 -36 0 -40
3 -40 25 0 22 4 25 35 25 28 0 35 4 35 20 0 16 -7 20 -35 20 -31 0 -35 3 -35
25 0 23 4 25 40 25 33 0 40 3 40 20 0 18 -7 20 -65 20 l-65 0 0 -110z"/>
<path d="M750 245 c0 -3 14 -27 31 -55 l31 -51 -36 -54 -36 -55 34 0 c30 0 36
4 51 43 l17 42 21 -42 c18 -38 25 -43 54 -43 l33 0 -36 55 -36 54 31 51 c17
28 31 52 31 55 0 3 -13 5 -29 5 -25 0 -31 -6 -46 -42 l-17 -43 -19 43 c-16 36
-22 42 -49 42 -16 0 -30 -2 -30 -5z"/>
<path d="M1160 140 l0 -110 70 0 c63 0 70 2 70 20 0 17 -7 20 -45 20 -41 0
-45 2 -45 25 0 23 4 25 40 25 33 0 40 3 40 20 0 17 -7 20 -40 20 -36 0 -40 3
-40 25 0 23 4 25 40 25 33 0 40 3 40 20 0 18 -7 20 -65 20 l-65 0 0 -110z"/>
<path d="M1330 140 l0 -110 65 0 c58 0 65 2 65 20 0 17 -7 20 -40 20 l-40 0 0
90 c0 89 0 90 -25 90 l-25 0 0 -110z"/>
<path d="M1490 140 l0 -110 65 0 c58 0 65 2 65 20 0 17 -7 20 -40 20 l-40 0 0
90 c0 89 0 90 -25 90 l-25 0 0 -110z"/>
<path d="M1650 140 l0 -110 70 0 c63 0 70 2 70 20 0 17 -7 20 -45 20 -41 0
-45 2 -45 25 0 23 4 25 40 25 33 0 40 3 40 20 0 17 -7 20 -40 20 -36 0 -40 3
-40 25 0 23 4 25 40 25 33 0 40 3 40 20 0 18 -7 20 -65 20 l-65 0 0 -110z"/>
<path d="M1820 140 l0 -110 26 0 27 0 -5 75 c-5 72 2 95 17 58 3 -10 23 -44
43 -75 30 -47 42 -58 65 -58 l27 0 0 110 0 110 -25 0 c-25 0 -25 -2 -25 -77
l0 -78 -47 78 c-41 66 -51 77 -75 77 l-28 0 0 -110z"/>
<path d="M2260 140 l0 -110 70 0 c63 0 70 2 70 20 0 17 -7 20 -45 20 -41 0
-45 2 -45 25 0 23 4 25 40 25 33 0 40 3 40 20 0 17 -7 20 -40 20 -36 0 -40 3
-40 25 0 23 4 25 40 25 33 0 40 3 40 20 0 18 -7 20 -65 20 l-65 0 0 -110z"/>
</g>
</svg>
