<?xml version="1.0" encoding="UTF-8"?>
<svg version="1.1" xmlns="http://www.w3.org/2000/svg" width="782" height="898">
<path d="M0 0 C10.92590908 10.04852547 15.82665505 23.68380184 17.2578125 38.203125 C17.86499028 56.92443979 9.24796032 72.70630524 -2.796875 86.43359375 C-7.80285361 91.75102172 -13.19096064 96.31325397 -18.984375 100.74609375 C-19.56960938 101.1956543 -20.15484375 101.64521484 -20.7578125 102.10839844 C-28.31388177 107.8969432 -35.99249766 113.48517262 -43.796875 118.93359375 C-55.32498167 126.06193684 -55.32498167 126.06193684 -63.984375 135.74609375 C-36.924375 136.07609375 -9.864375 136.40609375 18.015625 136.74609375 C18.015625 147.63609375 18.015625 158.52609375 18.015625 169.74609375 C-25.214375 169.74609375 -68.444375 169.74609375 -112.984375 169.74609375 C-112.984375 146.58287285 -109.79403104 132.9579032 -93.984375 116.74609375 C-93.18386719 115.88371094 -92.38335937 115.02132812 -91.55859375 114.1328125 C-84.36779424 106.59283912 -76.36633278 100.45852384 -68.02099609 94.26123047 C-47.32220601 79.7733632 -47.32220601 79.7733632 -29.984375 61.74609375 C-29.28634766 60.81796875 -29.28634766 60.81796875 -28.57421875 59.87109375 C-23.8166228 52.99130485 -20.91862446 44.11984797 -21.984375 35.74609375 C-23.86982762 29.00320387 -26.02243425 24.52963307 -31.984375 20.74609375 C-40.21856724 16.48195848 -50.12238933 16.30948632 -58.984375 18.93359375 C-65.49487791 21.54262646 -69.24838806 25.45896497 -72.22265625 31.68359375 C-74.72936292 38.47098411 -74.4697642 45.54154256 -74.984375 52.74609375 C-86.864375 52.74609375 -98.744375 52.74609375 -110.984375 52.74609375 C-113.86189171 38.35851019 -110.97601032 23.58639375 -103.296875 11.12109375 C-93.6393028 -2.44719904 -78.77588276 -9.24548688 -62.77148438 -12.22387695 C-40.79625859 -15.73345964 -18.19272937 -13.73979692 0 0 Z " fill="#FEBA17" transform="translate(356.984375,420.25390625)"/>
<path d="M0 0 C9.04023697 7.69664212 16.46159372 16.63413789 18.1875 28.75 C19.11601177 42.09184931 18.73837214 54.03576457 9.953125 64.83984375 C4.67761643 70.54719705 -0.88662449 75.21338272 -7.8125 78.75 C-6.94367188 79.19730469 -6.07484375 79.64460938 -5.1796875 80.10546875 C7.06386209 86.52853895 15.7816868 93.19556871 20.625 106.75 C24.65528941 121.54517498 22.83387135 136.53143716 15.5625 150 C6.59921411 163.75708307 -7.91622327 170.31548582 -23.3515625 174.0390625 C-27.86337302 174.96586782 -32.21088927 175.58437082 -36.8125 175.75 C-37.77027344 175.78996094 -38.72804688 175.82992187 -39.71484375 175.87109375 C-61.40990589 176.32698504 -80.93321851 172.19844645 -97.8125 157.75 C-108.45791802 145.30027384 -110.8125 132.97304627 -110.8125 116.75 C-98.9325 116.75 -87.0525 116.75 -74.8125 116.75 C-73.8225 123.185 -73.8225 123.185 -72.8125 129.75 C-70.7784919 135.63791817 -66.71276214 139.84431797 -61.12011719 142.5769043 C-55.8639456 144.78007039 -51.09975406 145.25883459 -45.4375 145.1875 C-44.60331543 145.18065186 -43.76913086 145.17380371 -42.90966797 145.16674805 C-34.97488438 144.96013724 -29.05533586 143.4408638 -22.875 138.3125 C-16.547181 130.45066428 -16.16040709 123.66181217 -16.8125 113.75 C-17.93808175 108.18413117 -20.36739436 104.30608451 -24.8125 100.75 C-30.86223348 97.11770566 -36.27590189 95.70953177 -43.33203125 95.43359375 C-44.25346924 95.39548584 -45.17490723 95.35737793 -46.12426758 95.31811523 C-47.27950928 95.27501221 -48.43475098 95.23190918 -49.625 95.1875 C-55.1628125 94.9709375 -55.1628125 94.9709375 -60.8125 94.75 C-60.8125 85.18 -60.8125 75.61 -60.8125 65.75 C-49.8125 65.4375 -49.8125 65.4375 -46.39453125 65.36206055 C-38.95391468 65.0924825 -32.87208341 64.33364821 -27 59.375 C-22.18329674 53.59495608 -20.61566851 49.4170075 -20.5625 42 C-20.541875 41.29617188 -20.52125 40.59234375 -20.5 39.8671875 C-20.45461929 33.76348201 -22.09458903 29.80194921 -26.0625 25.0625 C-32.25927216 19.85157796 -39.10533219 18.43266782 -47 18.875 C-54.66134597 19.56911968 -61.61581534 21.72037662 -66.8125 27.6875 C-69.74683033 33.11754923 -69.74683033 33.11754923 -70.8125 45.75 C-82.6925 45.75 -94.5725 45.75 -106.8125 45.75 C-106.8125 28.63256342 -104.92714033 17.48146452 -93.3671875 5.14453125 C-70.86706767 -15.94503061 -24.93576443 -18.38267958 0 0 Z " fill="#FEBA17" transform="translate(507.8125,418.25)"/>
<path d="M0 0 C0.66 0 1.32 0 2 0 C7.91763944 14.76951493 13.24932414 29.44871641 17.39160156 44.81152344 C18.72426336 49.60525552 20.30741258 54.32230387 22 59 C22.26296875 59.886875 22.5259375 60.77375 22.796875 61.6875 C24.39704441 64.76315029 25.75861795 64.91635455 29 66 C37.62735371 68.03712859 46.25104555 68.33107212 55.078125 68.4140625 C57.01700592 68.44311172 57.01700592 68.44311172 58.99505615 68.4727478 C62.38801255 68.52348155 65.78100803 68.56341633 69.1741333 68.60089111 C72.65394279 68.64130524 76.13359809 68.69222429 79.61328125 68.7421875 C86.40874074 68.83824817 93.20429992 68.92287 100 69 C100 70.32 100 71.64 100 73 C97.88946879 74.86783548 95.87436848 76.41757676 93.5625 78 C92.88944824 78.47638916 92.21639648 78.95277832 91.52294922 79.44360352 C90.08689252 80.45790329 88.64664239 81.46628739 87.20263672 82.46923828 C85.06461272 83.95509624 82.93876066 85.45671077 80.81640625 86.96484375 C75.01312168 91.0842 69.18641318 95.16992505 63.35546875 99.25 C62.59476074 99.78375244 61.83405273 100.31750488 61.05029297 100.86743164 C59.60431931 101.88194796 58.15683013 102.8943092 56.70751953 103.90405273 C55.4027299 104.82014436 54.10478945 105.74609327 52.81494141 106.68310547 C51.62060426 107.54969877 50.40928911 108.39343724 49.18115234 109.21142578 C46.30897918 111.27377884 45.09724184 112.52898485 44.375 116.02734375 C44.90195865 121.72431821 47.15671727 127.19064746 49 132.5625 C52.53140753 143.16875102 55.70888886 153.8163399 58.5625 164.625 C58.73789307 165.28501007 58.91328613 165.94502014 59.09399414 166.62503052 C62 177.58649422 62 177.58649422 62 180 C59.08278205 179.39933462 56.99293709 178.53366927 54.52685547 176.8737793 C53.86450897 176.43208908 53.20216248 175.99039886 52.51974487 175.5353241 C51.45422897 174.81207695 51.45422897 174.81207695 50.3671875 174.07421875 C49.6164798 173.5713887 48.86577209 173.06855865 48.09231567 172.55049133 C45.68287347 170.93488271 43.27886126 169.31139784 40.875 167.6875 C39.31155763 166.63683432 37.74775869 165.58669904 36.18359375 164.53710938 C35.02346771 163.7576445 35.02346771 163.7576445 33.83990479 162.96243286 C32.27281524 161.91065157 30.70457323 160.8605854 29.13519287 159.81222534 C25.06910613 157.09043774 21.03956462 154.33009896 17.05175781 151.49462891 C16.24739288 150.93274368 15.44302795 150.37085846 14.61428833 149.79194641 C13.08342746 148.72171969 11.56301317 147.63633486 10.0553894 146.53361511 C6.43351418 144.02625827 4.73224185 142.988443 0.21020508 143.05981445 C-2.38495599 143.81986961 -4.37542665 144.44713984 -6.62109375 145.8984375 C-7.23750732 146.2893457 -7.8539209 146.68025391 -8.48901367 147.08300781 C-9.4535144 147.72254395 -9.4535144 147.72254395 -10.4375 148.375 C-11.13141846 148.82198242 -11.82533691 149.26896484 -12.5402832 149.72949219 C-18.64826815 153.69254642 -24.63819283 157.82990829 -30.625 161.97265625 C-31.31464844 162.44977051 -32.00429688 162.92688477 -32.71484375 163.41845703 C-34.36660155 164.56162872 -36.01754048 165.70598389 -37.66796875 166.85107422 C-40.49982682 168.80847405 -43.34256654 170.74916673 -46.1875 172.6875 C-47.5336438 173.62480957 -47.5336438 173.62480957 -48.90698242 174.58105469 C-49.75623291 175.15629883 -50.6054834 175.73154297 -51.48046875 176.32421875 C-52.23223389 176.84072998 -52.98399902 177.35724121 -53.75854492 177.8894043 C-56.35675582 179.1767653 -58.1370783 179.21590899 -61 179 C-58.76595889 168.6680612 -55.34464237 158.77572261 -51.90209961 148.79736328 C-50.93067702 145.98021319 -49.96773345 143.16026659 -49.00585938 140.33984375 C-48.38851281 138.53889378 -47.7706915 136.73810646 -47.15234375 134.9375 C-46.86584457 134.09896484 -46.5793454 133.26042969 -46.28416443 132.39648438 C-46.01370804 131.61466797 -45.74325165 130.83285156 -45.46459961 130.02734375 C-45.11177162 129.00241821 -45.11177162 129.00241821 -44.7518158 127.95678711 C-44 126 -44 126 -42.93190002 123.99438477 C-41.44071267 120.80305386 -41.25272774 117.40072205 -42 114 C-45.1449843 108.86430755 -49.84371967 106.33572724 -54.875 103.3125 C-62.58145789 98.56612398 -69.99820606 93.58361295 -77.29541016 88.23535156 C-79.10347234 86.92501145 -80.92962621 85.64368776 -82.76171875 84.3671875 C-83.38715576 83.92906738 -84.01259277 83.49094727 -84.65698242 83.03955078 C-85.83777376 82.2133566 -87.02129697 81.3910449 -88.20825195 80.57373047 C-92.26440067 77.71704893 -95.65720723 74.64485235 -99 71 C-99 70.34 -99 69.68 -99 69 C-98.23071671 68.99191315 -97.46143341 68.98382629 -96.6688385 68.97549438 C-89.38700702 68.89726119 -82.1053677 68.80988616 -74.82376957 68.71247292 C-71.08103641 68.66271888 -67.33832865 68.61638873 -63.59545898 68.578125 C-59.97728727 68.54100605 -56.3593396 68.49457767 -52.74136162 68.44193649 C-51.36725264 68.42353278 -49.9930959 68.40837422 -48.61891365 68.39665604 C-35.42579331 68.86254034 -35.42579331 68.86254034 -24.26953125 63.25390625 C-20.85008958 57.58310068 -18.87000876 51.15712903 -16.6875 44.9375 C-16.20812079 43.59783554 -15.72764046 42.25856461 -15.24609375 40.91967773 C-14.28010408 38.22931443 -13.31974427 35.53705777 -12.36474609 32.84277344 C-10.43682512 27.40622947 -8.46865154 21.98439851 -6.5 16.5625 C-6.02953247 15.25236938 -6.02953247 15.25236938 -5.54956055 13.91577148 C-3.84772238 9.20187976 -2.02412832 4.58514434 0 0 Z " fill="#FEBA17" transform="translate(389,9)"/>
<path d="M0 0 C1.17484206 2.48420803 2.1468832 4.85925424 3.0625 7.4375 C3.31837891 8.11232422 3.57425781 8.78714844 3.83789062 9.48242188 C7.40535735 19.23105202 8.34274575 28.53095338 8.3125 38.875 C8.32861328 39.96941406 8.34472656 41.06382812 8.36132812 42.19140625 C8.36983192 56.56282807 4.70449984 69.23458939 -5.25 79.875 C-15.03848921 89.10226049 -26.86783378 91.82490445 -40 92 C-50.13418622 91.46030961 -61.09322884 86.18071026 -68.4375 79.25 C-69.6657644 77.86852714 -70.85447805 76.45082051 -72 75 C-72.55558594 74.30390625 -73.11117187 73.6078125 -73.68359375 72.890625 C-78.32954002 66.32406815 -81.31816331 59.00417055 -84.4375 51.625 C-84.88722168 50.56603516 -85.33694336 49.50707031 -85.80029297 48.41601562 C-86.42315186 46.89911133 -86.42315186 46.89911133 -87.05859375 45.3515625 C-87.62018188 43.98765381 -87.62018188 43.98765381 -88.19311523 42.59619141 C-89.03906227 39.87431523 -89.29195222 37.8308125 -89 35 C-83.57840398 29.76535557 -76.27727108 30.60190456 -69.24609375 30.72265625 C-64.1276751 30.94743277 -60.2860211 32.18347185 -56 35 C-55.30648437 35.43570313 -54.61296875 35.87140625 -53.8984375 36.3203125 C-44.00346713 43.10225849 -39.32261321 53.624957 -34 64 C-33.89977539 63.25016846 -33.79955078 62.50033691 -33.69628906 61.7277832 C-33.22544748 58.25439232 -32.73780326 54.78354782 -32.25 51.3125 C-32.01410156 49.54422852 -32.01410156 49.54422852 -31.7734375 47.74023438 C-29.1763017 29.51033885 -23.85789438 13.73271172 -8.75 2.296875 C-3.54920538 -1.18306846 -3.54920538 -1.18306846 0 0 Z " fill="#FEBA17" transform="translate(754,340)"/>
<path d="M0 0 C7.93830522 1.54455712 14.49458926 7.52433319 19 14 C26.67417931 25.90384249 25.47656926 40.1562939 24 53.625 C23.85691406 54.98818359 23.85691406 54.98818359 23.7109375 56.37890625 C23.47856232 58.58647043 23.24153511 60.79342261 23 63 C23.85722656 62.20335937 24.71445312 61.40671875 25.59765625 60.5859375 C28.53248436 57.86273295 31.47712481 55.15042892 34.42773438 52.44433594 C35.66964749 51.30347289 36.90613272 50.1567013 38.140625 49.0078125 C47.33233984 40.71808837 57.48017979 38.55037843 69.640625 38.74609375 C74.62164724 39.12256636 79.08158304 39.851373 82.5625 43.75 C83.83575331 50.29815988 80.97851913 55.75321545 77.9375 61.3125 C77.53337891 62.06015625 77.12925781 62.8078125 76.71289062 63.578125 C73.38468665 69.58868429 69.65598726 74.93054669 65 80 C63.93652344 81.18335938 63.93652344 81.18335938 62.8515625 82.390625 C54.51062455 91.22909259 45.52791151 96.87195138 33.1875 97.375 C22.15899959 97.15470536 14.30365047 91.91557849 6.4375 84.625 C5.633125 83.75875 4.82875 82.8925 4 82 C3.45601562 81.46117187 2.91203125 80.92234375 2.3515625 80.3671875 C-7.67314554 69.90471928 -11.9117599 55.38893488 -12.375 41.125 C-11.89261223 26.57618494 -8.13691948 12.20537921 0 0 Z " fill="#FEBA17" transform="translate(656,571)"/>
<path d="M0 0 C2.3125 0.0625 2.3125 0.0625 5 1 C14.8551648 12.34837159 14.94892141 28.84039614 14 43 C12.48949654 55.24494042 7.70755603 66.69393146 3 78 C3.51385254 77.67725098 4.02770508 77.35450195 4.55712891 77.02197266 C6.909088 75.5498146 9.26693944 74.08736314 11.625 72.625 C12.43324219 72.11710937 13.24148437 71.60921875 14.07421875 71.0859375 C23.69137429 65.14363001 31.89807639 64.12557132 43 65 C49.88950287 66.62736489 55.14994681 70.97673062 60 76 C61.49986273 78.99972546 61.5048832 80.65514879 61 84 C58.98039806 86.68459283 56.52684236 88.80044389 54 91 C53.37480469 91.57878906 52.74960938 92.15757812 52.10546875 92.75390625 C40.17669886 103.61370287 28.90792546 110.37974043 12.6015625 110.2109375 C1.40336056 109.55507752 -8.79329877 104.15520579 -16.41015625 95.96484375 C-26.52245299 83.46733697 -29.59423813 69.72448994 -28 54 C-25.13390901 37.25899169 -11.8290762 11.8290762 0 0 Z " fill="#FEBA17" transform="translate(116,181)"/>
<path d="M0 0 C1.70974637 49.49058148 1.70974637 49.49058148 -12.8515625 69.55078125 C-21.86790373 78.50754313 -31.91973977 81.30285074 -44.29541016 81.31469727 C-57.38656199 81.08048123 -69.03925008 75.40691122 -78.1875 66.0625 C-89.66013024 52.16342025 -94.30613527 34.8048194 -94.62890625 17.109375 C-94 14 -94 14 -91.75390625 11.609375 C-86.66680126 8.63648528 -81.82720711 9.36377899 -76.22265625 10.625 C-66.31734823 13.73690602 -60.13275208 19.30345478 -55.1875 28.375 C-51.15197339 37.0373048 -48 47.38263138 -48 57 C-47.34 57 -46.68 57 -46 57 C-45.69707031 55.76765625 -45.39414062 54.5353125 -45.08203125 53.265625 C-40.64646664 35.57885588 -35.46568479 19.13911764 -20 8 C-6.36444444 0 -6.36444444 0 0 0 Z " fill="#FEBA17" transform="translate(771,431)"/>
<path d="M0 0 C5.52649985 1.21128764 8.87754802 7.01395189 11.86328125 11.51953125 C20.6274629 27.53101696 17.6822492 46.16195163 16.00390625 63.5078125 C15.65624204 67.20853507 15.46617778 70.84151821 15.56640625 74.5625 C16.94251226 73.04266736 18.31722687 71.52157486 19.69140625 70 C20.51769531 69.08734375 21.34398437 68.1746875 22.1953125 67.234375 C24.07689535 65.11410701 25.86123591 62.96326037 27.62890625 60.75 C33.15361049 54.2790757 40.33475905 50.9777101 48.765625 50.30859375 C57.79957498 50.00583435 64.70858403 51.20828942 72.19140625 56.375 C73.6942499 58.76588763 74.25688281 60.5454308 74.07421875 63.3828125 C70.92794825 76.88757358 61.01170584 86.34037339 49.828125 93.61328125 C45.57098351 96.1573694 41.30054198 98.09779502 36.56640625 99.5625 C35.96828125 99.75199219 35.37015625 99.94148438 34.75390625 100.13671875 C23.16335671 102.39273643 10.7746462 100.71497113 0.5625 94.83203125 C-10.25945687 87.45543208 -16.80759467 77.86705334 -20.05078125 65.140625 C-20.52783196 61.9278345 -20.64229961 58.81097254 -20.68359375 55.5625 C-20.709375 54.36625 -20.73515625 53.17 -20.76171875 51.9375 C-20.29803494 41.20064387 -16.41038209 31.23322368 -12.24511719 21.46630859 C-11.42428807 19.54066917 -10.61926704 17.60897271 -9.81640625 15.67578125 C-3.59291777 0.83046574 -3.59291777 0.83046574 0 0 Z " fill="#FEBA17" transform="translate(64.43359375,254.4375)"/>
<path d="M0 0 C2.83030725 1.8868715 3.77882882 3.09156537 4.58203125 6.390625 C5.18963027 11.63755489 5.22498543 16.84692508 5.25 22.125 C5.270625 23.18976562 5.29125 24.25453125 5.3125 25.3515625 C5.38976838 41.26884967 0.45134276 55.19810353 -10.65625 66.75 C-19.61788567 75.35317024 -29.56188897 81.4633331 -42.28125 82.06640625 C-53.08176744 81.80260051 -63.34783008 78.36819955 -71.30639648 70.84033203 C-78.01529154 63.55019927 -81.06029615 54.07610214 -84.1875 44.875 C-85.03476934 42.43476146 -85.88241561 39.99465376 -86.73046875 37.5546875 C-87.12057129 36.41821777 -87.51067383 35.28174805 -87.91259766 34.11083984 C-88.82500625 31.500622 -89.78384411 28.92066494 -90.78515625 26.34375 C-92.01799933 22.95045843 -92.34052318 20.57549337 -92 17 C-91 15 -91 15 -88 14 C-77.02838053 12.8340265 -66.00261589 15.62806424 -57.1015625 22.21484375 C-47.31767457 30.52569279 -40.51363935 41.47275175 -35 53 C-35 53.66 -35 54.32 -35 55 C-34.34 55 -33.68 55 -33 55 C-33.01160156 54.41476562 -33.02320313 53.82953125 -33.03515625 53.2265625 C-33.39105722 19.36512759 -33.39105722 19.36512759 -23.5078125 9.1171875 C-16.91487323 3.55118581 -8.86090017 -1.77218003 0 0 Z " fill="#FEBA17" transform="translate(104,510)"/>
<path d="M0 0 C3.88962662 0.98041659 4.82241985 3.36028146 6.828125 6.66015625 C16.96176962 25.95256322 23.70984521 51.14617532 17.37109375 72.59765625 C13.23606103 84.16431461 6.87505505 91.51821974 -4.32421875 96.890625 C-15.39932833 101.46943896 -29.14274081 102.86833031 -40.69140625 99.03515625 C-49.83607178 95.03611291 -56.43896257 88.24154179 -62.62890625 80.59765625 C-63.37986572 79.68040771 -63.37986572 79.68040771 -64.14599609 78.74462891 C-65.8294171 76.67084941 -67.48218278 74.57566287 -69.12890625 72.47265625 C-69.6700708 71.80371338 -70.21123535 71.13477051 -70.76879883 70.44555664 C-74.21338329 65.94613404 -75.27696115 63.26813664 -74.62890625 57.59765625 C-64.85795853 51.56877361 -56.22973513 49.41120784 -44.62890625 50.59765625 C-41.01462086 51.51104903 -37.89992147 52.82314528 -34.62890625 54.59765625 C-34.02949219 54.901875 -33.43007813 55.20609375 -32.8125 55.51953125 C-27.22248897 58.89169568 -23.66239077 64.46579246 -19.86328125 69.63671875 C-18.20306813 71.83679138 -16.64995047 73.74721966 -14.62890625 75.59765625 C-15.00718201 69.93656391 -15.8296306 64.60899354 -17.19140625 59.09765625 C-21.42907467 39.95508511 -17.64042564 23.22249421 -7.62890625 6.59765625 C-3.85594233 0.87661096 -3.85594233 0.87661096 0 0 Z " fill="#FEBA17" transform="translate(714.62890625,254.40234375)"/>
<path d="M0 0 C9.3298755 3.30433091 16.60308804 8.66685933 21.359375 17.38671875 C24.84701131 25.39817316 24.67635228 32.62611336 24.5625 41.30078125 C24.55347656 42.60466797 24.54445313 43.90855469 24.53515625 45.25195312 C24.51168397 48.45591957 24.47884727 51.65950389 24.4375 54.86328125 C24.85 54.2492041 25.2625 53.63512695 25.6875 53.00244141 C27.59969948 50.16135261 29.51855796 47.32481987 31.4375 44.48828125 C32.08589844 43.52277344 32.73429688 42.55726563 33.40234375 41.5625 C42.53207787 28.09388234 49.89323348 17.94180517 66.46484375 14.328125 C77.53755322 12.59665006 77.53755322 12.59665006 82.4375 15.86328125 C85.89581782 32.40712598 74.94492105 50.96265802 66.5 64.36328125 C61.21569481 71.9639942 54.83382149 78.99967749 45.4375 80.86328125 C33.06544013 82.80789957 21.48332708 81.72272835 10.84765625 74.71875 C-2.18710901 64.68388209 -9.29622428 52.67072103 -12.15625 36.5078125 C-13.36719314 25.64425532 -14.01030373 12.28800856 -10.5625 1.86328125 C-6.96711168 -1.85581935 -4.65945255 -1.24916244 0 0 Z " fill="#FEBA17" transform="translate(683.5625,510.13671875)"/>
<path d="M0 0 C13.33893244 4.66862636 21.408693 20.97777738 27.31665039 33.05224609 C33.18039513 45.51588317 37.36477548 59.74030782 33.8984375 73.515625 C29.07815645 86.84475 19.17528913 97.94886813 6.5 104.1875 C-3.16364556 108.66020082 -13.35200711 109.88062952 -23.6875 106.5 C-29.8060822 103.952086 -34.84140464 100.10156716 -40 96 C-40.90363281 95.30003906 -41.80726563 94.60007812 -42.73828125 93.87890625 C-54.49436552 84.66561947 -54.49436552 84.66561947 -56.0625 79.5 C-55.98435636 75.12395602 -54.95054086 74.14626496 -52 71 C-42.9457824 64.54563631 -34.87333221 61.10037685 -23.7109375 62.4765625 C-15.12475589 64.13441313 -8.11449132 69.33141922 -0.94140625 74.07421875 C1.7876989 75.94208882 1.7876989 75.94208882 4 77 C3.6146106 76.01157104 3.6146106 76.01157104 3.22143555 75.00317383 C-5.32161295 52.98122146 -14.07740805 30.15080228 -4 7 C-2.78336103 4.53383993 -1.50333768 2.30869715 0 0 Z " fill="#FEBA17" transform="translate(658,183)"/>
<path d="M0 0 C6.84525862 20.30316999 9.12320981 41.44374287 -0.0625 61.375 C-7.30797825 74.73955861 -18.75322468 82.94182714 -33.125 87.3046875 C-42.38902428 89.54517163 -50.4002093 87.40362279 -58.5 82.48046875 C-70.92592309 73.34024648 -82.12358234 57.75283531 -89 44 C-89.06950541 42.45976004 -89.08452357 40.91665012 -89.0625 39.375 C-89.05347656 38.55773437 -89.04445312 37.74046875 -89.03515625 36.8984375 C-89.02355469 36.27195312 -89.01195312 35.64546875 -89 35 C-80.91918089 29.98989215 -73.47166976 29.16771219 -64 30 C-51.97383208 32.82873573 -43.4362838 40.09692911 -35.0625 48.8125 C-33.57632831 50.34189653 -32.08814864 51.86934521 -30.59765625 53.39453125 C-29.95320557 54.06331299 -29.30875488 54.73209473 -28.64477539 55.42114258 C-27.07101622 57.08814469 -27.07101622 57.08814469 -25 58 C-25.34933594 56.90300781 -25.69867188 55.80601562 -26.05859375 54.67578125 C-26.51836664 53.22139762 -26.97799441 51.76696811 -27.4375 50.3125 C-27.66759766 49.59126953 -27.89769531 48.87003906 -28.13476562 48.12695312 C-31.82989767 36.39892532 -33.62187626 21.94973793 -28.34765625 10.41796875 C-27.68056641 9.22107422 -27.68056641 9.22107422 -27 8 C-26.54496094 7.10925781 -26.08992188 6.21851563 -25.62109375 5.30078125 C-19.49139917 -3.98620381 -9.70911542 -1.34087582 0 0 Z " fill="#FEBA17" transform="translate(129,580)"/>
<path d="M0 0 C12.71740357 5.41667189 20.90434817 15.07296992 26.6875 27.375 C31.60330085 39.76724396 32.31499354 53.81090741 33 67 C33.41773682 66.37544922 33.83547363 65.75089844 34.26586914 65.10742188 C36.19231453 62.23436795 38.12733224 59.36718541 40.0625 56.5 C40.71927734 55.51773438 41.37605469 54.53546875 42.05273438 53.5234375 C54.11751127 35.69371796 54.11751127 35.69371796 63 33 C66.09125544 32.5208453 69.06521399 32.48136767 72.1875 32.5625 C72.96802734 32.55541016 73.74855469 32.54832031 74.55273438 32.54101562 C79.16709086 32.59189487 82.27062441 33.01509487 86 36 C88.39188667 39.58783001 88.58435981 41.86565432 88 46 C84.78231525 58.98043282 78.28491286 68.55555255 69 78 C68.37351562 78.639375 67.74703125 79.27875 67.1015625 79.9375 C56.63379665 89.8310846 45.45155902 93.61532956 31.40625 93.33984375 C20.4483516 92.77265013 11.47960234 86.64268574 4.03125 78.97265625 C-7.43473645 65.53898992 -7.17837939 46.71029955 -6 30 C-4.71200433 20.01901828 -3.19053416 9.57160249 0 0 Z " fill="#FEBA17" transform="translate(25,338)"/>
<path d="M0 0 C5.53004955 3.97585855 10.58111815 8.23186818 15.5 12.9375 C19.3759413 16.61682867 23.22648311 20.25120614 27.375 23.625 C36.38053751 31.43372316 44.25986165 43.02578068 46 55 C47.01451257 71.89745521 44.35615594 86.33289795 33.3125 99.6875 C26.39883042 107.14904528 17.84359452 111.80990142 7.58203125 112.3359375 C-10.87725165 112.68589474 -23.98526836 106.45470203 -39 96 C-35.56356217 86.62486377 -28.75423577 77.31046424 -19.625 72.8359375 C-7.32613469 68.91933456 7.75967822 73.62090412 20 76 C19.29875 75.07960938 18.5975 74.15921875 17.875 73.2109375 C3.72150269 54.41969827 -5.64355259 37.04282639 -4 13 C-2.19557196 2.19557196 -2.19557196 2.19557196 0 0 Z " fill="#FEBA17" transform="translate(590,126)"/>
<path d="M0 0 C9.48895262 5.28773696 15.57476512 23.50492193 18.39526367 33.32373047 C22.85834329 50.2328312 20.68410596 65.69017625 12.51171875 81.125 C6.93781867 90.54489113 0.24861404 98.73637336 -10.37890625 102.30078125 C-21.01941131 105.0054454 -30.12638676 103.07291705 -39.640625 97.578125 C-46.87135323 92.77217656 -53.21954653 87.22136088 -59.4765625 81.21875 C-61.93773454 78.86167111 -64.5206315 76.73181024 -67.19140625 74.61328125 C-69.84365494 72.28337408 -70.49182196 71.30083798 -71.87890625 67.86328125 C-71.41327172 64.20472424 -71.16836677 63.64472241 -68.62890625 61.23828125 C-62.40837166 56.59460872 -55.16535262 53.9875228 -47.44140625 53.42578125 C-46.77882813 53.37421875 -46.11625 53.32265625 -45.43359375 53.26953125 C-31.86873385 52.68609642 -21.00933384 58.59264443 -10.31640625 66.36328125 C-7.76027599 68.62008388 -7.76027599 68.62008388 -5.44140625 68.42578125 C-5.76939209 67.74999023 -6.09737793 67.07419922 -6.43530273 66.37792969 C-7.92040604 63.31241952 -9.3997121 60.24414682 -10.87890625 57.17578125 C-11.39517578 56.11230469 -11.91144531 55.04882812 -12.44335938 53.953125 C-12.93642578 52.92832031 -13.42949219 51.90351562 -13.9375 50.84765625 C-14.62090454 49.43371582 -14.62090454 49.43371582 -15.31811523 47.99121094 C-19.52371969 38.38623559 -18.87217752 24.97886066 -15.37890625 15.30078125 C-12.9046395 9.78831232 -9.78685876 4.66826095 -5.44140625 0.42578125 C-2.44140625 -0.57421875 -2.44140625 -0.57421875 0 0 Z " fill="#FEBA17" transform="translate(156.44140625,629.57421875)"/>
<path d="M0 0 C7.66611496 3.55156732 13.08740511 12.21264103 16 20 C20.57553532 34.19993721 17.48750239 47.53669859 10.9375 60.5 C9.64180138 63.00937975 8.32337989 65.50496531 7 68 C6.32828446 69.33079693 5.65846592 70.66259772 5 72 C5.70125 71.55269531 6.4025 71.10539063 7.125 70.64453125 C9.09961016 69.38625385 11.07628834 68.13121774 13.0546875 66.87890625 C14.77922586 65.77876971 16.4965624 64.66689675 18.1953125 63.52734375 C28.33463637 56.81568605 40.00270962 54.61580148 51.99609375 56.4609375 C58.92867089 57.96225994 64.56819188 60.36812562 70 65 C71.49986273 67.99972546 71.5048832 69.65514879 71 73 C65.980469 80.32778248 57.02201542 85.65673783 50 91 C49.35337402 91.49677246 48.70674805 91.99354492 48.04052734 92.50537109 C28.16558944 107.73114299 28.16558944 107.73114299 14 106 C3.62649719 103.90003672 -4.23227719 96.0072668 -10.3984375 87.8125 C-19.2848985 74.06986886 -23.41424671 58.30584479 -20.31640625 42.0234375 C-16.89844507 26.31852766 -8.4225135 13.46343054 0 0 Z " fill="#FEBA17" transform="translate(623,627)"/>
<path d="M0 0 C0.99 0.33 1.98 0.66 3 1 C8.83008909 15.17935249 7.23914596 32.99266911 2 47 C-1.78898105 55.65334929 -6.98789133 63.00095121 -12.86328125 70.3203125 C-15.05779006 72.99456542 -15.05779006 72.99456542 -17 76 C-15.13794922 75.36771484 -15.13794922 75.36771484 -13.23828125 74.72265625 C-11.59640822 74.16911049 -9.95447812 73.61573396 -8.3125 73.0625 C-7.49587891 72.78470703 -6.67925781 72.50691406 -5.83789062 72.22070312 C4.74463955 68.66463023 15.54815932 66.87940828 26 72 C32.0703879 76.36004503 38.26505031 81.86280508 41 89 C41.375 92.625 41.375 92.625 40 96 C29.24927777 106.26205304 13.31036693 110.47831133 -1.13085938 110.42944336 C-12.00993986 110.14543788 -19.97130439 106.06187536 -27.74609375 98.51171875 C-37.22114239 87.95286905 -42.14469574 75.19826989 -42 61 C-40.4696287 38.45435138 -26.5006002 24.22205219 -10.56640625 9.796875 C-9.2690849 8.66876948 -7.96645356 7.54671161 -6.65625 6.43359375 C-4.31135747 4.40393442 -2.15819683 2.22564049 0 0 Z " fill="#FEBA17" transform="translate(185,128)"/>
<path d="M0 0 C12.94274134 1.76410104 24.28679966 5.96804501 33 16 C45 33.88277087 45 33.88277087 45 42 C45.66 41.67 46.32 41.34 47 41 C47.65468361 38.66694568 48.21862378 36.3608853 48.75 34 C51.01228381 24.89161448 54.66812669 17.72582065 62.609375 12.28515625 C70.62386653 7.97671228 79.91150653 5.63830934 89 7 C89.99 7.66 90.98 8.32 92 9 C91.32177852 23.10700684 88.33738888 38.17925134 77.875 48.25 C65.90618999 58.200928 50.23305029 61.39927811 35 60 C23.97079979 57.92739862 14.33323926 52.83663725 7.30859375 43.94140625 C0.34183553 33.60564853 -1.34247442 23.76744878 -1.1875 11.5 C-1.18685547 10.4996875 -1.18621094 9.499375 -1.18554688 8.46875 C-1.14074248 1.14074248 -1.14074248 1.14074248 0 0 Z " fill="#FEBA17" transform="translate(13,437)"/>
<path d="M0 0 C8.91918092 7.33354876 13.48370921 15.20455195 14.6875 26.75 C15.20270194 37.72380126 13.02771813 47.52361256 6.24609375 56.3515625 C0.51653406 62.59957422 -7.06289797 65.94079878 -15.47265625 66.55078125 C-26.73290445 66.77202708 -36.05410867 65.37999084 -44.46875 57.29296875 C-51.52712894 49.1597912 -53.68489584 39.77650171 -53.43359375 29.20703125 C-52.58569163 19.23408721 -49.73553034 10.4545769 -42.265625 3.53125 C-29.73948761 -6.3731377 -14.07064057 -7.44916265 0 0 Z M-29.6640625 13.7109375 C-35.21209471 20.10253017 -36.26942059 25.98732054 -36.1875 34.3125 C-35.22915505 40.10250073 -33.53987007 45.20883679 -29.1875 49.3125 C-24.70637965 52.26596569 -20.479009 53.22341741 -15.1875 52.3125 C-9.88606175 50.40914387 -6.64916378 47.41817303 -4.1875 42.3125 C-1.64390749 33.19246883 -1.63306279 24.89498362 -6 16.375 C-9.26249714 11.80750401 -11.62443727 10.66544965 -17.0625 9.4375 C-21.98345552 9.0019352 -26.00668008 10.24706738 -29.6640625 13.7109375 Z " fill="#FEBA17" transform="translate(317.1875,283.6875)"/>
<path d="M0 0 C38 0 38 0 45 6 C48.95839024 9.95839024 49.34904893 13.47526492 49.5625 18.875 C49.36584996 25.08914139 48.50765509 29.55929029 44 34 C41.71208178 35.65448632 39.5737442 36.78882626 37 38 C38.27423828 39.41732422 38.27423828 39.41732422 39.57421875 40.86328125 C43.42441018 45.35837692 46.61096761 50.21910139 49.8125 55.1875 C50.39708984 56.07630859 50.98167969 56.96511719 51.58398438 57.88085938 C52.14021484 58.73873047 52.69644531 59.59660156 53.26953125 60.48046875 C54.02133667 61.63905396 54.02133667 61.63905396 54.78833008 62.82104492 C55.94834808 64.90711397 56.55275022 66.66760399 57 69 C40.99141463 70.35921951 40.99141463 70.35921951 36.78515625 67.48828125 C35.24593465 65.07460333 34.15462353 62.62064552 33 60 C31.51264406 57.47149491 29.91182371 55.02119492 28.3125 52.5625 C27.93085693 51.94745605 27.54921387 51.33241211 27.15600586 50.69873047 C25.28505276 47.72388611 23.96908357 45.97938905 21 44 C19.35 43.67 17.7 43.34 16 43 C16 51.58 16 60.16 16 69 C10.72 69 5.44 69 0 69 C0 46.23 0 23.46 0 0 Z M16 13 C16 18.94 16 24.88 16 31 C22.77662699 31 24.50486983 30.90918656 30 28 C32.45747924 24.31378114 32.79205269 21.27880639 32 17 C30.30853694 14.24378681 30.30853694 14.24378681 27 13 C23.26409675 12.68517669 19.76331178 12.81863558 16 13 Z " fill="#FEBA17" transform="translate(458,280)"/>
<path d="M0 0 C15.8704741 -0.65949691 30.26214577 4.58414997 42.2265625 14.94140625 C49.5568608 21.91667586 56.07802704 30.54452174 59.4765625 40.19140625 C59.1465625 41.18140625 58.8165625 42.17140625 58.4765625 43.19140625 C40.44537911 48.80767649 21.45329854 43.02241166 5.24414062 34.59472656 C-5.57508714 28.68300487 -17.21046774 19.61793024 -22.5234375 8.19140625 C-22.5234375 7.20140625 -22.5234375 6.21140625 -22.5234375 5.19140625 C-14.98687639 2.75477371 -7.91925906 0.60068683 0 0 Z " fill="#FEBA17" transform="translate(517.5234375,136.80859375)"/>
<path d="M0 0 C-5.30315859 15.63182348 -23.10064911 25.52906444 -37.00390625 32.5078125 C-51.17718779 38.94846016 -66.90415971 40.95956467 -82 37 C-78.5709353 22.862628 -70.80060777 11.63635643 -58.66015625 3.59765625 C-41.3968243 -6.77048291 -18.13531208 -10.88118725 0 0 Z " fill="#FEBA17" transform="translate(285,143)"/>
<path d="M0 0 C5.61 0 11.22 0 17 0 C18.17284681 3.76353511 19.34499182 7.5272804 20.515625 11.29150391 C21.10086108 13.17241891 21.68712717 15.05301333 22.2734375 16.93359375 C25.59002408 27.60194724 28.78921506 38.29738353 32 49 C39.425 24.745 39.425 24.745 47 0 C52.61 0 58.22 0 64 0 C62.48080751 7.75228139 60.06354032 15.0437935 57.46484375 22.49609375 C57.02130006 23.77867789 56.57815622 25.06140037 56.13539124 26.34425354 C55.21296294 29.01367194 54.28736835 31.6819614 53.35913086 34.34936523 C52.16886895 37.76981934 50.98418951 41.19217275 49.80153561 44.61526394 C48.67034232 47.88868901 47.53646582 51.16118248 46.40234375 54.43359375 C45.97630356 55.66371689 45.55026337 56.89384003 45.11131287 58.16123962 C44.71742874 59.29324295 44.32354462 60.42524628 43.91772461 61.59155273 C43.57067978 62.59032944 43.22363495 63.58910614 42.86607361 64.6181488 C42 67 42 67 41 69 C34.73 69 28.46 69 22 69 C19.12509481 60.59632404 16.25535367 52.19093336 13.39466858 43.78240585 C12.06613852 39.87807935 10.73535903 35.97455009 9.39941406 32.07275391 C8.11028376 28.30741513 6.82709511 24.54009987 5.54800415 20.77133942 C5.05892079 19.33371216 4.56769943 17.89681043 4.0743103 16.46065521 C3.3837128 14.44928084 2.70075626 12.43546306 2.01953125 10.42089844 C1.62870361 9.27506287 1.23787598 8.12922729 0.83520508 6.94866943 C0 4 0 4 0 0 Z " fill="#FEBA17" transform="translate(335,280)"/>
<path d="M0 0 C4.95 0 9.9 0 15 0 C18.51457931 3.60586709 20.18226392 5.81280694 22.375 10.125 C23.44408191 12.02413076 24.51441582 13.92255723 25.5859375 15.8203125 C26.71257812 17.85960937 27.83921875 19.89890625 29 22 C31.97 26.62 34.94 31.24 38 36 C38.33 24.12 38.66 12.24 39 0 C43.29 0 47.58 0 52 0 C52 19.47 52 38.94 52 59 C38 59 38 59 34.85351562 56.66430664 C34.21091797 55.59043701 33.56832031 54.51656738 32.90625 53.41015625 C32.5407605 52.8322081 32.175271 52.25425995 31.79870605 51.65879822 C30.64965133 49.81871904 29.57581045 47.94613836 28.5 46.0625 C27.75206922 44.83503077 26.99948805 43.61038257 26.2421875 42.38867188 C24.83464295 40.10720749 23.46451788 37.8154995 22.11132812 35.50024414 C19.54578694 31.24698744 16.75525759 27.13288638 14 23 C13.67 34.88 13.34 46.76 13 59 C8.71 59 4.42 59 0 59 C0 39.53 0 20.06 0 0 Z " fill="#FEBA17" transform="translate(474,832)"/>
<path d="M0 0 C13.2 0 26.4 0 40 0 C40 4.62 40 9.24 40 14 C32.08 14 24.16 14 16 14 C16 18.62 16 23.24 16 28 C23.59 28 31.18 28 39 28 C39 32.29 39 36.58 39 41 C31.41 41 23.82 41 16 41 C16 45.95 16 50.9 16 56 C24.58 56 33.16 56 42 56 C42 60.29 42 64.58 42 69 C28.14 69 14.28 69 0 69 C0 46.23 0 23.46 0 0 Z " fill="#FEBA17" transform="translate(406,280)"/>
<path d="M0 0 C3.9932035 0.72269825 7.38311679 2.60513951 10.94140625 4.46484375 C11.95451118 4.98811501 11.95451118 4.98811501 12.98808289 5.5219574 C15.18171081 6.65636407 17.37213955 7.79679898 19.5625 8.9375 C21.07569207 9.72181466 22.58903903 10.50583056 24.10253906 11.28955078 C31.83043576 15.29491836 39.54703657 19.32188339 47.25 23.375 C47.97687012 23.75495117 48.70374023 24.13490234 49.45263672 24.52636719 C53.32619509 26.55831232 57.15795962 28.64625931 60.96484375 30.80078125 C71.4345767 36.63404483 81.55444945 40.79825314 93.18237305 43.80737305 C94.1444165 44.05656494 95.10645996 44.30575684 96.09765625 44.5625 C96.94851807 44.77003906 97.79937988 44.97757813 98.67602539 45.19140625 C101.25635888 46.08919641 102.97470035 47.17407618 105 49 C105.2421875 51.0859375 105.2421875 51.0859375 104.875 53.375 C104.74996094 54.16519531 104.62492187 54.95539062 104.49609375 55.76953125 C103.92793718 58.32399896 103.14020162 60.64358332 102 63 C67.07312145 60.08942679 31.73672342 39.28189268 4 19 C3.17322754 18.41686035 2.34645508 17.8337207 1.49462891 17.23291016 C0.26945557 16.33838135 0.26945557 16.33838135 -0.98046875 15.42578125 C-1.72578857 14.88993408 -2.4711084 14.35408691 -3.23901367 13.80200195 C-5.42054916 11.56965571 -5.7791103 10.08247205 -6 7 C-4.78515625 4.98046875 -4.78515625 4.98046875 -3.0625 3.1875 C-2.49660156 2.58292969 -1.93070313 1.97835937 -1.34765625 1.35546875 C-0.90292969 0.90816406 -0.45820313 0.46085938 0 0 Z " fill="#FEBA17" transform="translate(180,718)"/>
<path d="M0 0 C5.24502365 4.54790025 8.34210268 10.2681387 9.30200195 17.17211914 C9.43650258 19.41570932 9.46831832 21.62767043 9.4375 23.875 C9.42847656 24.66438965 9.41945313 25.4537793 9.41015625 26.26708984 C9.1528803 34.95193967 7.16279776 40.99810144 1.1875 47.4375 C-5.18500502 53.31252321 -12.19353328 55.32306604 -20.828125 55.14453125 C-30.08902443 54.52824837 -35.94862251 51.27037087 -42.3125 44.5625 C-47.79564555 36.23624194 -49.2959264 27.18250734 -47.5390625 17.4453125 C-45.49719561 9.73426223 -41.94136254 2.68562321 -35.25 -1.9375 C-23.93227242 -8.14399577 -10.58155332 -7.18431778 0 0 Z M-30 12 C-33.73178683 18.21964471 -34.11804772 25.02468763 -32.53125 32.0859375 C-30.79389621 36.82229485 -28.04697172 39.24805923 -24 42 C-19.61563134 43.68629564 -16.27765292 42.75689317 -12 41 C-7.07255584 36.1820546 -5.24447375 31.98257976 -4.6875 25.1875 C-4.89288108 18.8810927 -6.5029536 13.78915302 -10.5625 8.9375 C-17.89076365 4.80702412 -24.51874019 5.71660461 -30 12 Z " fill="#FEBA17" transform="translate(386,748)"/>
<path d="M0 0 C3.08385787 1.40175358 4.30840271 3.05576874 6.0625 5.9375 C6.875 9.25 6.875 9.25 6.0625 12.9375 C-9.25569033 33.3912686 -45.97194621 46.91052881 -69.25 55.75 C-70.22791504 56.12326416 -71.20583008 56.49652832 -72.21337891 56.88110352 C-81.56754528 60.35170557 -90.87035876 63.51829661 -100.9375 62.9375 C-102.51657394 58.7924309 -103.4313728 55.3823552 -102.9375 50.9375 C-100.60125742 47.84115665 -97.82702056 46.98400773 -94.22265625 45.7734375 C-93.07168457 45.37850098 -91.92071289 44.98356445 -90.73486328 44.57666016 C-89.5023584 44.1594873 -88.26985352 43.74231445 -87 43.3125 C-64.18940511 35.39856066 -21.24560207 -0.685342 0 0 Z " fill="#FEBA17" transform="translate(597.9375,717.0625)"/>
<path d="M0 0 C7.1775 -0.12375 7.1775 -0.12375 14.5 -0.25 C15.99337891 -0.28641602 17.48675781 -0.32283203 19.02539062 -0.36035156 C27.26224515 -0.42902894 33.25034306 -0.19770038 39.63867188 5.44824219 C42.92987088 9.1998313 42.38753063 14.26959612 42.34765625 18.98046875 C41.84003192 23.3893857 40.22517516 26.01889215 37 29 C34.1875 30.9375 34.1875 30.9375 32 32 C32.38929688 32.391875 32.77859375 32.78375 33.1796875 33.1875 C37.56695994 37.87804012 41.04222671 42.94837698 44.4375 48.375 C44.88657715 49.08914063 45.3356543 49.80328125 45.79833984 50.5390625 C49 55.73912425 49 55.73912425 49 58 C43.64289952 59.162518 38.205357 60.17784882 33 58 C28.11409227 53.29584102 25.06470686 46.98697727 22.07470703 40.97119141 C21.0389366 38.8507036 21.0389366 38.8507036 19 37 C17.35 36.67 15.7 36.34 14 36 C14 43.26 14 50.52 14 58 C9.38 58 4.76 58 0 58 C0 38.86 0 19.72 0 0 Z M14 10 C14 14.95 14 19.9 14 25 C20.09022546 25.56555113 20.09022546 25.56555113 25.5 23.375 C27.36130484 20.427934 28 18.49621145 28 15 C25.81567858 12.11357527 24.44696406 11.14898802 21 10 C18.69 10 16.38 10 14 10 Z " fill="#FEBA17" transform="translate(420,660)"/>
<path d="M0 0 C5.61 0 11.22 0 17 0 C20.07617188 8.61328125 23.15234375 17.2265625 26.22851562 25.83984375 C26.56070099 26.76980164 26.89288635 27.69975952 27.23513794 28.65789795 C27.89625633 30.50935378 28.55696499 32.36095597 29.21725464 34.21270752 C30.67002224 38.28560829 32.1266242 42.35685322 33.60400391 46.42089844 C33.95933952 47.40230301 33.95933952 47.40230301 34.32185364 48.40353394 C34.93925605 50.10692846 35.55994107 51.80913222 36.1809082 53.51123047 C37 56 37 56 37 58 C32.05 58 27.1 58 22 58 C19.8523591 53.33121544 18.87711743 50.2627046 18 45 C11.4 45 4.8 45 -2 45 C-2.66 47.97 -3.32 50.94 -4 54 C-4.33 55.32 -4.66 56.64 -5 58 C-10.28 58 -15.56 58 -21 58 C-16.73172809 44.63642869 -12.01819152 31.45749461 -7.125 18.3125 C-6.83074127 17.5211264 -6.53648254 16.72975281 -6.23330688 15.91439819 C-5.38919357 13.64664995 -4.54289304 11.37973566 -3.6953125 9.11328125 C-3.43829056 8.4245694 -3.18126862 7.73585754 -2.91645813 7.02627563 C-1.11830952 2.23661905 -1.11830952 2.23661905 0 0 Z M8 15 C5.29928888 21.27980887 3.29975324 27.28460827 2 34 C5.96 34 9.92 34 14 34 C12.64746536 27.54945018 10.96939767 21.28894321 9 15 C8.67 15 8.34 15 8 15 Z " fill="#FEBA17" transform="translate(377,660)"/>
<path d="M0 0 C5.28 0 10.56 0 16 0 C16.55429688 1.12019531 17.10859375 2.24039063 17.6796875 3.39453125 C18.41135191 4.86724038 19.14312861 6.33989372 19.875 7.8125 C20.23980469 8.55048828 20.60460937 9.28847656 20.98046875 10.04882812 C21.33496094 10.76103516 21.68945312 11.47324219 22.0546875 12.20703125 C22.37937012 12.8616333 22.70405273 13.51623535 23.03857422 14.19067383 C24.09255672 16.24652798 24.09255672 16.24652798 26 19 C29.3 12.73 32.6 6.46 36 0 C41.28 0 46.56 0 52 0 C49.64765121 5.02915948 47.14299039 9.83360953 44.18359375 14.53125 C43.68255127 15.32805176 43.18150879 16.12485352 42.6652832 16.94580078 C41.64475269 18.55529176 40.61342691 20.15799216 39.57104492 21.75341797 C39.09642822 22.50252441 38.62181152 23.25163086 38.1328125 24.0234375 C37.69855957 24.69294434 37.26430664 25.36245117 36.81689453 26.05224609 C35.7543109 28.58580622 35.98447368 29.45868869 37 32 C38.07453727 33.9589844 39.20874995 35.8856486 40.37890625 37.7890625 C41.05244141 38.89507813 41.72597656 40.00109375 42.41992188 41.140625 C43.13359135 42.30240491 43.84779032 43.46385971 44.5625 44.625 C45.964787 46.90580922 47.36089099 49.19004081 48.75390625 51.4765625 C49.68698608 52.9937085 49.68698608 52.9937085 50.63891602 54.54150391 C52 57 52 57 52 59 C46.72 59 41.44 59 36 59 C34.51494131 56.41989804 33.03682689 53.83622441 31.5625 51.25 C31.14162109 50.52039063 30.72074219 49.79078125 30.28710938 49.0390625 C29.68286133 47.97558594 29.68286133 47.97558594 29.06640625 46.890625 C28.69459229 46.24125977 28.32277832 45.59189453 27.93969727 44.92285156 C26.9812968 42.96172866 26.4496957 41.13035565 26 39 C25.34 39 24.68 39 24 39 C23.87238281 39.58499268 23.74476563 40.16998535 23.61328125 40.77270508 C23.0160911 42.94156088 22.25070751 44.66147193 21.1875 46.63671875 C20.83429688 47.29607422 20.48109375 47.95542969 20.1171875 48.63476562 C19.74851563 49.31216797 19.37984375 49.98957031 19 50.6875 C18.63132813 51.37650391 18.26265625 52.06550781 17.8828125 52.77539062 C15.14655517 57.85344483 15.14655517 57.85344483 14 59 C11.30345146 59.07319621 8.63308542 59.09242537 5.9375 59.0625 C4.79958008 59.05573242 4.79958008 59.05573242 3.63867188 59.04882812 C1.75908129 59.0370068 -0.12046899 59.01907078 -2 59 C-0.60734619 55.07697551 1.24498757 52.04474759 3.6875 48.68359375 C4.38488281 47.67103516 5.08226562 46.65847656 5.80078125 45.61523438 C7.26444039 43.5003379 8.76211729 41.40857674 10.29296875 39.34179688 C12.39903813 36.21035226 13.95748183 33.63180676 15 30 C13.92947901 25.3585728 11.68088695 21.89144249 9 18 C8.1414467 16.5549118 7.28895441 15.10618762 6.4453125 13.65234375 C5.2763708 11.76450291 4.09280574 9.88657736 2.90625 8.00976562 C0 3.30935108 0 3.30935108 0 0 Z " fill="#FEBA17" transform="translate(195,832)"/>
<path d="M0 0 C11.22 0 22.44 0 34 0 C34 3.96 34 7.92 34 12 C27.4 12 20.8 12 14 12 C14 15.96 14 19.92 14 24 C20.27 24 26.54 24 33 24 C33 27.63 33 31.26 33 35 C26.73 35 20.46 35 14 35 C14 38.96 14 42.92 14 47 C21.26 47 28.52 47 36 47 C36 50.96 36 54.92 36 59 C24.12 59 12.24 59 0 59 C0 39.53 0 20.06 0 0 Z " fill="#FEBA17" transform="translate(589,832)"/>
<path d="M0 0 C11.22 0 22.44 0 34 0 C34 3.96 34 7.92 34 12 C27.4 12 20.8 12 14 12 C14 15.96 14 19.92 14 24 C20.27 24 26.54 24 33 24 C33 27.63 33 31.26 33 35 C26.73 35 20.46 35 14 35 C14 38.96 14 42.92 14 47 C21.26 47 28.52 47 36 47 C36 50.96 36 54.92 36 59 C24.12 59 12.24 59 0 59 C0 39.53 0 20.06 0 0 Z " fill="#FEBA17" transform="translate(155,832)"/>
<path d="M0 0 C11.22 0 22.44 0 34 0 C34 3.96 34 7.92 34 12 C27.4 12 20.8 12 14 12 C14 15.96 14 19.92 14 24 C20.27 24 26.54 24 33 24 C33 27.63 33 31.26 33 35 C26.73 35 20.46 35 14 35 C14 38.96 14 42.92 14 47 C20.93 47 27.86 47 35 47 C35 50.96 35 54.92 35 59 C23.45 59 11.9 59 0 59 C0 39.53 0 20.06 0 0 Z " fill="#FEBA17" transform="translate(430,832)"/>
<path d="M0 0 C11.22 0 22.44 0 34 0 C34 3.96 34 7.92 34 12 C27.4 12 20.8 12 14 12 C14 15.96 14 19.92 14 24 C20.27 24 26.54 24 33 24 C33 27.63 33 31.26 33 35 C26.73 35 20.46 35 14 35 C14 38.96 14 42.92 14 47 C20.93 47 27.86 47 35 47 C35 50.96 35 54.92 35 59 C23.45 59 11.9 59 0 59 C0 39.53 0 20.06 0 0 Z " fill="#FEBA17" transform="translate(303,832)"/>
<path d="M0 0 C1.20462891 -0.01836914 1.20462891 -0.01836914 2.43359375 -0.03710938 C3.60728516 -0.04000977 3.60728516 -0.04000977 4.8046875 -0.04296875 C5.86792236 -0.04913208 5.86792236 -0.04913208 6.95263672 -0.05541992 C9.125 0.1875 9.125 0.1875 14.125 2.1875 C14.125 6.4775 14.125 10.7675 14.125 15.1875 C12.825625 14.6925 11.52625 14.1975 10.1875 13.6875 C5.45893266 12.1212553 1.08181534 11.41423681 -3.875 12.1875 C-6.3939267 13.50513329 -6.3939267 13.50513329 -7.875 15.1875 C-7.27671771 17.95516361 -6.56607404 19.70996121 -4.19677734 21.34716797 C-2.00980531 22.50052487 0.19725729 23.57880478 2.4375 24.625 C8.36142441 27.40356675 12.34329512 29.75267074 16.125 35.1875 C17.84737197 40.3546159 17.78061622 45.29349758 16 50.4375 C12.447986 55.64712054 8.77214302 58.65323273 2.5234375 59.91015625 C-5.83841585 60.87708066 -13.78246125 60.48038598 -21.875 58.1875 C-22.875 57.1875 -22.875 57.1875 -22.97265625 54.02734375 C-22.95525391 52.09568359 -22.95525391 52.09568359 -22.9375 50.125 C-22.92847656 48.83464844 -22.91945313 47.54429687 -22.91015625 46.21484375 C-22.89855469 45.21582031 -22.88695312 44.21679688 -22.875 43.1875 C-22.34132813 43.46464844 -21.80765625 43.74179687 -21.2578125 44.02734375 C-15.5898856 46.78285838 -10.24533148 48.52044415 -3.875 48.1875 C-0.82085844 46.94701748 -0.82085844 46.94701748 1.125 45.1875 C1.27131751 42.81990549 1.27131751 42.81990549 0.125 40.1875 C-2.4320721 38.32916272 -5.26234084 37.07250121 -8.125 35.75 C-14.71963312 32.6750994 -19.49911161 29.93927678 -22.875 23.1875 C-23.37782832 17.68111777 -23.58821529 12.78510224 -21.3125 7.6875 C-15.08152275 1.29675411 -8.5699766 0.00681238 0 0 Z " fill="#FEBA17" transform="translate(493.875,658.8125)"/>
<path d="M0 0 C11.22 0 22.44 0 34 0 C34 3.63 34 7.26 34 11 C27.4 11 20.8 11 14 11 C14 14.96 14 18.92 14 23 C19.94 23 25.88 23 32 23 C32 26.63 32 30.26 32 34 C26.06 34 20.12 34 14 34 C14 37.96 14 41.92 14 46 C20.93 46 27.86 46 35 46 C35 49.96 35 53.92 35 58 C23.45 58 11.9 58 0 58 C0 38.86 0 19.72 0 0 Z " fill="#FEBA17" transform="translate(319,660)"/>
<path d="M0 0 C0 4.62 0 9.24 0 14 C-3.2175 13.195625 -3.2175 13.195625 -6.5 12.375 C-13.95249764 10.78824218 -18.17302616 10.7038157 -24.8125 14.6875 C-28.96471905 19.07698871 -30.17113749 23.16821436 -30.375 29.0625 C-30.22411324 33.38573363 -29.50371598 36.37392858 -27 40 C-20.59024492 45.78441312 -15.40248555 45.42910556 -7 45 C-4.49731148 44.53428935 -2.39206751 43.89007163 0 43 C0 47.29 0 51.58 0 56 C-10.56606362 59.52202121 -21.53951197 60.42675725 -32 56 C-38.91756178 51.5999771 -43.11153006 45.75821259 -45.3125 37.875 C-47.41708412 26.76431266 -45.01669084 16.96765496 -38.8125 7.75 C-27.74943957 -3.06721464 -14.25890447 -3.16864544 0 0 Z " fill="#FEBA17" transform="translate(294,833)"/>
<path d="M0 0 C0 4.62 0 9.24 0 14 C-1.98 13.34 -3.96 12.68 -6 12 C-12.4256226 10.63060502 -17.05857302 11.07464091 -23 14 C-27.48889884 17.43830549 -29.08835146 20.43894393 -30 26 C-30.08060653 32.34776399 -29.31358845 37.08730204 -25 42 C-19.34910132 46.13480391 -13.73584091 45.50415496 -7 45 C-4.50482929 44.52530899 -2.38676466 43.88809848 0 43 C0 47.29 0 51.58 0 56 C-8.70905376 59.4836215 -20.06464051 60.54605622 -29 57 C-35.81547362 53.6977851 -40.15269826 49.37610319 -43.8125 42.6875 C-46.76597332 33.87800199 -46.46114136 21.53641221 -42.38671875 13.14453125 C-37.10442273 4.97557206 -30.28720537 0.53972376 -20.9375 -1.75 C-13.47330597 -2.38525056 -7.29725608 -1.62161246 0 0 Z " fill="#FEBA17" transform="translate(580,833)"/>
<path d="M0 0 C5.61 0 11.22 0 17 0 C19.97 6.93 22.94 13.86 26 21 C27.093125 18.834375 28.18625 16.66875 29.3125 14.4375 C29.65063721 13.77032959 29.98877441 13.10315918 30.3371582 12.41577148 C32.38596434 8.33664917 34.23850631 4.21132491 36 0 C40.95 0 45.9 0 51 0 C49.44005856 4.67982431 47.93590543 8.15590596 45.55859375 12.375 C37.15587611 27.70728347 31.52394308 40.02573726 33 58 C28.38 58 23.76 58 19 58 C19.06703125 56.84628906 19.1340625 55.69257812 19.203125 54.50390625 C19.53427496 39.56795455 14.37689149 28.74046986 7.44580078 15.74707031 C5.57756133 12.19735227 3.90227777 8.59241806 2.25 4.9375 C1.5075 3.308125 0.765 1.67875 0 0 Z " fill="#FEBA17" transform="translate(262,660)"/>
<path d="M0 0 C11.22 0 22.44 0 34 0 C34 3.96 34 7.92 34 12 C27.4 12 20.8 12 14 12 C14 16.29 14 20.58 14 25 C19.94 25 25.88 25 32 25 C32 28.63 32 32.26 32 36 C26.06 36 20.12 36 14 36 C14 43.59 14 51.18 14 59 C9.38 59 4.76 59 0 59 C0 39.53 0 20.06 0 0 Z " fill="#FEBA17" transform="translate(404,743)"/>
<path d="M0 0 C4.62 0 9.24 0 14 0 C14 15.51 14 31.02 14 47 C20.93 47 27.86 47 35 47 C35 50.96 35 54.92 35 59 C23.45 59 11.9 59 0 59 C0 39.53 0 20.06 0 0 Z " fill="#FEBA17" transform="translate(388,832)"/>
<path d="M0 0 C4.29 0 8.58 0 13 0 C13 15.51 13 31.02 13 47 C20.26 47 27.52 47 35 47 C35 50.96 35 54.92 35 59 C23.45 59 11.9 59 0 59 C0 39.53 0 20.06 0 0 Z " fill="#FEBA17" transform="translate(347,832)"/>
</svg>
