<?xml version="1.0" encoding="UTF-8"?>
<svg xmlns="http://www.w3.org/2000/svg" xmlns:xlink="http://www.w3.org/1999/xlink" version="1.1" id="Capa_1" x="0px" y="0px" viewBox="0 0 512 512" style="enable-background:new 0 0 512 512;" xml:space="preserve" width="512" height="512">
<g>
	<g>
		<path style="fill:none;stroke:#000000;stroke-width:15;stroke-linecap:round;stroke-linejoin:round;stroke-miterlimit:10;" d="&#10;&#9;&#9;&#9;M35.29,337.41c7,12.62,15.21,24.5,24.45,35.46H33.76c-8.93,0-16.16,7.23-16.16,16.16c0,8.92,7.23,16.16,16.16,16.16h64.65&#10;&#9;&#9;&#9;c8.93,0,16.17-7.24,16.17-16.16v-64.65c0-8.93-7.24-16.16-16.17-16.16s-16.16,7.23-16.16,16.16v24.86&#10;&#9;&#9;&#9;c-26.51-32.66-42.42-74.26-42.42-119.5c0-104.72,85.19-189.91,189.91-189.91c91.28,0,167.74,64.76,185.85,150.74"/>
		<path style="fill:none;stroke:#000000;stroke-width:15;stroke-linecap:round;stroke-linejoin:round;stroke-miterlimit:10;" d="&#10;&#9;&#9;&#9;M20.79,305.58c-8.6-23.66-13.29-49.21-13.29-75.84C7.5,107,107,7.5,229.74,7.5c49.14,0,94.57,15.96,131.36,42.98"/>
		<path style="fill:none;stroke:#000000;stroke-width:15;stroke-linecap:round;stroke-linejoin:round;stroke-miterlimit:10;" d="&#10;&#9;&#9;&#9;M442.75,166.18c-10.57-35.48-29.77-67.25-55.15-92.86"/>
		
			<line style="fill:none;stroke:#000000;stroke-width:15;stroke-linecap:round;stroke-linejoin:round;stroke-miterlimit:10;" x1="181.704" y1="474.564" x2="260.276" y2="395.992"/>
		
			<line style="fill:none;stroke:#000000;stroke-width:15;stroke-linecap:round;stroke-linejoin:round;stroke-miterlimit:10;" x1="474.564" y1="181.704" x2="395.992" y2="260.276"/>
		<path style="fill:none;stroke:#000000;stroke-width:15;stroke-linecap:round;stroke-linejoin:round;stroke-miterlimit:10;" d="&#10;&#9;&#9;&#9;M384.47,297.18c5.85-9.03,10.46-16.92,13.53-22.42c2.65-4.74,1.83-10.65-2.01-14.48l-10.77-10.77c-7.89-7.89-7.89-20.68,0-28.57&#10;&#9;&#9;&#9;l50-50c7.89-7.89,20.69-7.89,28.58,0l28.86,28.86c10.86,10.86,14.62,26.92,9.73,41.47c-10.43,30.98-37.3,87.78-105.32,155.8&#10;&#9;&#9;&#9;s-124.82,94.89-155.8,105.32c-14.55,4.89-30.61,1.13-41.47-9.73l-28.86-28.86c-7.89-7.89-7.89-20.69,0-28.58l50-50&#10;&#9;&#9;&#9;c7.89-7.89,20.68-7.89,28.57,0l10.77,10.77c3.83,3.84,9.74,4.66,14.48,2.01c14.68-8.2,46.46-27.35,71.18-52.06&#10;&#9;&#9;&#9;c6.45-6.45,12.51-13.37,18.1-20.35"/>
		
			<line style="fill:none;stroke:#000000;stroke-width:15;stroke-linecap:round;stroke-linejoin:round;stroke-miterlimit:10;" x1="229.736" y1="72.15" x2="229.736" y2="92.354"/>
		
			<line style="fill:none;stroke:#000000;stroke-width:15;stroke-linecap:round;stroke-linejoin:round;stroke-miterlimit:10;" x1="150.943" y1="93.263" x2="161.045" y2="110.759"/>
		
			<line style="fill:none;stroke:#000000;stroke-width:15;stroke-linecap:round;stroke-linejoin:round;stroke-miterlimit:10;" x1="93.263" y1="150.943" x2="110.759" y2="161.045"/>
		
			<line style="fill:none;stroke:#000000;stroke-width:15;stroke-linecap:round;stroke-linejoin:round;stroke-miterlimit:10;" x1="72.15" y1="229.736" x2="92.354" y2="229.736"/>
		
			<line style="fill:none;stroke:#000000;stroke-width:15;stroke-linecap:round;stroke-linejoin:round;stroke-miterlimit:10;" x1="366.209" y1="150.943" x2="348.712" y2="161.045"/>
		
			<line style="fill:none;stroke:#000000;stroke-width:15;stroke-linecap:round;stroke-linejoin:round;stroke-miterlimit:10;" x1="308.528" y1="93.263" x2="298.427" y2="110.759"/>
		<g>
			<g>
				
					<line style="fill:none;stroke:#000000;stroke-width:15;stroke-linecap:round;stroke-linejoin:round;stroke-miterlimit:10;" x1="276.429" y1="197.411" x2="260.817" y2="262.061"/>
			</g>
			<g>
				
					<polyline style="fill:none;stroke:#000000;stroke-width:15;stroke-linecap:round;stroke-linejoin:round;stroke-miterlimit:10;" points="&#10;&#9;&#9;&#9;&#9;&#9;307.849,197.411 343.415,197.411 314.995,262.061 &#9;&#9;&#9;&#9;"/>
			</g>
			<g>
				
					<polyline style="fill:none;stroke:#000000;stroke-width:15;stroke-linecap:round;stroke-linejoin:round;stroke-miterlimit:10;" points="&#10;&#9;&#9;&#9;&#9;&#9;234.305,242.98 193.707,242.98 226.056,197.411 225.894,262.061 &#9;&#9;&#9;&#9;"/>
			</g>
			<g>
				<path style="fill:none;stroke:#000000;stroke-width:15;stroke-linecap:round;stroke-linejoin:round;stroke-miterlimit:10;" d="&#10;&#9;&#9;&#9;&#9;&#9;M136.057,210.521c1.468-7.473,8.054-13.11,15.957-13.11c8.981,0,16.262,7.281,16.262,16.262c0,5.33-2.647,9.652-7.071,16.255&#10;&#9;&#9;&#9;&#9;&#9;c-20.273,28.966-22.621,32.133-22.621,32.133h29.692"/>
			</g>
		</g>
	</g>
</g>















</svg>
