<?xml version="1.0" encoding="UTF-8"?>
<!DOCTYPE svg PUBLIC "-//W3C//DTD SVG 1.1//EN" "http://www.w3.org/Graphics/SVG/1.1/DTD/svg11.dtd">
<!-- Creator: CorelDRAW 2021.5 -->
<svg xmlns="http://www.w3.org/2000/svg" xml:space="preserve" width="127mm" height="50.8mm" version="1.1" style="shape-rendering:geometricPrecision; text-rendering:geometricPrecision; image-rendering:optimizeQuality; fill-rule:evenodd; clip-rule:evenodd"
viewBox="0 0 12700 5080"
 xmlns:xlink="http://www.w3.org/1999/xlink"
 xmlns:xodm="http://www.corel.com/coreldraw/odm/2003">
 <defs>
  <style type="text/css">
   <![CDATA[
    .str0 {stroke:#FEFEFE;stroke-width:7.62;stroke-miterlimit:2.61313}
    .fil0 {fill:#2B2A29}
    .fil1 {fill:#E31E24}
    .fil2 {fill:#FEFEFE;fill-rule:nonzero}
    .fil3 {fill:#2B2A29;fill-rule:nonzero}
   ]]>
  </style>
 </defs>
 <g id="Layer_x0020_1">
  <metadata id="CorelCorpID_0Corel-Layer"/>
  <path class="fil0" d="M4533.65 3448.36l6596.82 0c50.94,0 92.61,41.67 92.61,92.61l0 264.57c0,50.94 -41.67,92.61 -92.61,92.61l-6596.82 0c-50.94,0 -92.61,-41.67 -92.61,-92.61l0 -264.57c0,-50.94 41.67,-92.61 92.61,-92.61z"/>
  <g id="_2567907144592">
   <polygon class="fil1" points="2523.27,1261.34 3973.18,1261.34 3214.52,2401.55 "/>
   <polygon class="fil0" points="867.75,1261.34 2390.58,1261.34 3144.07,2507.43 2424.99,3588.15 "/>
  </g>
  <g id="_2567907146656">
   <g>
    <path class="fil0" d="M10685.73 1911.63c-23.09,-119.73 -110.12,-359.16 -155.67,-492.82 -4.96,-14.58 -44.04,-151.18 -63,-156.69l-278.13 0 -0.09 888.1 177.87 0c0,-155.05 4.67,-389.94 -1.88,-539.75 -2.24,-51.5 -7.75,-128.13 -4.3,-176.88 11.74,22.42 14.68,61.45 21.62,90.73l218.07 625.93 158.72 -0.09 210.01 -616.38c9.08,-31.19 11.67,-70.47 25.07,-96.95l-4.4 712.24 190.75 1.27 2.71 -888.25 -279.59 0.14c-38.96,87.81 -209.95,637.09 -217.76,649.4z"/>
    <path class="fil0" d="M9622.95 1263.26l-194.57 -1.26c-6.92,42.08 -2.5,373.01 -2.5,444.17 0.01,147.65 -2.7,288.32 -163.03,286.99 -154.9,-1.28 -163.12,-136.78 -163.12,-280.61 0.01,-72.89 4.54,-407.76 -2.49,-450.46l-194.57 0.19c-6.65,81.07 -5.05,555.44 7.04,625.35 32.83,189.72 148.01,280.33 353.13,279.13 395.92,-2.31 361.26,-335.93 361.26,-588.2 0,-97.14 6.63,-221.48 -1.15,-315.3z"/>
   </g>
   <path class="fil0" d="M7794.07 1518.67c0,163.59 109.26,214.13 237.75,271.26 50.85,22.61 129.08,55.18 148.55,102.55 48.72,118.5 -189.39,178.85 -381.25,31.6l-1.36 192.73c97.5,60.24 595.47,130.93 595.47,-215.54 0,-265.04 -341.94,-252 -385.94,-369.08 -33.53,-89.25 74.84,-113.87 151.62,-113.87 95.41,0 128.39,30.89 196.69,57.23 0,-199.77 22.96,-182.93 -77.31,-201.84 -187.13,-35.28 -484.22,-7.09 -484.22,244.96z"/>
   <g>
    <path class="fil1" d="M6478.03 2166.09l184.46 -0.21 0.39 -639.2c24.75,52.61 158.48,255.28 199.68,321.53 32.98,53.04 69.36,106.42 102.13,160.54l86.7 137.43c18.97,26.43 -2.45,9.74 22.44,19.88l190.52 0 -0.11 -904.69 -185.71 0 -0.1 617.98 -96.64 -154.71c-92.62,-137.2 -198.41,-317.6 -292.54,-463.3l-208.92 0 -2.3 904.75z"/>
    <path class="fil1" d="M4704.56 2166.12l222.48 0 302.47 -904 -205.11 -0.78c-32.69,85.58 -140.73,481.26 -181.25,623.92 -7.2,25.33 -12.93,72.08 -21.02,91.5 -4.4,-9.08 -14.07,-67.08 -19.65,-86.53 -9.72,-33.87 -16.98,-57.86 -26.43,-89.79 -42.83,-144.84 -114.33,-427.9 -157.13,-539.1l-209.19 0 294.83 904.78z"/>
    <polygon class="fil1" points="5635.29,1416.47 5708.99,1419.01 5709,2008.78 5635.82,2009.55 5635.29,2163.91 5979.34,2165.98 5978.41,2010.96 5904.72,2008.42 5904.71,1418.65 5977.89,1417.89 5978.41,1263.52 5637.51,1261.46 "/>
   </g>
  </g>
  <path class="fil2 str0" d="M4579.53 3736.62l30.41 0c19.25,0 34.49,-5.6 45.68,-16.83 11.23,-11.18 16.82,-26.43 16.82,-45.68 0,-19.98 -5.96,-35.59 -17.84,-46.86 -11.87,-11.23 -28.29,-16.86 -49.29,-16.86l-25.78 0 0 126.23zm24.24 23.1l-48.56 0 0 -172.92 55.7 0c25.98,0 46.94,8.02 62.91,24.12 15.93,16.05 23.91,37.05 23.91,62.95 0,14.71 -3,28.13 -8.95,40.25 -6,12.12 -14.6,22.21 -25.87,30.28 -7.58,5.47 -15.68,9.4 -24.32,11.75 -8.63,2.39 -20.26,3.57 -34.82,3.57zm252.81 0l-89.74 0 0 -172.92 89.74 0 0 23.1 -64.69 0 0 51.56 64.69 0 0 22.62 -64.69 0 0 51.81 64.69 0 0 23.83zm158.45 0l-81.72 0 0 -172.92 25.05 0 0 149.09 56.67 0 0 23.83zm91.27 0l-25.05 0 0 -172.92 25.05 0 0 172.92zm137.49 0l-14.84 0 -66.64 -172.92 26.51 0 47.51 128.86 47.59 -128.86 26.26 0 -66.39 172.92zm212.35 0l-89.74 0 0 -172.92 89.74 0 0 23.1 -64.69 0 0 51.56 64.69 0 0 22.62 -64.69 0 0 51.81 64.69 0 0 23.83zm101.78 -83.18l12.81 0c17.35,0 30.24,-2.79 38.71,-8.43 8.47,-5.59 12.69,-14.15 12.69,-25.58 0,-11.14 -3.65,-19.33 -10.91,-24.56 -7.29,-5.23 -18.81,-7.82 -34.53,-7.82l-18.77 0 0 66.39zm0 83.18l-25.05 0 0 -172.92 49.86 0c20.75,0 36.6,4.78 47.54,14.39 10.95,9.56 16.42,23.43 16.42,41.55 0,14.1 -4.58,25.86 -13.74,35.34 -9.16,9.45 -20.96,14.51 -35.39,15.24l49.13 66.4 -31.37 0 -57.4 -80.34 0 80.34zm183.45 0l-25.05 0 0 -172.92 25.05 0 0 172.92zm101.25 0l-25.05 0 0 -172.92 25.78 0 84.88 130.89 -1.22 -130.89 24.81 0 0 172.92 -24 0 -86.9 -134.82 1.7 134.82zm246.81 -87.31l107.34 0c-1.18,26.99 -9.97,48.84 -26.31,65.58 -16.34,16.74 -37.09,25.13 -62.14,25.13 -13.05,0 -25.05,-2.51 -36.04,-7.49 -10.98,-4.99 -20.83,-12.37 -29.59,-22.18 -7.37,-8.14 -12.97,-17.43 -16.78,-27.84 -3.81,-10.42 -5.71,-21.53 -5.71,-33.41 0,-12.12 2.31,-23.59 6.89,-34.45 4.62,-10.82 11.35,-20.59 20.26,-29.31 8.4,-8.39 17.8,-14.67 28.22,-18.8 10.41,-4.18 21.97,-6.25 34.65,-6.25 17.56,0 32.92,4.1 46.13,12.28 13.22,8.19 23.23,19.83 29.96,34.91l-30.89 0c-5.71,-7.34 -12.56,-12.85 -20.51,-16.58 -7.99,-3.69 -16.86,-5.56 -26.63,-5.56 -8.19,0 -16.01,1.54 -23.39,4.62 -7.42,3.09 -13.98,7.58 -19.7,13.42 -5.96,6.08 -10.62,13.18 -13.94,21.24 -3.37,8.11 -5.03,16.34 -5.03,24.73 0,9 1.5,17.51 4.54,25.58 3,8.02 7.34,14.95 12.97,20.83 5.96,6.16 12.85,10.95 20.63,14.35 7.79,3.41 15.73,5.11 23.84,5.11 13.21,0 24.85,-3.49 34.94,-10.5 10.09,-7.01 18.4,-17.39 24.93,-31.09l-78.64 0 0 -24.32zm229.44 37.45l22.37 0c0.41,8.96 3.04,16.09 7.95,21.4 4.9,5.36 11.27,8.03 19.05,8.03 8.63,0 15.52,-2.67 20.71,-8.03 5.15,-5.31 7.74,-12.48 7.74,-21.4 0,-7.86 -1.9,-13.9 -5.67,-18.16 -3.77,-4.29 -11.72,-8.27 -23.75,-12 -0.65,-0.16 -1.71,-0.44 -3.21,-0.85 -14.43,-3.85 -24.88,-10.21 -31.33,-19.09 -2.92,-3.89 -5.11,-8.03 -6.57,-12.4 -1.46,-4.42 -2.19,-9.08 -2.19,-14.07 0,-14.83 4.38,-26.79 13.14,-35.95 8.75,-9.12 20.22,-13.7 34.45,-13.7 13.18,0 23.8,4.09 31.9,12.28 8.07,8.19 12.57,19.41 13.42,33.68l-23.35 0c-0.4,-6.89 -2.71,-12.48 -6.93,-16.74 -4.21,-4.25 -9.48,-6.36 -15.89,-6.36 -6.85,0 -12.4,2.35 -16.7,7.09 -4.3,4.7 -6.44,10.78 -6.44,18.24 0,2.6 0.4,5.07 1.17,7.34 0.81,2.31 2.03,4.46 3.69,6.44 3.4,4.06 10.66,7.54 21.81,10.46 5.11,1.34 9.08,2.52 11.83,3.45 11.35,4.25 19.99,10.5 25.87,18.64 5.87,8.15 8.83,17.92 8.83,29.31 0,16.7 -4.74,30.16 -14.23,40.33 -9.48,10.22 -22.09,15.32 -37.73,15.32 -14.72,0 -26.68,-4.86 -35.88,-14.63 -9.24,-9.77 -13.9,-22.66 -14.06,-38.63zm252.32 -24.81l-24.36 -65.7 -24.8 65.7 49.16 0zm-58.08 24.33l-19.46 50.34 -26.55 0 67.61 -172.92 24.36 0 67.58 172.92 -27.45 0 -19.01 -50.34 -67.08 0zm200.02 50.34l-25.05 0 0 -149.57 -32.34 0 0 -23.35 89.74 0 0 23.35 -32.35 0 0 149.57zm120.18 0l-25.05 0 0 -172.92 25.05 0 0 172.92zm66.96 -49.86l22.37 0c0.41,8.96 3.04,16.09 7.95,21.4 4.9,5.36 11.27,8.03 19.05,8.03 8.63,0 15.52,-2.67 20.71,-8.03 5.15,-5.31 7.74,-12.48 7.74,-21.4 0,-7.86 -1.9,-13.9 -5.67,-18.16 -3.77,-4.29 -11.72,-8.27 -23.75,-12 -0.65,-0.16 -1.71,-0.44 -3.21,-0.85 -14.43,-3.85 -24.88,-10.21 -31.33,-19.09 -2.92,-3.89 -5.11,-8.03 -6.57,-12.4 -1.46,-4.42 -2.19,-9.08 -2.19,-14.07 0,-14.83 4.38,-26.79 13.14,-35.95 8.75,-9.12 20.22,-13.7 34.45,-13.7 13.18,0 23.8,4.09 31.9,12.28 8.07,8.19 12.57,19.41 13.42,33.68l-23.35 0c-0.4,-6.89 -2.71,-12.48 -6.93,-16.74 -4.21,-4.25 -9.48,-6.36 -15.89,-6.36 -6.85,0 -12.4,2.35 -16.7,7.09 -4.3,4.7 -6.44,10.78 -6.44,18.24 0,2.6 0.4,5.07 1.17,7.34 0.81,2.31 2.03,4.46 3.69,6.44 3.4,4.06 10.66,7.54 21.81,10.46 5.11,1.34 9.08,2.52 11.83,3.45 11.35,4.25 19.99,10.5 25.87,18.64 5.87,8.15 8.83,17.92 8.83,29.31 0,16.7 -4.74,30.16 -14.23,40.33 -9.48,10.22 -22.09,15.32 -37.73,15.32 -14.72,0 -26.68,-4.86 -35.88,-14.63 -9.24,-9.77 -13.9,-22.66 -14.06,-38.63zm170.36 49.86l0 -172.92 85.13 0 0 23.1 -60.32 0 0 51.56 60.32 0 0 22.62 -60.32 0 0 75.64 -24.81 0zm230.71 -74.67l-24.36 -65.7 -24.8 65.7 49.16 0zm-58.08 24.33l-19.46 50.34 -26.55 0 67.61 -172.92 24.36 0 67.58 172.92 -27.45 0 -19.01 -50.34 -67.08 0zm322.16 7.05c-7.5,15.08 -17.92,26.63 -31.18,34.66 -13.25,8.02 -28.61,12.03 -46.12,12.03 -12.98,0 -24.93,-2.51 -35.92,-7.49 -10.94,-4.99 -20.79,-12.37 -29.47,-22.18 -7.37,-8.14 -12.97,-17.43 -16.74,-27.84 -3.81,-10.42 -5.71,-21.53 -5.71,-33.41 0,-12.03 2.31,-23.46 6.89,-34.25 4.58,-10.82 11.31,-20.63 20.18,-29.51 8.39,-8.23 17.72,-14.47 27.97,-18.68 10.22,-4.26 21.24,-6.37 33.04,-6.37 17.75,0 33.32,4.18 46.74,12.57 13.41,8.39 23.51,20.27 30.32,35.59l-29.43 0c-5.56,-7.66 -12.37,-13.42 -20.43,-17.31 -8.11,-3.85 -17.23,-5.8 -27.48,-5.8 -8.15,0 -15.89,1.54 -23.27,4.62 -7.38,3.09 -13.91,7.58 -19.62,13.42 -5.92,6.08 -10.58,13.18 -13.9,21.24 -3.33,8.11 -4.99,16.34 -4.99,24.73 0,9 1.5,17.51 4.5,25.58 3.04,8.02 7.34,14.95 12.97,20.83 5.92,6.16 12.77,10.95 20.55,14.35 7.74,3.41 15.69,5.11 23.76,5.11 9.89,0 18.84,-1.87 26.79,-5.64 7.94,-3.73 14.51,-9.16 19.66,-16.25l30.89 0zm115.83 43.29l-25.05 0 0 -149.57 -32.34 0 0 -23.35 89.74 0 0 23.35 -32.35 0 0 149.57zm120.18 0l-25.05 0 0 -172.92 25.05 0 0 172.92zm94.44 -87.27c0,9 1.5,17.51 4.5,25.58 3.04,8.02 7.34,14.95 12.97,20.83 5.96,6.16 12.81,10.95 20.55,14.35 7.78,3.41 15.69,5.11 23.76,5.11 17.91,0 32.87,-6.37 44.91,-19.05 12.04,-12.69 18.08,-28.46 18.08,-47.31 0,-7.98 -1.46,-15.6 -4.34,-22.86 -2.88,-7.26 -7.09,-13.9 -12.65,-19.98 -6.56,-7.06 -13.62,-12.29 -21.12,-15.65 -7.45,-3.36 -15.76,-5.03 -24.88,-5.03 -8.15,0 -15.89,1.54 -23.27,4.62 -7.38,3.09 -13.91,7.58 -19.62,13.42 -5.92,6.08 -10.58,13.18 -13.9,21.24 -3.33,8.11 -4.99,16.34 -4.99,24.73zm-26.02 -0.25c0,-12.12 2.31,-23.59 6.89,-34.45 4.58,-10.82 11.31,-20.59 20.18,-29.31 8.39,-8.23 17.72,-14.47 27.97,-18.68 10.26,-4.26 21.28,-6.37 33.08,-6.37 12.08,0 23.31,2.11 33.64,6.37 10.34,4.21 19.78,10.54 28.34,18.93 8.79,8.63 15.4,18.28 19.82,28.94 4.42,10.7 6.65,22.21 6.65,34.57 0,12.25 -1.91,23.56 -5.72,33.89 -3.77,10.34 -9.48,19.58 -17.06,27.85 -8.96,9.65 -18.97,16.9 -30,21.81 -11.07,4.9 -23.02,7.37 -35.91,7.37 -13.02,0 -24.97,-2.51 -35.92,-7.49 -10.98,-4.99 -20.79,-12.37 -29.51,-22.18 -7.37,-8.14 -12.97,-17.43 -16.74,-27.84 -3.81,-10.42 -5.71,-21.53 -5.71,-33.41zm270.32 87.52l-25.05 0 0 -172.92 25.78 0 84.88 130.89 -1.22 -130.89 24.81 0 0 172.92 -24 0 -86.9 -134.82 1.7 134.82zm329.47 -74.67l-24.36 -65.7 -24.8 65.7 49.16 0zm-58.08 24.33l-19.46 50.34 -26.55 0 67.61 -172.92 24.36 0 67.58 172.92 -27.45 0 -19.01 -50.34 -67.08 0zm194.11 -32.84l12.81 0c17.35,0 30.24,-2.79 38.71,-8.43 8.47,-5.59 12.69,-14.15 12.69,-25.58 0,-11.14 -3.65,-19.33 -10.91,-24.56 -7.29,-5.23 -18.81,-7.82 -34.53,-7.82l-18.77 0 0 66.39zm0 83.18l-25.05 0 0 -172.92 49.86 0c20.75,0 36.6,4.78 47.54,14.39 10.95,9.56 16.42,23.43 16.42,41.55 0,14.1 -4.58,25.86 -13.74,35.34 -9.16,9.45 -20.96,14.51 -35.39,15.24l49.13 66.4 -31.37 0 -57.4 -80.34 0 80.34zm176.64 -87.27c0,9 1.5,17.51 4.5,25.58 3.04,8.02 7.34,14.95 12.97,20.83 5.96,6.16 12.81,10.95 20.55,14.35 7.78,3.41 15.69,5.11 23.76,5.11 17.91,0 32.87,-6.37 44.91,-19.05 12.04,-12.69 18.08,-28.46 18.08,-47.31 0,-7.98 -1.46,-15.6 -4.34,-22.86 -2.88,-7.26 -7.09,-13.9 -12.65,-19.98 -6.56,-7.06 -13.62,-12.29 -21.12,-15.65 -7.45,-3.36 -15.76,-5.03 -24.88,-5.03 -8.15,0 -15.89,1.54 -23.27,4.62 -7.38,3.09 -13.91,7.58 -19.62,13.42 -5.92,6.08 -10.58,13.18 -13.9,21.24 -3.33,8.11 -4.99,16.34 -4.99,24.73zm-26.02 -0.25c0,-12.12 2.31,-23.59 6.89,-34.45 4.58,-10.82 11.31,-20.59 20.18,-29.31 8.39,-8.23 17.72,-14.47 27.97,-18.68 10.26,-4.26 21.28,-6.37 33.08,-6.37 12.08,0 23.31,2.11 33.64,6.37 10.34,4.21 19.78,10.54 28.34,18.93 8.79,8.63 15.4,18.28 19.82,28.94 4.42,10.7 6.65,22.21 6.65,34.57 0,12.25 -1.91,23.56 -5.72,33.89 -3.77,10.34 -9.48,19.58 -17.06,27.85 -8.96,9.65 -18.97,16.9 -30,21.81 -11.07,4.9 -23.02,7.37 -35.91,7.37 -13.02,0 -24.97,-2.51 -35.92,-7.49 -10.98,-4.99 -20.79,-12.37 -29.51,-22.18 -7.37,-8.14 -12.97,-17.43 -16.74,-27.84 -3.81,-10.42 -5.71,-21.53 -5.71,-33.41zm243.57 -85.4l25.05 0 0 109.97c0,15.65 2.35,26.55 7.01,32.63 4.7,6.12 12.65,9.16 23.92,9.16 10.7,0 18.28,-3.12 22.74,-9.32 4.41,-6.2 6.64,-17.03 6.64,-32.47l0 -109.97 25.05 0 0 109.73c0,11.71 -0.64,20.71 -1.94,26.95 -1.34,6.24 -3.49,11.68 -6.49,16.26 -5.23,7.9 -11.59,13.78 -19.09,17.63 -7.5,3.85 -16.29,5.75 -26.43,5.75 -11.1,0 -20.47,-1.86 -28.05,-5.59 -7.62,-3.69 -14.19,-9.57 -19.74,-17.55 -3.08,-4.58 -5.31,-9.73 -6.65,-15.44 -1.33,-5.68 -2.02,-15.04 -2.02,-28.01l0 -109.73zm210.2 172.92l-25.05 0 0 -172.92 25.78 0 84.88 130.89 -1.22 -130.89 24.81 0 0 172.92 -24 0 -86.9 -134.82 1.7 134.82zm208.46 -23.1l30.41 0c19.25,0 34.49,-5.6 45.68,-16.83 11.23,-11.18 16.82,-26.43 16.82,-45.68 0,-19.98 -5.96,-35.59 -17.84,-46.86 -11.87,-11.23 -28.29,-16.86 -49.29,-16.86l-25.78 0 0 126.23zm24.24 23.1l-48.56 0 0 -172.92 55.7 0c25.98,0 46.94,8.02 62.91,24.12 15.93,16.05 23.91,37.05 23.91,62.95 0,14.71 -3,28.13 -8.95,40.25 -6,12.12 -14.6,22.21 -25.87,30.28 -7.58,5.47 -15.68,9.4 -24.32,11.75 -8.63,2.39 -20.26,3.57 -34.82,3.57zm269.97 0l-25.05 0 0 -149.57 -32.34 0 0 -23.35 89.74 0 0 23.35 -32.35 0 0 149.57zm120.18 0l-25.05 0 0 -172.92 25.05 0 0 73.45 70.53 0 0 -73.45 25.05 0 0 172.92 -25.05 0 0 -74.91 -70.53 0 0 74.91zm261.56 0l-89.74 0 0 -172.92 89.74 0 0 23.1 -64.69 0 0 51.56 64.69 0 0 22.62 -64.69 0 0 51.81 64.69 0 0 23.83zm200.82 -87.31l107.34 0c-1.18,26.99 -9.97,48.84 -26.31,65.58 -16.34,16.74 -37.09,25.13 -62.14,25.13 -13.05,0 -25.05,-2.51 -36.04,-7.49 -10.98,-4.99 -20.83,-12.37 -29.59,-22.18 -7.37,-8.14 -12.97,-17.43 -16.78,-27.84 -3.81,-10.42 -5.71,-21.53 -5.71,-33.41 0,-12.12 2.31,-23.59 6.89,-34.45 4.62,-10.82 11.35,-20.59 20.26,-29.31 8.4,-8.39 17.8,-14.67 28.22,-18.8 10.41,-4.18 21.97,-6.25 34.65,-6.25 17.56,0 32.92,4.1 46.13,12.28 13.22,8.19 23.23,19.83 29.96,34.91l-30.89 0c-5.71,-7.34 -12.56,-12.85 -20.51,-16.58 -7.99,-3.69 -16.86,-5.56 -26.63,-5.56 -8.19,0 -16.01,1.54 -23.39,4.62 -7.42,3.09 -13.98,7.58 -19.7,13.42 -5.96,6.08 -10.62,13.18 -13.94,21.24 -3.37,8.11 -5.03,16.34 -5.03,24.73 0,9 1.5,17.51 4.54,25.58 3,8.02 7.34,14.95 12.97,20.83 5.96,6.16 12.85,10.95 20.63,14.35 7.79,3.41 15.73,5.11 23.84,5.11 13.21,0 24.85,-3.49 34.94,-10.5 10.09,-7.01 18.4,-17.39 24.93,-31.09l-78.64 0 0 -24.32zm257.76 87.31l-81.72 0 0 -172.92 25.05 0 0 149.09 56.67 0 0 23.83zm75.79 -87.27c0,9 1.5,17.51 4.5,25.58 3.04,8.02 7.34,14.95 12.97,20.83 5.96,6.16 12.81,10.95 20.55,14.35 7.78,3.41 15.69,5.11 23.76,5.11 17.91,0 32.87,-6.37 44.91,-19.05 12.04,-12.69 18.08,-28.46 18.08,-47.31 0,-7.98 -1.46,-15.6 -4.34,-22.86 -2.88,-7.26 -7.09,-13.9 -12.65,-19.98 -6.56,-7.06 -13.62,-12.29 -21.12,-15.65 -7.45,-3.36 -15.76,-5.03 -24.88,-5.03 -8.15,0 -15.89,1.54 -23.27,4.62 -7.38,3.09 -13.91,7.58 -19.62,13.42 -5.92,6.08 -10.58,13.18 -13.9,21.24 -3.33,8.11 -4.99,16.34 -4.99,24.73zm-26.02 -0.25c0,-12.12 2.31,-23.59 6.89,-34.45 4.58,-10.82 11.31,-20.59 20.18,-29.31 8.39,-8.23 17.72,-14.47 27.97,-18.68 10.26,-4.26 21.28,-6.37 33.08,-6.37 12.08,0 23.31,2.11 33.64,6.37 10.34,4.21 19.78,10.54 28.34,18.93 8.79,8.63 15.4,18.28 19.82,28.94 4.42,10.7 6.65,22.21 6.65,34.57 0,12.25 -1.91,23.56 -5.72,33.89 -3.77,10.34 -9.48,19.58 -17.06,27.85 -8.96,9.65 -18.97,16.9 -30,21.81 -11.07,4.9 -23.02,7.37 -35.91,7.37 -13.02,0 -24.97,-2.51 -35.92,-7.49 -10.98,-4.99 -20.79,-12.37 -29.51,-22.18 -7.37,-8.14 -12.97,-17.43 -16.74,-27.84 -3.81,-10.42 -5.71,-21.53 -5.71,-33.41zm270.08 -12.93l7.94 0c12.89,0 22.09,-1.94 27.61,-5.87 5.47,-3.94 8.22,-10.42 8.22,-19.46 0,-8.03 -2.47,-13.94 -7.45,-17.79 -4.99,-3.86 -12.65,-5.76 -22.91,-5.76l-13.41 0 0 48.88zm-0.25 77.1l19.7 0c11.6,0 20.11,-2.15 25.58,-6.48 5.47,-4.3 8.23,-10.99 8.23,-20.03 0,-9.81 -2.84,-17.23 -8.55,-22.29 -5.72,-5.07 -14.15,-7.62 -25.26,-7.62l-19.7 0 0 56.42zm12.57 -149.57c18.48,0 32.51,4.05 42.11,12.12 9.61,8.06 14.39,19.82 14.39,35.3 0,7.1 -1.58,13.42 -4.7,18.89 -3.12,5.43 -7.7,9.97 -13.74,13.54 8.47,2.51 15.16,7.38 20.07,14.59 4.9,7.22 7.37,15.77 7.37,25.74 0,8.11 -1.5,15.69 -4.5,22.74 -3.04,7.1 -7.17,12.98 -12.48,17.64 -5.23,4.46 -11.15,7.62 -17.8,9.52 -6.6,1.91 -15.93,2.84 -27.96,2.84l-39.89 0 0 -172.92 37.13 0zm223.7 172.92l-89.74 0 0 -172.92 89.74 0 0 23.1 -64.69 0 0 51.56 64.69 0 0 22.62 -64.69 0 0 51.81 64.69 0 0 23.83z"/>
  <path class="fil3" d="M4757.85 2700.73l-101.11 302.19 -69.64 0 -100.89 -302.19 64.49 0 55.59 179.21c0.99,3.32 2.54,9.1 4.66,17.43 2.12,8.4 4.38,17.14 6.63,26.39 2.26,9.24 3.74,16.86 4.45,22.93 0.85,-6.07 2.33,-13.69 4.44,-22.86 2.12,-9.1 4.24,-17.92 6.28,-26.25 2.05,-8.32 3.6,-14.18 4.59,-17.64l56.16 -179.21 64.35 0zm37.39 302.19l0 -302.19 63.72 0 0 302.19 -63.72 0zm403.09 0l-80.58 0 -128.97 -227.61 -1.91 0c0.57,9.52 1.06,19.05 1.48,28.64 0.43,9.6 0.78,19.13 1.2,28.51 0.43,9.45 0.85,18.98 1.27,28.43l0 142.03 -57.08 0 0 -302.19 80.01 0 128.77 225.07 1.48 0c-0.43,-9.38 -0.85,-18.62 -1.27,-27.8 -0.43,-9.17 -0.78,-18.27 -0.99,-27.37 -0.28,-9.1 -0.56,-18.2 -0.85,-27.31l0 -142.59 57.44 0 0 302.19zm251.17 -84.1c0,17.92 -4.23,33.44 -12.77,46.71 -8.54,13.19 -21.1,23.42 -37.53,30.69 -16.44,7.19 -36.34,10.86 -59.62,10.86 -10.38,0 -20.46,-0.7 -30.27,-2.11 -9.88,-1.34 -19.33,-3.39 -28.44,-6 -9.1,-2.61 -17.78,-5.93 -26.03,-9.88l0 -59.55c14.18,6.35 28.86,12 44.1,17.08 15.24,5.01 30.26,7.55 45.15,7.55 10.23,0 18.49,-1.41 24.84,-4.17 6.35,-2.75 10.93,-6.56 13.76,-11.36 2.82,-4.79 4.23,-10.37 4.23,-16.58 0,-7.55 -2.47,-14.04 -7.34,-19.4 -4.94,-5.36 -11.71,-10.37 -20.39,-15.1 -8.68,-4.65 -18.63,-9.73 -29.77,-15.31 -7.13,-3.24 -14.82,-7.34 -23.07,-12.13 -8.19,-4.87 -15.95,-10.73 -23.22,-17.57 -7.34,-6.92 -13.26,-15.24 -17.92,-25.05 -4.58,-9.81 -6.91,-21.52 -6.91,-35.13 0,-18.07 4.09,-33.52 12.34,-46.29 8.19,-12.84 19.83,-22.65 35,-29.49 15.17,-6.77 33.16,-10.23 53.97,-10.23 15.6,0 30.41,1.83 44.52,5.5 14.12,3.67 28.79,8.82 43.96,15.59l-20.25 50.03c-13.69,-5.65 -25.96,-10.02 -36.83,-13.13 -10.86,-3.1 -21.94,-4.65 -33.23,-4.65 -7.9,0 -14.61,1.27 -20.18,3.81 -5.57,2.54 -9.81,6.14 -12.63,10.79 -2.82,4.59 -4.23,9.95 -4.23,16.02 0,7.13 2.04,13.19 6.14,18.06 4.02,4.87 10.23,9.6 18.55,14.18 8.33,4.52 18.77,9.81 31.33,15.88 15.31,7.34 28.36,14.96 39.16,22.86 10.86,7.9 19.12,17.21 24.9,27.94 5.79,10.65 8.68,23.84 8.68,39.58zm296.26 -218.09l0 195.93c0,20.96 -4.52,39.8 -13.55,56.45 -9.03,16.65 -22.64,29.84 -40.92,39.51 -18.27,9.59 -41.27,14.46 -68.93,14.46 -39.3,0 -69.29,-10.09 -89.96,-30.34 -20.67,-20.17 -30.97,-47.06 -30.97,-80.71l0 -195.3 63.43 0 0 186.06c0,24.48 5.01,41.77 15.03,51.71 9.94,10.02 24.69,15.03 44.09,15.03 13.69,0 24.77,-2.4 33.3,-7.12 8.54,-4.8 14.82,-12.14 18.91,-22.02 4.09,-9.95 6.07,-22.65 6.07,-38.03l0 -185.63 63.5 0zm199.67 302.19l-71.89 -236.29 -1.91 0c0.28,5.93 0.71,14.47 1.34,25.68 0.64,11.15 1.2,22.93 1.77,35.42 0.56,12.49 0.84,23.78 0.84,33.8l0 141.39 -57.08 0 0 -302.19 86.86 0 70.48 229.66 1.2 0 74.65 -229.66 86.78 0 0 302.19 -59.48 0 0 -143.86c0,-9.24 0.14,-19.9 0.5,-32.03 0.35,-12.14 0.77,-23.71 1.34,-34.72 0.56,-11.07 0.99,-19.47 1.27,-25.26l-1.91 0 -76.9 235.87 -57.86 0zm557.67 0l-21.44 -71.97 -107.74 0 -21.45 71.97 -68.65 0 104.56 -303.46 78.18 0 105.19 303.46 -68.65 0zm-36.33 -125.45l-21.73 -70.9c-1.34,-4.87 -3.18,-10.94 -5.36,-18.21 -2.19,-7.34 -4.38,-14.74 -6.5,-22.22 -2.18,-7.48 -3.88,-14.11 -5.29,-19.76 -1.41,5.51 -3.17,12.42 -5.5,20.6 -2.26,8.19 -4.44,15.95 -6.56,23.36 -2.19,7.34 -3.74,12.77 -4.66,16.23l-21.52 70.9 77.12 0zm382.4 125.45l-72.6 0 -68.15 -113.45 -68.44 113.45 -68.23 0 98.21 -155.64 -91.79 -146.55 70.06 0 63.08 107.88 61.95 -107.88 68.65 0 -92.78 149.86 100.04 152.33zm132.71 -302.19c38.46,0 66.54,8.33 84.32,24.98 17.78,16.72 26.67,39.79 26.67,69.28 0,13.34 -1.98,26.04 -6,38.1 -4.02,12.07 -10.44,22.79 -19.4,32.18 -8.96,9.38 -20.89,16.72 -35.7,22.08 -14.82,5.36 -33.02,8.11 -54.68,8.11l-26.81 0 0 107.46 -63.72 0 0 -302.19 95.32 0zm-3.31 52.28l-28.29 0 0 90.1 20.46 0c11.85,0 22.08,-1.55 30.69,-4.72 8.61,-3.18 15.31,-8.19 20.04,-14.96 4.72,-6.85 7.12,-15.67 7.12,-26.39 0,-14.89 -4.09,-25.96 -12.2,-33.16 -8.12,-7.27 -20.75,-10.87 -37.82,-10.87zm257.38 -52.28c26.95,0 49.32,3.32 67.03,9.88 17.71,6.63 30.83,16.65 39.37,29.99 8.6,13.4 12.84,30.19 12.84,50.44 0,13.76 -2.54,25.83 -7.62,36.06 -5.15,10.3 -11.86,19.05 -20.25,26.24 -8.47,7.27 -17.57,13.2 -27.52,17.92l87.42 131.66 -70.7 0 -70.9 -116.13 -33.02 0 0 116.13 -63.72 0 0 -302.19 87.07 0zm-4.38 52.28l-18.97 0 0 82.06 20.24 0c20.68,0 35.49,-3.6 44.52,-10.72 9.04,-7.2 13.55,-17.64 13.55,-31.47 0,-14.32 -4.8,-24.56 -14.46,-30.69 -9.67,-6.14 -24.63,-9.18 -44.88,-9.18zm364.63 249.91l-171.59 0 0.22 -302.19 171.59 0 -0.22 52.5 -107.87 -0.22 0.21 66.54 100.19 0 0 52.56 -100.4 0 0.21 77.89 107.88 0.22 -0.22 52.7zm238.48 -84.1c0,17.92 -4.23,33.44 -12.77,46.71 -8.54,13.19 -21.1,23.42 -37.53,30.69 -16.44,7.19 -36.34,10.86 -59.62,10.86 -10.38,0 -20.46,-0.7 -30.27,-2.11 -9.88,-1.34 -19.33,-3.39 -28.44,-6 -9.1,-2.61 -17.78,-5.93 -26.03,-9.88l0 -59.55c14.18,6.35 28.86,12 44.1,17.08 15.24,5.01 30.26,7.55 45.15,7.55 10.23,0 18.49,-1.41 24.84,-4.17 6.35,-2.75 10.93,-6.56 13.76,-11.36 2.82,-4.79 4.23,-10.37 4.23,-16.58 0,-7.55 -2.47,-14.04 -7.34,-19.4 -4.94,-5.36 -11.71,-10.37 -20.39,-15.1 -8.68,-4.65 -18.63,-9.73 -29.77,-15.31 -7.13,-3.24 -14.82,-7.34 -23.07,-12.13 -8.19,-4.87 -15.95,-10.73 -23.22,-17.57 -7.34,-6.92 -13.26,-15.24 -17.92,-25.05 -4.58,-9.81 -6.91,-21.52 -6.91,-35.13 0,-18.07 4.09,-33.52 12.34,-46.29 8.19,-12.84 19.83,-22.65 35,-29.49 15.17,-6.77 33.16,-10.23 53.97,-10.23 15.6,0 30.41,1.83 44.52,5.5 14.12,3.67 28.79,8.82 43.96,15.59l-20.25 50.03c-13.69,-5.65 -25.96,-10.02 -36.83,-13.13 -10.86,-3.1 -21.94,-4.65 -33.23,-4.65 -7.9,0 -14.61,1.27 -20.18,3.81 -5.57,2.54 -9.81,6.14 -12.63,10.79 -2.82,4.59 -4.23,9.95 -4.23,16.02 0,7.13 2.04,13.19 6.14,18.06 4.02,4.87 10.23,9.6 18.55,14.18 8.33,4.52 18.77,9.81 31.33,15.88 15.31,7.34 28.36,14.96 39.16,22.86 10.86,7.9 19.12,17.21 24.9,27.94 5.79,10.65 8.68,23.84 8.68,39.58zm230.29 0c0,17.92 -4.23,33.44 -12.77,46.71 -8.54,13.19 -21.1,23.42 -37.53,30.69 -16.44,7.19 -36.34,10.86 -59.62,10.86 -10.38,0 -20.46,-0.7 -30.27,-2.11 -9.88,-1.34 -19.33,-3.39 -28.44,-6 -9.1,-2.61 -17.78,-5.93 -26.03,-9.88l0 -59.55c14.18,6.35 28.86,12 44.1,17.08 15.24,5.01 30.26,7.55 45.15,7.55 10.23,0 18.49,-1.41 24.84,-4.17 6.35,-2.75 10.93,-6.56 13.76,-11.36 2.82,-4.79 4.23,-10.37 4.23,-16.58 0,-7.55 -2.47,-14.04 -7.34,-19.4 -4.94,-5.36 -11.71,-10.37 -20.39,-15.1 -8.68,-4.65 -18.63,-9.73 -29.77,-15.31 -7.13,-3.24 -14.82,-7.34 -23.07,-12.13 -8.19,-4.87 -15.95,-10.73 -23.22,-17.57 -7.34,-6.92 -13.26,-15.24 -17.92,-25.05 -4.58,-9.81 -6.91,-21.52 -6.91,-35.13 0,-18.07 4.09,-33.52 12.34,-46.29 8.19,-12.84 19.83,-22.65 35,-29.49 15.17,-6.77 33.16,-10.23 53.97,-10.23 15.6,0 30.41,1.83 44.52,5.5 14.12,3.67 28.79,8.82 43.96,15.59l-20.25 50.03c-13.69,-5.65 -25.96,-10.02 -36.83,-13.13 -10.86,-3.1 -21.94,-4.65 -33.23,-4.65 -7.9,0 -14.61,1.27 -20.18,3.81 -5.57,2.54 -9.81,6.14 -12.63,10.79 -2.82,4.59 -4.23,9.95 -4.23,16.02 0,7.13 2.04,13.19 6.14,18.06 4.02,4.87 10.23,9.6 18.55,14.18 8.33,4.52 18.77,9.81 31.33,15.88 15.31,7.34 28.36,14.96 39.16,22.86 10.86,7.9 19.12,17.21 24.9,27.94 5.79,10.65 8.68,23.84 8.68,39.58zm161.85 84.1l0 -302.19 63.72 0 0 302.19 -63.72 0zm403.09 0l-80.58 0 -128.97 -227.61 -1.91 0c0.57,9.52 1.06,19.05 1.48,28.64 0.43,9.6 0.78,19.13 1.2,28.51 0.43,9.45 0.85,18.98 1.27,28.43l0 142.03 -57.08 0 0 -302.19 80.01 0 128.77 225.07 1.48 0c-0.43,-9.38 -0.85,-18.62 -1.27,-27.8 -0.43,-9.17 -0.78,-18.27 -0.99,-27.37 -0.28,-9.1 -0.56,-18.2 -0.85,-27.31l0 -142.59 57.44 0 0 302.19zm322.08 -154.23c0,34.07 -6.42,62.51 -19.19,85.37 -12.84,22.93 -31.4,40.07 -55.6,51.57 -24.27,11.5 -53.48,17.29 -87.7,17.29l-84.74 0 0 -302.19 93.63 0c31.33,0 58.42,5.58 81.35,16.87 22.93,11.21 40.71,27.79 53.34,49.81 12.63,21.94 18.91,49.03 18.91,81.28zm-66.11 1.9c0,-22.51 -3.25,-40.92 -9.67,-55.31 -6.35,-14.4 -15.87,-25.05 -28.36,-31.96 -12.56,-6.85 -28.01,-10.31 -46.35,-10.31l-33.02 0 0 197.21 26.67 0c30.55,0 53.33,-8.4 68.29,-25.12 14.96,-16.72 22.44,-41.56 22.44,-74.51zm127.7 152.33l0 -302.19 63.72 0 0 302.19 -63.72 0zm320.39 0l-21.44 -71.97 -107.74 0 -21.45 71.97 -68.65 0 104.56 -303.46 78.18 0 105.19 303.46 -68.65 0zm-36.33 -125.45l-21.73 -70.9c-1.34,-4.87 -3.18,-10.94 -5.36,-18.21 -2.19,-7.34 -4.38,-14.74 -6.5,-22.22 -2.18,-7.48 -3.88,-14.11 -5.29,-19.76 -1.41,5.51 -3.17,12.42 -5.5,20.6 -2.26,8.19 -4.44,15.95 -6.56,23.36 -2.19,7.34 -3.74,12.77 -4.66,16.23l-21.52 70.9 77.12 0zm345.57 -176.74c38.46,0 66.54,8.33 84.32,24.98 17.78,16.72 26.67,39.79 26.67,69.28 0,13.34 -1.98,26.04 -6,38.1 -4.02,12.07 -10.44,22.79 -19.4,32.18 -8.96,9.38 -20.89,16.72 -35.7,22.08 -14.82,5.36 -33.02,8.11 -54.68,8.11l-26.81 0 0 107.46 -63.72 0 0 -302.19 95.32 0zm-3.31 52.28l-28.29 0 0 90.1 20.46 0c11.85,0 22.08,-1.55 30.69,-4.72 8.61,-3.18 15.31,-8.19 20.04,-14.96 4.72,-6.85 7.12,-15.67 7.12,-26.39 0,-14.89 -4.09,-25.96 -12.2,-33.16 -8.12,-7.27 -20.75,-10.87 -37.82,-10.87zm404.56 -52.28l-101.11 302.19 -69.64 0 -100.89 -302.19 64.49 0 55.59 179.21c0.99,3.32 2.54,9.1 4.66,17.43 2.12,8.4 4.38,17.14 6.63,26.39 2.26,9.24 3.74,16.86 4.45,22.93 0.85,-6.07 2.33,-13.69 4.44,-22.86 2.12,-9.1 4.24,-17.92 6.28,-26.25 2.05,-8.32 3.6,-14.18 4.59,-17.64l56.16 -179.21 64.35 0zm152.33 302.19l-63.43 0 0 -248.85 -80.65 -0.21 0.22 -53.13 224.5 0 0 53.34 -80.43 -0.21 -0.21 249.06zm234.6 0l-0.22 -302.19 63.93 0 -0.21 249.49 119.87 -0.22 0.21 52.92 -183.58 0zm349.74 0l-63.43 0 0 -248.85 -80.65 -0.21 0.22 -53.13 224.5 0 0 53.34 -80.43 -0.21 -0.21 249.06zm373.73 -154.23c0,34.07 -6.42,62.51 -19.19,85.37 -12.84,22.93 -31.4,40.07 -55.6,51.57 -24.27,11.5 -53.48,17.29 -87.7,17.29l-84.74 0 0 -302.19 93.63 0c31.33,0 58.42,5.58 81.35,16.87 22.93,11.21 40.71,27.79 53.34,49.81 12.63,21.94 18.91,49.03 18.91,81.28zm-66.11 1.9c0,-22.51 -3.25,-40.92 -9.67,-55.31 -6.35,-14.4 -15.87,-25.05 -28.36,-31.96 -12.56,-6.85 -28.01,-10.31 -46.35,-10.31l-33.02 0 0 197.21 26.67 0c30.55,0 53.33,-8.4 68.29,-25.12 14.96,-16.72 22.44,-41.56 22.44,-74.51zm114.3 122.77c0,-12.84 3.53,-21.87 10.51,-27.17 7.06,-5.29 15.59,-7.97 25.68,-7.97 9.74,0 18.14,2.68 25.19,7.97 7.06,5.3 10.51,14.33 10.51,27.17 0,12.27 -3.45,21.16 -10.51,26.74 -7.05,5.64 -15.45,8.39 -25.19,8.39 -10.09,0 -18.62,-2.75 -25.68,-8.39 -6.98,-5.58 -10.51,-14.47 -10.51,-26.74z"/>
 </g>
</svg>
