<svg id="Layer_1" enable-background="new 0 0 38 38" viewBox="0 0 38 38" xmlns="http://www.w3.org/2000/svg"><g id="Location_Tracking"><g><path d="m32.3068771 11.5654297c.2416992 0 .4379883-.1962891.4379883-.4379883v-2.515625c0-.2416992-.1962891-.4379883-.4379883-.4379883h-.4243164v-3.8540039c0-.8657227-.7041016-1.5698242-1.5698242-1.5698242h-14.3100586c-.8657227 0-1.5698242.7041016-1.5698242 1.5698242v9.925293l-3.5102539-.0151367c-.0317383 0-.0498047-.0180664-.0512695-.0229492.0107422-.0981445.0112305-.21875.0112305-.3168945 0-.3032227-.246582-.5498047-.5498047-.5498047h-.459961c-.3808594 0-.71875.2666016-.8041992.6352539-.2318726 1.032959-.4070435 1.9750977-.5386353 2.8808594-.6462774.5414734-.933579.9397984-1.2266846 1.3452148l-.140564-.0517578c-.4799805-.1899414-1.0300293.0400391-1.2200317.5200195l-.1599731.4299316c-.1831055.4624023.0302124.9736328.4838867 1.1899414-.189249.4138241-.4140911 1.8414192-.223877 3.1376953-.0265502.0100098-.0525512.0100098-.080017.022461l-.1799927.0900879c-.4700317.2299805-.6600342.7897949-.4299927 1.2600098l.2000122.3999023c.2190552.4475098.7359619.6296387 1.1908569.4484863.2047133.3232365.5441122 1.1944695 1.7261353 2.2060547.142334 1.0112305.3175049 1.9785156.5393066 2.9516602.0859375.3730469.4165039.6337891.8037109.6337891.3563385-.0224781.6165257.0713501.8417969-.1518555.2238188-.2218208.1405563-.4657345.1582031-.6679688 0-.0322266.0292969-.0498047.0493164-.0498047l3.5708008.0070801c.0011902.3794212.0103312 3.2928581.0097656 3.1125488 0 .8603516.7045898 1.5600586 1.5703125 1.5600586h14.3095703c.8657227 0 1.5703125-.699707 1.5703125-1.5600586v-6.3598633c0-.0092773-.0092163-.0144043-.0102539-.0231934v-3.9470215c0-.1381836-.1118164-.25-.25-.25s-.25.1118164-.25.25v3.9702148 5.2397461c0 .5844727-.4799805 1.0600586-1.0698242 1.0600586h-14.3100585c-.5620117 0-1.027832-.4326172-1.0605469-.984375-.0006714-.0109863-.0112305-.0170898-.0132446-.0275879-.0018311-.0166016.0092163-.0319824.0039673-.0480957v-1.9914551l.5336914.0012207c.0322266.0019531.0664063.0268555.0683594.0288086-.0112305.0893555-.012207.2011719-.012207.3017578 0 .2949219.2299805.5405273.5400391.5600586h.5698242c.3867188 0 .7172852-.2607422.8027344-.6298828.2432861-.9836426.4310913-2.0112305.562561-3.0546875.867981-.767334 1.5253906-1.7263184 1.9382935-2.7856445h1.706665c.8544922 0 1.5498047-.6640625 1.5498047-1.4799805v-3.8701172c0-.5405273.4755859-.9799805 1.0600586-.9799805.5791016 0 1.050293.4394531 1.050293.9799805v.6899414c0 .8217773.6953125 1.4902344 1.5498047 1.4902344h.4501953c.8598633 0 1.5595703-.668457 1.5595703-1.4902344v-7.8398436c0-.8212891-.699707-1.4897461-1.5595703-1.4897461h-3.581604c.4785767-.7995605.8604126-1.6083984.8604126-2.1645508 0-1.4570313-1.1855469-2.6425781-2.6425781-2.6425781s-2.6425781 1.1855469-2.6425781 2.6425781c0 .8583984.845459 2.3217773 1.5674438 3.4179688-.730896.1464844-1.1611938.4228516-1.1611938.7963867 0 1.2287779 4.4799805 1.2254391 4.4799805 0 0-.390625-.4649048-.689209-1.2605591-.8305664.1616821-.2290039.3260498-.4682617.4887085-.7192383h3.8919678c.5844727 0 1.0595703.4438477 1.0595703.9897461v7.8398438c0 .5458984-.4750977.9902344-1.0595703.9902344h-.4501953c-.5791016 0-1.0498047-.4443359-1.0498047-.9902344v-.6899414c0-.815918-.6953125-1.4799805-1.550293-1.4799805-.8603516 0-1.5600586.6640625-1.5600586 1.4799805v3.8701172c0 .5405273-.4707031.9799805-1.0498047.9799805h-1.5379028c.2230148-.7291069.2108917-.810915.2344971-.9121094.0046387 0 .008667.0021973.0133057.0021973h.2000122c.5199585.0097656.9400024-.4101563.9400024-.9301758v-.4599609c0-.5100098-.4100342-.9399414-.9300537-.9399414h-.2099609c-.0011597 0-.0021362.0004883-.0032959.0004883-.2573853-1.6999512-1.1328125-3.2561035-2.463623-4.3950195-.1080933-.9240723-.2423706-1.8706055-.4070435-2.8190918-.0708008-.3974609-.4135742-.6860352-.815918-.6860352h-.5302734c-.3032227 0-.5498047.246582-.5498047.5498047v.2900391c0 .0292969-.0166016.0498047-.0390625.0498047l-.6108398-.0026855v-9.9274905c0-.5898438.4799805-1.0698242 1.0698242-1.0698242h2.755127c.187561.8374023.9324951 1.4699707 1.8248901 1.4699707h5.1600342c.892395 0 1.6454468-.6325684 1.8345337-1.4699707h2.7354736c.5898438 0 1.0698242.4799805 1.0698242 1.0698242v3.8964844c-.1498413.0695801-.2553711.2194824-.2553711.3955078v2.515625c0 .1757813.1055298.3256836.2553711.3952637v1.9968262c-.1498413.0695801-.2553711.2194824-.2553711.3955078v3.9516602c0 .1757813.1055298.3256836.2553711.3952637v2.5178223c0 .1381836.1118164.25.25.25s.25-.1118164.25-.25v-2.4750977h.4243164c.2416992 0 .4379883-.1962891.4379883-.4379883v-3.9516602c0-.2416992-.1962891-.4379883-.4379883-.4379883h-.4243164v-1.9116211zm-10.3676757-4.8623047c1.1816406 0 2.1425781.9609375 2.1425781 2.1425781 0 .6557617-.7797852 2.0791016-2.0854492 3.8071289-.0454102.0600586-.1108398.0800781-.1357422.0673828-.03125-.0004883-.0898438-.0107422-.1323242-.0712891-1.2094727-1.7246094-1.9316406-3.1464844-1.9316406-3.8032227-.0000001-1.1816405.9609374-2.142578 2.1425781-2.142578zm1.7441406 6.3535156c-.0322266.1162109-.6162109.4233398-1.7407227.4233398s-1.7080078-.3071289-1.7402344-.4155273c.019043-.0639648.2978516-.2514648.9638672-.3508301.16609.2412958.3017387.4996061.6850586.5065918h.012207c.3840771 0 .528616-.2608948.7266235-.529541.7524415.0947266 1.0735475.3039551 1.0932008.3659668zm-3.7407227 9.3535157c0 3.8234425-3.1924744 6.7084961-6.7450562 6.7084961-4.5570946-.047987-7.6794834-4.3135586-6.4819946-8.597168.0947394-.1565266.6120968-2.5653019 3.1663208-4.0004883 4.4559088-2.5046463 10.06073.6590881 10.06073 5.8891602zm5.0900879-18.4101563h-3.75c-.1300049 0-.25-.1101074-.25-.25s.1199951-.25.25-.25h3.75c.1300049 0 .25.1101074.25.25s-.1199951.25-.25.25z"/><path d="m29.5124435 26.4550781v2.6611328c0 .1381836.1118164.25.25.25s.25-.1118164.25-.25v-2.6611328c0-.1381836-.1118164-.25-.25-.25s-.25.1118164-.25.25z"/><path d="m13.2160568 17.3603516c-.0058594 0-.0107422 0-.0166016 0-2.754138 0-5.0153027 2.2298508-5.0244141 5.0058594-.0078125 1.5810547.7421875 3.0839844 1.9858398 4.0092773.105957.1293945.3647461.1005859.4321289-.0668945.0415039-.1054688.0009766-.2329102-.090332-.300293-1.1518555-.8476563-1.8349609-2.2084961-1.8276367-3.6396484.0080843-2.4958591 2.0396862-4.5083008 4.5253906-4.5083008h.0146484c2.4695749 0 4.5217781 2.0449848 4.5073242 4.5385742-.0185127 3.1732502-3.2322111 5.3659706-6.1230469 4.215332-.1274414-.0498047-.2734375.0117188-.324707.1401367-.0507813.128418.0117188.2734375.1401367.324707 3.2121735 1.277504 6.7878189-1.1457462 6.8076172-4.6772461.0163614-2.7690048-2.2597473-5.0415038-5.0063475-5.0415038z"/><path d="m10.2214279 21.7915039c.0499725-.0528545.0490541-.174118-.0043945-.2255859-.0258789-.0249023-.0649414-.0371094-.1162109-.0361328l-.7114258.0136718c-.1358147.0019836-.203104.0775471-.2011719.2070313l.0214844 1.1196289c.0030107.134491.0796566.2006512.2026367.1987305.2907257-.0054855.1564617-.3170662.1826172-.6210938.3664856-.0369053.6320896.0729656.6274414-.1640625-.0047398-.2346115-.2739534-.1127167-.6333008-.137207l-.0058594-.3032227.5234375-.0097656c.0512696-.0009766.0898438-.0151367.1147461-.0419922z"/><path d="m10.5388107 22.0107422c-.0878916.1000614-.0320549.2933254-.0327148.8300781.0030918.141201.0780163.2059021.1918945.203125.1313896-.0020523.1907864-.0826931.1879883-.2104492l-.0126953-.675293c-.0051251-.2340584-.2464695-.2474651-.3344727-.1474609z"/><path d="m10.8820724 21.6152344c-.00212-.1272259-.0886497-.1804008-.2148438-.1777344-.1256523.0027313-.2081394.0604305-.2060547.1855469.0009766.0595703.0200195.1054688.0571289.1357422.0371094.0307617.0883789.0454102.1557617.0439453.1296865-.002739.2101013-.0598412.2080079-.1875z"/><path d="m11.4865646 22.8369141-.0078125-.4106445c-.0014648-.0610352.0146484-.1103516.0483398-.1469727.0580568-.0648861.1803637-.0800495.2338867-.0185547.0224609.0268555.0341797.0717773.0356445.1357422l.0083008.434082c.0019598.1254082.070919.1904278.1938477.1884766.1217537-.0029221.1885195-.0680351.1865234-.1958008-.0175447-.4313335.0739059-.9025745-.387207-.8945313-.1661081.0030022-.2655907.0677471-.3389893.1918945-.0065975-.1179886-.0634584-.1801968-.1844482-.1772461-.1200953.0019684-.1845732.0711422-.1816406.1933594l.0136719.7075195c.0019674.1259022.0710812.1904335.1914063.1884766.1279297-.0024414.1909179-.067871.1884765-.1958007z"/><path d="m12.3454514 22.4677734c.0106239.6108551.6440229.6801376.7871094.345459.0054827.1198578.065608.1824169.1884766.1804199.1246815-.0029926.1865015-.0722351.1845703-.1958008-.0336161-1.0286713.0246687-1.2076283-.0756836-1.3022461-.0341797-.0322266-.0810547-.0478516-.1411133-.0463867-.2888346.0046215-.1504736.3291759-.1777344.6259766-.1476727-.2636738-.7788315-.2334308-.765625.3925781zm.6875.2270508c-.1164541.0776367-.2996578.0304642-.3051758-.234375-.0069599-.3062439.2350407-.3215103.3354492-.2133789.0813303.0897789.091301.3660393-.0302734.4477539z"/><path d="m15.1672287 22.7358398c.0624323-.0016651.1021261-.021019.1494141-.0966797l.2886353-.5258789.0126343.6567383c.003027.118042.0697384.1776772.1806641.1757813.1202869-.0020046.1766376-.0730515.1738281-.1826172l-.0229492-1.1860352c-.002017-.1200142-.0696325-.1776791-.1806641-.1757813-.2158861.0042324-.1738319.148098-.6032104.8933105-.4841805-.7742901-.428545-.8734818-.6375122-.8693848-.1191959.0019379-.1865501.0647926-.1845703.1826172l.0229492 1.1860352c.0030899.1204872.0730896.1785393.1806641.1757813.1203384-.0020065.1766224-.0736656.1738281-.1826172l-.0125122-.6518555.3069458.5097656c.0436152.0704557.0897797.0916711.1518553.0908204z"/><path d="m16.6569748 23.2851563c.0302734-.0195313.0576172-.0585938.0825195-.1157227.4165192-1.0104122.5663624-1.1952019.4321289-1.3066406-.0576153-.0480137-.1692047-.0368156-.2211914.0019531-.0292969.0214844-.0541992.0615234-.0761719.1201172l-.1799927.4697266c-.2080326-.47015-.1887436-.6124287-.3761597-.6083984-.1621361.0029221-.2213993.1156158-.1616211.2441406l.3452759.75-.1040649.2373047c-.0817985.1931342.1154309.3003234.2592774.2075195z"/><path d="m23.0173264 8.4194336c0-.5957031-.482666-1.0783691-1.078186-1.0783691-.595459 0-1.078125.482666-1.078125 1.0783691 0 .5952148.482666 1.078125 1.078125 1.078125.5955199 0 1.078186-.4829102 1.078186-1.078125z"/></g></g></svg>