<?xml version="1.0" encoding="UTF-8"?>
<svg xmlns="http://www.w3.org/2000/svg" id="icons" width="512" height="512" viewBox="0 0 64 64"><g><path d="M48.999,64a.993.993,0,0,1-.35644-.06543,22.845,22.845,0,0,1-9.41211-6.544c-4.72363-5.65039-5.30274-12.83593-5.22852-16.61523a28.67823,28.67823,0,0,1,1.03223-7.041A.99948.99948,0,0,1,35.99805,33c.0205-.001.05371,0,.082,0a7.805,7.805,0,0,0,3.7041-.92969,7.91712,7.91712,0,0,0,3.3125-3.50293A1.00036,1.00036,0,0,1,43.99805,28h10a.99928.99928,0,0,1,.90136.56738A7.72817,7.72817,0,0,0,61.98828,33a.96013.96013,0,0,1,.97363.73438,28.76555,28.76555,0,0,1,1.03418,7.04,26.51841,26.51841,0,0,1-5.22851,16.61621,20.60342,20.60342,0,0,1-3.28711,3.1504,24.05344,24.05344,0,0,1-6.126,3.39355A.98774.98774,0,0,1,48.999,64ZM36.77734,34.97559a26.49121,26.49121,0,0,0-.77539,5.83886c-.06933,3.501.457,10.14258,4.7627,15.293A20.72368,20.72368,0,0,0,49,61.92676a21.9493,21.9493,0,0,0,5.26074-2.97071,18.63429,18.63429,0,0,0,2.97168-2.84765,24.35358,24.35358,0,0,0,4.76367-15.293,26.57322,26.57322,0,0,0-.77734-5.83984,9.74672,9.74672,0,0,1-3.958-1.14747A9.87533,9.87533,0,0,1,53.39258,30h-8.79a9.87878,9.87878,0,0,1-3.86524,3.82812A9.75855,9.75855,0,0,1,36.77734,34.97559Z"/><path d="M48.98535,60a.99294.99294,0,0,1-.3916-.08008A16.06586,16.06586,0,0,1,42,54.81641c-3.73926-4.98731-3.65723-10.67286-3.626-12.81348a24.26212,24.26212,0,0,1,.65137-5.2334.99783.99783,0,0,1,.85156-.76172,6.99112,6.99112,0,0,0,2.61133-.85742,7.07623,7.07623,0,0,0,2.6416-2.64648A.999.999,0,0,1,45.99805,32h6a.99988.99988,0,0,1,.87109.50879,6.9887,6.9887,0,0,0,2.61426,2.64258,6.85646,6.85646,0,0,0,2.6289.85547.99944.99944,0,0,1,.86133.77343,25.293,25.293,0,0,1,.62207,5.22461c.06739,5.127-1.18652,9.55762-3.626,12.81153a15.49213,15.49213,0,0,1-2.29785,2.45214A16.35732,16.35732,0,0,1,49.376,59.9209,1.00466,1.00466,0,0,1,48.98535,60ZM40.82812,37.87793a22.282,22.282,0,0,0-.4541,4.1543c-.02832,1.95312-.10351,7.14257,3.22657,11.585a14.01134,14.01134,0,0,0,5.38574,4.29A14.28045,14.28045,0,0,0,52.36816,55.752a13.55238,13.55238,0,0,0,2.002-2.13476c2.17187-2.89746,3.28711-6.9043,3.22558-11.58692a23.15505,23.15505,0,0,0-.43359-4.14843,8.81214,8.81214,0,0,1-2.66895-.99219A8.94841,8.94841,0,0,1,51.43652,34H46.55664a8.96078,8.96078,0,0,1-5.72852,3.87793Z"/><g><path d="M31.99805,28a.98107.98107,0,0,1-.38672-.07812l-21.001-8.80958Q8.11426,18.062,5.6123,17.01758q-2.50194-1.0459-5.002-2.0957a.99983.99983,0,0,1,.001-1.84376l30.99023-13a.99954.99954,0,0,1,.77246-.001l9.54,4q4.35059,1.81494,8.70215,3.65137l12.76758,5.34863a1.00023,1.00023,0,1,1-.77149,1.8457L49.84277,9.57324q-4.352-1.83252-8.69922-3.65039L31.98828,2.084,3.583,14q1.40039.5874,2.80078,1.17285,2.502,1.04591,5.002,2.0957l20.999,8.80957A.9999.9999,0,0,1,31.99805,28Z"/><path d="M31.99805,63a.999.999,0,0,1-1-1V27a.99923.99923,0,0,1,.61328-.92188l31-13A.99936.99936,0,0,1,63.99805,14l-.0127,28a1.00005,1.00005,0,0,1-1,1h0a1.00005,1.00005,0,0,1-1-1l.01172-26.49609L32.99805,27.665V60.4043l7.4248-3.59473a1.0002,1.0002,0,1,1,.8711,1.80078l-8.86036,4.29A1.00369,1.00369,0,0,1,31.99805,63Z"/><path d="M31.99707,63a.9862.9862,0,0,1-.41016-.08887l-31-14A.99954.99954,0,0,1-.00195,48V14a1,1,0,0,1,2,0V47.35449L32.40918,61.08887A.99986.99986,0,0,1,31.99707,63Z"/><path d="M20.99805,33a.99491.99491,0,0,1-.3711-.07129l-10-4A1.00045,1.00045,0,0,1,9.998,28V18.19336a.99964.99964,0,0,1,.60351-.918L41.13086,4.082a.99993.99993,0,0,1,.793,1.83594L11.998,18.85059v8.47265l8,3.19922V22.38672a1.00024,1.00024,0,0,1,.57422-.90527L49.7998,7.74121a1.00041,1.00041,0,1,1,.85157,1.81055L21.99805,23.02148V32a1,1,0,0,1-1,1Z"/></g><path d="M27.99707,55a.99191.99191,0,0,1-.41309-.08984l-11-5a.99992.99992,0,0,1,.82813-1.82032l11,5A1,1,0,0,1,27.99707,55Z"/><path d="M27.99707,50a.99191.99191,0,0,1-.41309-.08984l-11-5a.99992.99992,0,0,1,.82813-1.82032l11,5A1,1,0,0,1,27.99707,50Z"/><path d="M48.0127,50a.99517.99517,0,0,1-.70606-.292l-4.01465-4a.9999.9999,0,0,1,1.41211-1.416l3.30664,3.294L54.29,41.294a.99989.99989,0,1,1,1.416,1.4121l-6.98535,7A.99592.99592,0,0,1,48.0127,50Z"/></g></svg>
