<?xml version="1.0" encoding="utf-8"?>
<!-- Generator: Adobe Illustrator 23.1.0, SVG Export Plug-In . SVG Version: 6.00 Build 0)  -->
<svg version="1.1" id="Capa_1" xmlns="http://www.w3.org/2000/svg" xmlns:xlink="http://www.w3.org/1999/xlink" x="0px" y="0px"
	 viewBox="0 0 425.2 411.7" style="enable-background:new 0 0 425.2 411.7;" xml:space="preserve">
<style type="text/css">
	.st0{fill:#0E0E0E;}
	.st1{fill:#F0F0F0;}
	.st2{fill:#B3B3B3;}
	.st3{fill:#C7C6C6;}
	.st4{fill:#C6C6C5;}
	.st5{fill:#161717;}
	.st6{fill:#111212;}
	.st7{fill:#040301;}
	.st8{fill:#251A03;}
	.st9{fill:#262727;}
	.st10{fill:#101212;}
</style>
<path class="st0" d="M69.4,205.3c0-21.9,0-43.9,0-65.8c0-7.3,3.3-10.6,10.7-10.6c10.6-0.1,21.3,0,31.9,0c2.1,0,4,0.4,3-3
	c-6.9-23.4,6.6-41.4,21.4-51.1c29-19.2,72.6-15.4,95.5,8.7c11.3,11.8,16,25.8,11.1,42c-0.6,2.1-0.7,3.4,2.1,4c5,1.1,6.9,4.7,6.8,9.6
	c-0.1,7.1,0.2,14.3-0.1,21.4c-0.1,3.3,0.8,4.1,4.1,4.1c17-0.2,33.9,0.1,50.9-0.1c6-0.1,10.1,2.3,13.1,7.3
	c11.1,18.5,22.2,36.9,33.4,55.3c1.2,2,1.6,3.9,1.6,6.1c0,12.8,0,25.6,0,38.4c0,7.5-3.2,10.6-10.6,10.6c-7.8,0-15.6,0.1-23.4-0.1
	c-2.7-0.1-3.9,0.5-4.7,3.4c-3.7,13.5-14.9,22.4-27.6,22.3c-13.5-0.1-24.3-8.7-28.1-22.5c-0.7-2.6-1.6-3.3-4.2-3.2
	c-27.3,0.1-54.5,0.1-81.8,0c-2.7,0-3.9,0.5-4.5,3.6c-2.7,12.7-14.9,22.2-27.8,22.1c-12.8,0-24.9-9.2-27.6-21.7
	c-0.8-3.5-2.1-4.1-5.2-4c-10.1,0.2-20.3,0.1-30.4,0.1c-6.2,0-9.5-3.3-9.5-9.5C69.4,250.1,69.4,227.7,69.4,205.3z"/>
<path class="st1" d="M144.7,158.4c-15.9,0-31.8,0-47.7,0c-1.3,0-2.7-0.1-4,0.1c-1.6,0.3-2.7,1.4-2.5,3.2c0.1,1.4,1.1,2.4,2.6,2.6
	c1.3,0.2,2.7,0.1,4,0.1c21.4,0,42.9,0.1,64.3-0.1c3,0,4.8,0.7,6.1,3.6c2.4,5.2,5.3,10.3,8.1,15.4c2.3,4.1,4.4,4.1,6.7,0
	c2.9-5.2,5.8-10.4,8.4-15.8c1.3-2.6,2.8-3.9,5.8-4.5c16.7-3.7,31.1-11.3,40.9-25.9c1.7-2.6,3.9-2.2,6.1-1.8c2.4,0.4,2.3,2.4,2.3,4.3
	c0,35.7,0,71.5,0.1,107.2c0,3-1.1,3.5-3.7,3.5c-54.4-0.1-108.7-0.1-163.1,0c-3.2,0-3.7-1.1-3.7-4c0.1-35.2,0.1-70.5,0-105.8
	c0-4.5,1.6-5.7,5.8-5.7c11.3,0.2,22.6,0.1,33.9,0.1c1.9,0,3.9-0.3,5.3,1.8C126.5,146.2,135,152.7,144.7,158.4z"/>
<path class="st2" d="M179,176.7c-2.8-5.2-5.5-9.5-7.5-14.2c-1.5-3.3-3.8-4.6-7.2-5.1c-12.3-2.2-23.4-7.2-32.5-16
	c-17-16.5-16.9-38.9,0.1-55.4c24-23.3,70.8-23.2,94.5,0.4c17.1,16.9,16.3,40.7-1.8,56.4c-8.8,7.7-19.1,12.4-30.6,14.5
	c-3.9,0.7-6.2,2.3-7.9,5.7C184.2,167.5,181.7,171.7,179,176.7z"/>
<path class="st1" d="M252,223.2c0-16.3,0.1-32.6-0.1-48.9c0-3.2,0.8-4.1,4.1-4.1c17,0.2,33.9,0.2,50.9,0c3.6,0,5.9,1.3,7.7,4.3
	c10.9,18.2,21.8,36.4,32.8,54.5c1.1,1.8,1.4,3.6,1.4,5.6c0,12-0.2,23.9,0,35.9c0.1,4.1-1.3,5.7-5.4,5.5c-7.6-0.2-15.3-0.2-22.9,0
	c-2.6,0.1-3.7-0.8-4.4-3.3c-3.9-14-14.6-22.6-27.9-22.5c-13.2,0.1-24,8.6-27.5,22.3c-1.2,4.6-4.1,3.3-6.7,3.3c-3.6,0-2-2.9-2-4.4
	C252,255.5,252,239.4,252,223.2z"/>
<path class="st3" d="M160.3,256.4c7.9,0,15,0,22,0c19.7,0,39.5,0.1,59.2,0c3.5,0,4.7,1,4.4,4.5c-0.3,4.1-0.2,8.3,0,12.4
	c0.1,2.2-0.8,2.8-2.9,2.8c-23.2-0.1-46.5,0-69.7,0c-1.3,0-2.8,0.3-3.1-1.7C169.6,267.4,165.6,262,160.3,256.4z"/>
<path class="st3" d="M124.4,256.4c-5.4,5.5-9.3,10.8-10.1,17.7c-0.3,2.1-1.7,2.1-3.3,2.1c-10.5,0-20.9,0-31.4,0
	c-2.9,0-4.3-1.3-4.2-4.2c0-0.2,0-0.3,0-0.5c0.1-4.8-1.6-11,0.8-14c2.5-3.2,9-0.9,13.7-1C101,256.3,112.1,256.4,124.4,256.4z"/>
<path class="st4" d="M151.2,279.2c-0.1,4.7-4.4,8.9-9,8.8c-4.9,0-9.2-4.6-8.9-9.4c0.3-4.7,4.5-8.6,9.3-8.5
	C147.3,270.3,151.4,274.5,151.2,279.2z"/>
<path class="st3" d="M288.5,288c-4.7,0.1-8.8-4-8.9-8.8c-0.1-5,3.6-8.9,8.5-9.1c5.1-0.2,9.1,3.8,9.1,8.9
	C297.2,283.9,293.2,287.9,288.5,288z"/>
<path class="st5" d="M164.2,226.6c-14.4,0-28.9,0-43.3,0c-1.2,0-2.3,0-3.5,0c-1.8-0.1-3.2-0.8-3.2-3c0-2.1,1.5-2.8,3.3-3
	c1-0.1,2,0,3,0c29.4,0,58.8,0,88.1,0c0.8,0,1.7,0,2.5,0c2.2,0.1,4.1,0.8,4,3.4c-0.1,2.4-2.1,2.7-4,2.7c-6.1,0-12.3,0-18.4,0
	C183.1,226.6,173.7,226.6,164.2,226.6z"/>
<path class="st6" d="M144.8,195.4c-12.4,0-24.9,0-37.3,0c-2.2,0-5.2,0.6-5-3c0.1-3.3,2.9-3,5.2-3c24.7,0,49.4,0,74.2,0
	c2.5,0,5.2,0.2,5.1,3.2c0,3.3-3,2.8-5.3,2.8C169.4,195.4,157.1,195.4,144.8,195.4z"/>
<path class="st7" d="M179.4,85.5c7.7,0,14.3,4.3,16.4,10.6c2.1,6.5-0.2,12.8-6.5,17.9c-3,2.4-6.6,4.3-7.1,9
	c-0.3,2.7-3.3,0.9-5.1,1.3c-1.7,0.4-2.2-0.8-2.3-2.4c-0.2-4,0.4-7.6,4-10.1c1.7-1.3,3.4-2.7,4.8-4.4c2.3-2.8,3.6-5.9,1.8-9.6
	c-1.4-2.8-3.8-4.2-6.8-4.2c-4,0.1-7.3,2.1-8.1,6.1c-1,5-3.5,5.2-7.6,4c-2.2-0.7-2.4-1.4-2-3.4C162.7,91.6,170.2,85.6,179.4,85.5z"/>
<path class="st8" d="M184,134.8c1,4-0.8,4.8-4.6,4.9c-4.3,0.1-4.7-1.7-4.7-5.2c-0.1-3.8,0.9-5.1,4.9-5.1
	C183.9,129.4,184.7,131.1,184,134.8z"/>
<path class="st9" d="M274.4,234.8c-2.1,0-4.3,0.1-6.4,0c-1.8-0.1-3.2-1-3.1-3.1c0-1.8,1.2-2.8,2.8-2.9c4.8-0.1,9.6-0.1,14.4,0.1
	c1.7,0,2.8,1.3,2.7,3c0,1.6-1.2,2.8-2.9,2.9C279.4,234.8,276.9,234.7,274.4,234.8C274.4,234.7,274.4,234.7,274.4,234.8z"/>
<path class="st10" d="M328.5,214.3c-6.3-10.5-12.8-20.9-19.1-31.4c-1.9-3.2-4.5-4.4-8.2-4.4c-11.6,0.1-23.2,0.1-34.8,0
	c-4-0.1-5.7,1.2-5.6,5.4c0.2,10.1,0.1,20.2,0.1,30.4c0,6.4,0.1,6.5,6.3,6.5c9.3,0,18.6,0,27.9,0c10,0,19.9,0.1,29.9,0
	C330.1,220.7,331.2,218.7,328.5,214.3z M318,214.8c-8.1-0.1-16.2,0-24.4,0c-7.8,0-15.6-0.1-23.4,0.1c-2.6,0.1-3.4-0.7-3.4-3.3
	c0.2-7.8,0.2-15.6,0-23.4c-0.1-2.9,1-3.6,3.7-3.5c9.9,0.1,19.9,0.1,29.8,0c2.3,0,3.6,0.8,4.7,2.7c4.8,8.1,9.7,16.2,14.7,24.1
	C321.4,213.9,321.1,214.8,318,214.8z"/>
</svg>
