<?xml version="1.0" encoding="utf-8"?>
<!-- Generator: Adobe Illustrator 23.1.0, SVG Export Plug-In . SVG Version: 6.00 Build 0)  -->
<svg version="1.1" id="Capa_1" xmlns="http://www.w3.org/2000/svg" xmlns:xlink="http://www.w3.org/1999/xlink" x="0px" y="0px"
	 viewBox="0 0 425.2 411.7" style="enable-background:new 0 0 425.2 411.7;" xml:space="preserve">
<style type="text/css">
	.st0{fill:#030303;}
	.st1{fill:#DFDFDF;}
	.st2{fill:#757575;}
	.st3{fill:#A1AEBE;}
	.st4{fill:#A1ADBE;}
	.st5{fill:#A0ADBE;}
	.st6{fill:#C9C9C9;}
	.st7{fill:#FCFCFB;}
	.st8{fill:#828282;}
	.st9{fill:#F9F9F8;}
</style>
<path class="st0" d="M316,73.5c-10.8-0.1-21.6,0-32.4,0c-1.7,0-3-0.1-4.1-1.8c-4.1-6-9.8-8.9-17.1-8.7c-5.8,0.1-11.7,0.1-17.5,0
	c-4.1-0.1-5.8-1.9-5.8-6c0-2.4,0-4.7,0-7.1c-0.2-16.2-12.5-30.4-28.5-32.8c-16.7-2.5-32.6,7.2-37.7,22.8c-1.7,5.3-1.5,10.8-1.5,16.2
	c0,5.1-1.8,6.9-7,6.9c-6,0-11.9,0.1-17.9,0c-6.8-0.1-12.1,2.7-15.9,8.1c-1.4,1.9-2.8,2.4-4.9,2.4c-10.7-0.1-21.4,0-32.1,0
	c-2.2,0-4.5,0-6.6,0.6c-8.4,2.4-13.4,9.2-13.4,18.7c0,45.8,0,91.7,0,137.5c0,45.5,0.2,90.9-0.2,136.4c-0.1,10.5,7,20.4,20.4,20.4
	c73.9-0.2,147.9-0.1,221.8-0.1c2.2,0,4.5,0,6.6-0.6c8.7-2.5,13.5-9.3,13.5-19.4c0-91.3,0-182.6,0-274C335.6,81.1,328,73.6,316,73.5z
	 M300.9,355.1c-64-0.1-128-0.1-191.9,0c-3,0-3.6-0.9-3.6-3.7c0.1-81,0.1-162,0-243c0-3,0.8-3.7,3.7-3.6c5.1,0.2,10.2,0.2,15.3,0
	c2.2-0.1,3,0.4,2.9,2.8c-0.1,5.7,0.7,6.3,6.4,6.3c47.3,0,94.7,0,142,0c5,0,6.5-1.2,6.4-6.3c-0.1-3.1,1-3.6,3.8-3.5
	c4.8,0.2,9.7,0.3,14.5,0c3.3-0.2,3.7,1,3.7,3.9c-0.1,40.5-0.1,81-0.1,121.5c0,0,0,0,0,0c0,40.7,0,81.5,0.1,122.2
	C304.2,354.4,303.6,355.1,300.9,355.1z"/>
<path class="st1" d="M326.9,230c0,45,0,90,0,134.9c0,10-3.3,13.4-13.4,13.4c-71.8,0-143.6,0-215.5,0c-1.4,0-2.7,0-4.1,0
	c-7.2-0.1-11.3-4.1-11.3-11.4c0-25.8,0-51.7,0-77.5c0-64.7,0-129.5,0-194.2c0-2.4-0.1-4.7,0.9-6.9c1.9-4.2,5.3-6.1,9.8-6.1
	c10.4,0,20.9,0,31.3-0.1c1.9,0,2.6,0.5,2.5,2.5c-0.2,3-0.2,6,0,8.9c0.1,2-0.6,2.5-2.5,2.5c-7.3-0.1-14.7,0-22,0
	c-5.5,0-6.8,1.4-6.8,6.7c0,77.4,0,154.8,0,232.2c0,7.8,0,15.7,0,23.5c0,5.1,1.5,6.7,6.6,6.7c68.2,0,136.4,0,204.6,0
	c4.8,0,6.4-1.6,6.4-6.5c0-85.6,0-171.2,0-256.8c0-4.8-1.6-6.4-6.5-6.4c-7.3,0-14.7-0.1-22,0.1c-2.3,0-3-0.6-2.9-2.9
	c0.3-3.4-1.1-8,0.6-10.1c1.8-2.2,6.5-0.6,9.9-0.7c7.6-0.1,15.2,0,22.7,0c7.7,0,11.3,3.6,11.3,11.4c0,26.6,0,53.2,0,79.8
	C326.9,192,326.9,211,326.9,230z"/>
<path class="st2" d="M204.8,105.8c-21.7,0-43.5,0-65.2,0.1c-2.6,0-3.7-0.4-3.6-3.4c0.2-6.4,0.1-12.9-0.1-19.4
	c-0.1-6.2,5.3-11.7,11.6-11.3c5.8,0.4,11.7,0.2,17.5,0c9.3-0.2,14.9-6,15-15.3c0.1-4.2-0.4-8.4,0.7-12.6c3.4-12.6,14.6-19.8,28.2-18
	c11.5,1.5,21,12.5,21.1,24.2c0,2.4,0,4.7,0,7.1c0.1,8.2,5.6,14.1,13.8,14.5c5.8,0.3,11.7,0.1,17.5,0.1c8.4,0,11.9,3.5,12,12
	c0,6-0.2,11.9,0.1,17.9c0.1,3.1-0.5,4.2-3.9,4.1C248,105.7,226.4,105.8,204.8,105.8z"/>
<path class="st0" d="M130.2,325.5c16-12,31.3-23.4,46.5-34.9c2-1.5,4-3.3,6.7-1.8c2.7,1.4,2.5,4.1,2.5,6.6c0,3.3,0,6.7,0,10
	c1.4,0.7,2-0.4,2.7-0.9c10.7-7.4,21.4-14.9,32-22.4c1.9-1.3,3.8-2.7,6.1-1.5c2.5,1.2,2.7,3.6,2.6,6.1c-0.1,3.7,0,7.3,0,11.6
	c10.9-8.2,21.3-16.1,32.4-24.4c-6.5-1.1-12.6-2.2-18.7-3.2c-3.8-0.7-5.8-2.5-5.4-5.3c0.4-2.9,2.7-4.2,6.6-3.6
	c9.4,1.5,18.8,3.2,28.2,4.7c3.6,0.6,5.2,2.3,4.8,6c-0.9,8.1-3,16.1-4.2,24.1c-0.3,1.8-0.7,3.6-1,5.5c-0.4,3.1-2.4,4.2-5.2,3.9
	c-2.9-0.3-4.2-2.5-3.6-5.8c0.9-5.2,1.9-10.5,2.8-15.7c0.1-0.6,0.1-1.2,0.1-1.8c-1.3-0.4-1.9,0.7-2.6,1.2
	c-11.6,8.7-23.3,17.4-34.9,26.1c-1.8,1.3-3.6,2.4-5.8,1.4c-2.3-1-2.5-3.1-2.5-5.3c0.1-4.1,0-8.2,0-12.3c-1.5-0.2-2.3,0.9-3.3,1.6
	c-10.5,7.3-21,14.6-31.4,22c-2.1,1.5-4.2,3-6.8,1.5c-2.4-1.4-2.3-4-2.2-6.3c0.1-3.5,0.3-6.9,0.5-11.5c-12.8,9.7-25,18.9-37.3,28.2
	c1.1,0.9,2.2,0.5,3.3,0.5c44.5,0,89,0,133.5,0c1.6,0,3.2,0,4.8,0c3.1,0.2,5,1.8,4.8,4.9c-0.1,3.1-2.1,4.6-5.2,4.6
	c-9.3,0-18.6,0-28,0c-41.1,0-82.3,0-123.4,0c-1.1,0-2.2,0-3.4-0.1c-4.8-0.2-5.8-1.1-5.8-6.1c0-31.2,0-62.4,0-93.6
	c0-2.9-0.1-5.7,0-8.6c0.1-3.8,1.8-5.7,4.9-5.7c3.1,0,4.6,1.9,4.6,5.9c0,30.2,0,60.4,0,90.6C130.2,322.6,130.2,323.7,130.2,325.5z"/>
<path class="st0" d="M115.1,169.9c0.1-24.2,19.9-44,44.1-43.9c24.2,0.1,44.1,20.2,44,44.5c-0.1,24.3-20.1,44.2-44.5,44
	C135.6,214.3,115.2,195.1,115.1,169.9z"/>
<path class="st3" d="M254,165.4c11.4,0,22.9,0,34.3,0c4.3,0,6.6,1.5,6.7,4.2c0.1,2.6-3.4,5.3-7,5.3c-12.4,0.1-24.8,0.1-37.3,0.1
	c-10.3,0-20.6,0-30.9,0c-1.5,0-3-0.1-4.3-0.9c-2-1.2-3.1-3-2.4-5.3c0.6-2.3,2.5-3.4,4.8-3.4c5-0.1,9.9,0,14.9,0
	C239.8,165.4,246.9,165.4,254,165.4C254,165.4,254,165.4,254,165.4z"/>
<path class="st4" d="M253.4,199.7c-11.1,0-22.1,0-33.2,0c-1,0-2,0.1-3-0.1c-2.4-0.4-4.2-1.5-4.2-4.3c0-2.6,1.3-4.2,3.8-4.7
	c6-1.2,12.1-0.4,18.2-0.5c16.6-0.1,33.3-0.1,49.9,0c2,0,3.9,0.4,5.9,0.5c2.1,0.1,3.6,1.3,4.1,3.2c0.5,2-0.7,3.6-2.3,4.8
	c-1.5,1.1-3.2,1.1-5,1.1C276.2,199.7,264.8,199.8,253.4,199.7C253.4,199.7,253.4,199.7,253.4,199.7z"/>
<path class="st5" d="M253.9,140c11.8,0,23.6,0,35.4,0c2.2,0,4.1,0.5,5.3,2.7c0.9,1.7,0.3,3.1-0.5,4.5c-1.1,1.9-3,1.9-4.9,1.9
	c-11.1,0-22.2,0-33.3,0c-10.5,0-21,0-31.4,0c-1.6,0-3.2,0.2-4.8,0.4c-3.4,0.4-6.3-1.5-6.5-4.5c-0.2-3.1,1.7-4.9,5.5-4.9
	C230.3,140,242.1,140.1,253.9,140C253.9,140.1,253.9,140,253.9,140z"/>
<path class="st0" d="M204.8,64.8c-9.1,0-15.7-6.6-15.7-15.6c0-9.2,6.8-16.3,15.7-16.2c8.6,0,15.6,6.9,15.6,15.6
	C220.5,57.8,213.8,64.8,204.8,64.8z"/>
<path class="st6" d="M131.3,191.4c-12.9-14.9-9.1-45.2,16.4-54.3c7.2-2.6,7.2-2.5,7.2,5.2c0,8.1,0,16.1,0,24.2c0,1.5-0.1,2.8-1.4,4
	C146.1,177.5,138.7,184.5,131.3,191.4z"/>
<path class="st7" d="M163.8,135c22,3.2,35.4,25.5,28.8,46c-7.4-3.6-14.7-7.5-22.3-10.5c-5.4-2.1-7-5.1-6.6-10.7
	C164.2,151.6,163.8,143.4,163.8,135z"/>
<path class="st8" d="M137.7,197.7c7.1-7,14.1-13.9,21-20.8c1.1-1.1,2.1-1.3,3.6-0.5c8.2,4,16.5,8,24.8,11.9c2.1,1,1.7,1.8,0.7,3.2
	c-5.5,7.5-13.1,11.7-22.1,13.2C155.6,206.2,146.1,204.7,137.7,197.7z"/>
<path class="st9" d="M204.6,41.8c3.7-0.1,6.9,3,7,6.7c0.1,3.9-2.9,7.4-6.5,7.6c-4,0.2-6.9-2.8-7-7.3
	C197.9,44.9,200.7,41.9,204.6,41.8z"/>
</svg>
