<svg id="Layer_1" enable-background="new 0 0 74 74" height="512" viewBox="0 0 74 74" width="512" xmlns="http://www.w3.org/2000/svg"><g><path d="m62.75 28.6c.37-1.05.56-2.17.56-3.29 0-5.56-4.51-10.08-10.05-10.08-1.06 0-2.08.16-3.1.5-1.96-6.64-8.06-11.23-15.03-11.23-8.67 0-15.73 7.06-15.73 15.74 0 1.06.11 2.11.32 3.14-.23-.01-.48-.02-.76-.02-4.69 0-8.71 3.19-9.77 7.75-.06.27.11.54.37.6.27.06.54-.11.6-.37.95-4.11 4.57-6.97 8.79-6.97.56 0 .98.03 1.32.09.17.03.34-.03.46-.15.12-.13.16-.3.12-.47-.3-1.17-.45-2.38-.45-3.6 0-8.13 6.61-14.74 14.73-14.74 6.69 0 12.54 4.53 14.21 11 .04.14.13.25.25.32.13.07.28.07.41.02 1.08-.42 2.15-.62 3.26-.62 4.99 0 9.05 4.07 9.05 9.08 0 1.22-.25 2.45-.74 3.55-.07.15-.05.33.04.47s.25.23.42.23c3.52.03 6.38 2.91 6.38 6.43 0 3.53-2.87 6.4-6.4 6.4h-3.07c-.28 0-.5.22-.5.5s.22.5.5.5h3.07c4.08 0 7.4-3.32 7.4-7.4 0-3.81-2.93-6.99-6.66-7.38z"/><path d="m42.13 42.87v-2.07c0-.28-.22-.5-.5-.5s-.5.22-.5.5v1.6h-3.34c-.28 0-.5.22-.5.5s.22.5.5.5h3.34l-.02 8.36-2.9 2.9c-.38-.25-.84-.4-1.33-.4-1.34 0-2.43 1.1-2.43 2.44s1.09 2.43 2.43 2.43 2.43-1.09 2.43-2.43c0-.49-.15-.95-.4-1.33l2.9-2.9c.21-.21.32-.48.32-.77v-8.77c0-.01 0-.01 0-.02s0-.03 0-.04zm-5.26 15.25c-.79 0-1.43-.64-1.43-1.43s.64-1.44 1.43-1.44c.39 0 .75.16 1.01.42.26.26.42.62.42 1.02 0 .79-.64 1.43-1.43 1.43z"/><path d="m48.74 20.61c.41-.6.33-1.41-.18-1.92l-1.2-1.2c-.52-.52-1.34-.6-1.94-.18l-.83.58c-.17.11-.37.13-.53.03-.65-.35-1.34-.64-2.03-.84-.17-.05-.3-.2-.33-.4l-.18-1c-.14-.72-.76-1.25-1.49-1.25h-1.7c-.76 0-1.36.55-1.51 1.37l-.16.88c-.04.19-.17.35-.34.39-.69.2-1.37.49-2.04.85-.15.09-.35.07-.51-.04l-.84-.59c-.59-.42-1.41-.35-1.94.17l-1.19 1.2c-.52.51-.6 1.34-.18 1.93l.59.85c.11.16.12.36.03.52-.35.63-.63 1.31-.85 2.03-.05.17-.2.3-.38.34l-1.01.18c-.72.13-1.24.76-1.24 1.48v1.7c0 .74.52 1.37 1.24 1.49l1 .22c.18.03.34.16.39.33.07.27.16.53.27.8.1.26.39.38.65.28s.38-.39.28-.65c-.09-.23-.17-.47-.24-.71-.16-.54-.63-.95-1.18-1.04l-1.02-.19c-.24-.04-.41-.25-.41-.51v-1.7c0-.25.17-.45.42-.5l1.02-.18c.57-.11 1.02-.51 1.17-1.05.19-.64.45-1.26.75-1.81.28-.49.25-1.12-.08-1.58l-.59-.85c-.14-.2-.11-.48.06-.65l1.19-1.2c.18-.17.46-.2.66-.06l.85.59c.48.32 1.1.36 1.57.09.59-.32 1.21-.58 1.83-.76.54-.15.94-.6 1.05-1.17l.16-.89c.06-.34.26-.55.53-.55h1.7c.24 0 .46.19.51.43l.18.99c.09.57.5 1.04 1.04 1.19.62.18 1.24.44 1.82.75.48.28 1.1.24 1.59-.08l.83-.59c.2-.14.48-.12.66.06l1.2 1.2c.17.17.2.45.06.65l-.58.84c-.33.45-.38 1.07-.1 1.59.3.53.55 1.14.76 1.82.16.53.62.94 1.18 1.05l1.01.18c.25.05.42.25.42.5v1.7c0 .25-.17.47-.42.51l-1.01.19c-.57.09-1.03.5-1.18 1.04-.19.64-.45 1.25-.75 1.82-.28.48-.25 1.1.08 1.59l.59.84c.14.2.12.49-.05.66l-1.2 1.2c-.18.18-.45.2-.66.05l-.85-.59c-.48-.33-1.1-.36-1.57-.09-.61.33-1.21.58-1.84.75-.54.17-.95.64-1.04 1.19l-.18 1c-.05.25-.26.43-.51.43h-1.7c-.25 0-.46-.18-.51-.43l-.18-1c-.1-.56-.5-1.01-1.04-1.18-.36-.1-.71-.24-1.06-.38-.25-.11-.55.01-.65.27s.01.55.27.65c.44.18.81.32 1.16.42.18.05.31.21.34.4l.18 1c.13.72.76 1.25 1.49 1.25h1.7c.73 0 1.36-.53 1.49-1.25l.18-1.01c.03-.19.16-.35.33-.4.69-.19 1.35-.46 2.04-.84.15-.09.35-.07.51.04l.83.59c.6.43 1.42.37 1.95-.16l1.2-1.21c.51-.53.58-1.34.16-1.94l-.58-.83c-.11-.17-.13-.37-.03-.53.35-.64.63-1.32.84-2.03.05-.17.2-.3.39-.33l1.01-.19c.72-.12 1.25-.75 1.25-1.49v-1.7c0-.72-.52-1.35-1.24-1.48l-1-.18c-.19-.04-.35-.18-.4-.35-.22-.75-.51-1.43-.84-2.01-.09-.17-.08-.37.04-.53z"/><path d="m46.16 26.88c0-3.86-3.14-7-7-7-3.85 0-6.98 3.14-6.98 7 0 3.85 3.13 6.99 6.98 6.99 3.86 0 7-3.14 7-6.99zm-12.98 0c0-3.31 2.68-6 5.98-6 3.31 0 6 2.69 6 6 0 3.3-2.69 5.99-6 5.99-3.3 0-5.98-2.69-5.98-5.99z"/><path d="m36.39 44.84c0-8.77-7.13-15.9-15.9-15.9s-15.9 7.13-15.9 15.9c0 5.48 2.82 10.55 7.42 13.45-.6.45-.99 1.15-.99 1.95 0 .79.39 1.49.98 1.94-.59.45-.98 1.15-.98 1.94 0 1.35 1.09 2.44 2.44 2.44h1.3c.59 1.75 2.2 2.94 4.08 2.94h3.3c1.88 0 3.49-1.19 4.08-2.94h1.29c1.35 0 2.44-1.09 2.44-2.44 0-.79-.39-1.49-.98-1.94.59-.45.98-1.15.98-1.94 0-.8-.39-1.5-.99-1.95 4.61-2.89 7.43-7.96 7.43-13.45zm-14.25 23.66h-3.3c-1.33 0-2.49-.77-3.02-1.94h9.33c-.52 1.17-1.68 1.94-3.01 1.94zm6.81-4.38c0 .79-.65 1.44-1.44 1.44h-14.05c-.79 0-1.44-.65-1.44-1.44s.65-1.44 1.44-1.44h14.05c.8 0 1.44.65 1.44 1.44zm-15.49-2.44c-.79 0-1.44-.65-1.44-1.44s.65-1.44 1.44-1.44h14.05c.79 0 1.44.65 1.44 1.44s-.65 1.44-1.44 1.44zm3.56-13.8h-2.61c-1.44 0-2.61-1.17-2.61-2.61s1.17-2.61 2.61-2.61 2.61 1.17 2.61 2.61zm6.01 9.92h-5.08v-8.99h5.08zm4.75.03c-.09-.01-.18-.03-.27-.03h-3.56v-8.99h2.61c1.95 0 3.53-1.59 3.53-3.54s-1.59-3.53-3.53-3.53c-1.95 0-3.53 1.59-3.53 3.53v2.61h-5.08v-2.61c0-1.95-1.59-3.53-3.53-3.53s-3.53 1.59-3.53 3.54 1.59 3.53 3.53 3.53h2.61v8.99h-3.56c-.09 0-.18.02-.28.03-4.69-2.64-7.6-7.6-7.6-12.99 0-8.22 6.68-14.9 14.9-14.9s14.9 6.68 14.9 14.9c0 5.4-2.91 10.36-7.61 12.99zm-3.83-9.95v-2.61c0-1.44 1.17-2.61 2.61-2.61s2.61 1.17 2.61 2.61-1.17 2.61-2.61 2.61z"/><path d="m62.15 49.81c-.49 0-.94.15-1.32.4l-2.93-2.96v-12.42c0-.28-.22-.5-.5-.5s-.5.22-.5.5v7.56h-2.51c-.28 0-.5.22-.5.5s.22.5.5.5h2.51v3.85c0 .3.11.57.32.77l2.9 2.9c-.25.38-.4.84-.4 1.33 0 1.34 1.09 2.43 2.43 2.43s2.43-1.09 2.43-2.43c0-1.33-1.09-2.43-2.43-2.43zm0 3.87c-.79 0-1.43-.64-1.43-1.43 0-.4.16-.76.42-1.02.26-.26.62-.42 1.01-.42.79 0 1.43.65 1.43 1.44s-.64 1.43-1.43 1.43z"/><path d="m57.16 54.38c-.49 0-.94.15-1.32.4l-2.93-2.96v-16.99c0-.28-.22-.5-.5-.5s-.5.22-.5.5v7.56h-2.93c-.28 0-.5.22-.5.5s.22.5.5.5h2.93v8.43c0 .3.11.56.32.77l2.9 2.9c-.25.38-.4.84-.4 1.33 0 1.34 1.09 2.43 2.43 2.43s2.43-1.09 2.43-2.43-1.09-2.44-2.43-2.44zm0 3.88c-.79 0-1.43-.64-1.43-1.43 0-.4.16-.76.42-1.02s0 0 0 0c.26-.26.62-.42 1.01-.42.79 0 1.43.65 1.43 1.44 0 .78-.64 1.43-1.43 1.43z"/><path d="m47.48 55.81v-16.82c0-.28-.22-.5-.5-.5s-.5.22-.5.5v3.41h-3.18c-.28 0-.5.22-.5.5s.22.5.5.5h3.18v12.42c-1.1.23-1.93 1.21-1.93 2.39 0 1.34 1.09 2.43 2.43 2.43s2.43-1.09 2.43-2.43c0-1.19-.83-2.17-1.93-2.4zm-.5 3.82c-.79 0-1.43-.64-1.43-1.43s.64-1.44 1.43-1.44 1.43.65 1.43 1.44-.64 1.43-1.43 1.43z"/><path d="m35.13 7.5c-7.02 0-12.73 5.72-12.73 12.74 0 1.05.13 2.09.39 3.09.06.23.26.38.48.38.04 0 .08 0 .13-.02.27-.07.43-.34.36-.61-.24-.92-.36-1.88-.36-2.84 0-6.47 5.26-11.74 11.73-11.74.28 0 .5-.22.5-.5s-.22-.5-.5-.5z"/><path d="m53.26 19.23c3.34 0 6.05 2.73 6.05 6.08 0 .28.22.5.5.5s.5-.22.5-.5c0-3.9-3.16-7.08-7.05-7.08-.28 0-.5.22-.5.5s.22.5.5.5z"/><path d="m66.41 35.99c0-.28-.22-.5-.5-.5s-.5.22-.5.5c0 1.87-1.53 3.4-3.4 3.4-.28 0-.5.22-.5.5s.22.5.5.5c2.43 0 4.4-1.97 4.4-4.4z"/></g></svg>