<svg enable-background="new 0 0 512 512" height="512" viewBox="0 0 512 512" width="512" xmlns="http://www.w3.org/2000/svg" xmlns:xlink="http://www.w3.org/1999/xlink"><linearGradient id="SVGID_1_" gradientUnits="userSpaceOnUse" x1="49.15" x2="462.851" y1="128.447" y2="542.148"><stop offset="0" stop-color="rgb(0,0,0)"/><stop offset="1" stop-color="rgb(0,0,0)"/></linearGradient><g id="Backup" display="none"><g display="inline"><g><path d="m491.341 162.595-235.341-158.595-235.341 158.595 13.064 19.384 222.277-149.791 222.277 149.791z" fill="rgb(0,0,0)"/><path d="m76.348 153.255v331.807h29.644v-306.306h300.016v306.306h29.644v-331.807l-179.652-121.067z" fill="rgb(0,0,0)"/><path d="m105.992 178.756h300.016v24.479h-300.016z" fill="rgb(0,0,0)"/><path d="m105.992 203.234h300.016v24.479h-300.016z" fill="rgb(0,0,0)"/><path d="m105.992 227.714h300.016v24.479h-300.016z" fill="rgb(0,0,0)"/><path d="m20.659 485.062h470.682v22.938h-470.682z" fill="rgb(0,0,0)"/><path d="m105.992 415.455h69.605v69.606h-69.605z" fill="rgb(0,0,0)"/><path d="m149.85 436.034-9.054-5.312-9.054 5.312v-20.579h18.108z" fill="rgb(0,0,0)"/><path d="m175.598 415.455h69.606v69.606h-69.606z" fill="rgb(0,0,0)"/><path d="m219.455 436.034-9.053-5.312-9.054 5.312v-20.579h18.107z" fill="rgb(0,0,0)"/><path d="m245.204 415.455h69.606v69.606h-69.606z" fill="rgb(0,0,0)"/><path d="m289.061 436.034-9.053-5.312-9.054 5.312v-20.579h18.107z" fill="rgb(0,0,0)"/><path d="m105.992 345.849h69.605v69.606h-69.605z" fill="rgb(0,0,0)"/><path d="m149.85 366.429-9.054-5.314-9.054 5.314v-20.58h18.108z" fill="rgb(0,0,0)"/><path d="m175.598 345.849h69.606v69.606h-69.606z" fill="rgb(0,0,0)"/><path d="m219.455 366.429-9.053-5.314-9.054 5.314v-20.58h18.107z" fill="rgb(0,0,0)"/><path d="m105.992 276.243h69.605v69.605h-69.605z" fill="rgb(0,0,0)"/><path d="m149.85 296.823-9.054-5.314-9.054 5.314v-20.58h18.108z" fill="rgb(0,0,0)"/><g style="fill:none;stroke:rgb(0,0,0);stroke-width:8;stroke-linecap:round;stroke-linejoin:round;stroke-miterlimit:10"><path d="m20.659 485.062h470.682v22.938h-470.682z"/><path d="m149.85 416.13v19.904l-9.054-5.312-9.054 5.312v-19.904"/><path d="m219.455 416.13v19.904l-9.053-5.312-9.054 5.312v-19.904"/><path d="m289.061 416.13v19.904l-9.053-5.312-9.054 5.312v-19.904"/><path d="m149.85 346.524v19.905l-9.054-5.314-9.054 5.314v-19.905"/><path d="m219.455 346.524v19.905l-9.053-5.314-9.054 5.314v-19.905"/><path d="m149.85 276.918v19.905l-9.054-5.314-9.054 5.314v-19.905"/><path d="m491.341 162.595-235.341-158.595-235.341 158.595 13.064 19.384 222.277-149.791 222.277 149.791z"/><path d="m435.652 153.255v331.807"/><path d="m76.348 153.255v331.807"/><path d="m406.008 485.062v-306.306h-300.016v306.306"/><path d="m105.992 203.234h300.016"/></g><g><path d="m105.992 227.714h300.016" style="fill:none;stroke:rgb(0,0,0);stroke-width:8;stroke-linecap:round;stroke-linejoin:round;stroke-miterlimit:10"/></g><g><path d="m105.992 252.192h300.016" style="fill:none;stroke:rgb(0,0,0);stroke-width:8;stroke-linecap:round;stroke-linejoin:round;stroke-miterlimit:10"/></g><path d="m105.992 416.13 208.819-.675v69.607" style="fill:none;stroke:rgb(0,0,0);stroke-width:8;stroke-linecap:round;stroke-linejoin:round;stroke-miterlimit:10"/><path d="m105.992 346.524 139.212-.675v139.213" style="fill:none;stroke:rgb(0,0,0);stroke-width:8;stroke-linecap:round;stroke-linejoin:round;stroke-miterlimit:10"/><path d="m105.992 276.243h69.606v208.819" style="fill:none;stroke:rgb(0,0,0);stroke-width:8;stroke-linecap:round;stroke-linejoin:round;stroke-miterlimit:10"/></g><path d="m326.935 395.565 18.272-11.643c-.983-7.24-3.243-14.07-6.564-20.252l-21.643 1.323c-4.16-4.816-9.398-8.672-15.352-11.172l-5.421-20.955c-3.457-.617-7.011-.958-10.646-.958s-7.189.341-10.646.958l-5.42 20.955c-5.953 2.5-11.192 6.355-15.352 11.172l-21.643-1.322c-3.321 6.182-5.581 13.012-6.564 20.252l18.272 11.643c.544 6.572 2.606 12.713 5.854 18.059l-7.93 20.133c4.924 5.131 10.737 9.402 17.208 12.538l16.73-13.789c3.049.714 6.223 1.103 9.49 1.103s6.441-.389 9.49-1.103l16.73 13.789c6.471-3.138 12.283-7.407 17.206-12.54l-7.928-20.131c3.249-5.347 5.312-11.487 5.857-18.06zm-41.353 15.407c-10.422 0-18.871-8.449-18.871-18.87 0-10.422 8.449-18.87 18.871-18.87 10.423 0 18.87 8.448 18.87 18.87 0 10.42-8.447 18.87-18.87 18.87z" style="fill:rgb(0,0,0);stroke:rgb(0,0,0);stroke-width:8;stroke-linecap:round;stroke-linejoin:round;stroke-miterlimit:10"/><g><path d="m487.615 263.981-19.828-8.514c-1.941-7.474-4.904-14.539-8.73-21.038l8.008-20.05c-5.051-6.46-10.879-12.29-17.34-17.34l-20.049 8.007c-6.499-3.821-13.562-6.786-21.035-8.729l-8.515-19.828c-4.023-.488-8.11-.748-12.261-.748-4.152 0-8.244.26-12.264.748l-8.514 19.828c-7.475 1.943-14.54 4.908-21.036 8.729l-20.053-8.007c-6.462 5.05-12.288 10.88-17.34 17.34l8.007 20.05c-3.82 6.499-6.785 13.564-8.726 21.038l-19.828 8.514c-.491 4.018-.748 8.111-.748 12.265 0 4.146.257 8.234.748 12.258l19.828 8.513c1.94 7.475 4.905 14.54 8.726 21.038l-8.007 20.052c5.052 6.46 10.878 12.289 17.34 17.34l20.053-8.008c6.496 3.821 13.562 6.785 21.036 8.722l8.514 19.836c4.02.487 8.111.748 12.264.748 4.15 0 8.237-.261 12.261-.748l8.515-19.836c7.474-1.937 14.536-4.9 21.035-8.722l20.049 8.008c6.461-5.051 12.289-10.88 17.34-17.34l-8.008-20.052c3.826-6.498 6.789-13.563 8.73-21.038l19.828-8.513c.488-4.023.748-8.111.748-12.258 0-4.153-.259-8.247-.748-12.265zm-99.751 71.923c-32.951 0-59.663-26.712-59.663-59.661 0-32.951 26.712-59.663 59.663-59.663 32.95 0 59.663 26.712 59.663 59.663 0 32.949-26.713 59.661-59.663 59.661z" fill="rgb(0,0,0)"/><path d="m487.615 263.981-19.828-8.514c-1.941-7.474-4.904-14.539-8.73-21.038l8.008-20.05c-5.051-6.46-10.879-12.29-17.34-17.34l-20.049 8.007c-6.499-3.821-13.562-6.786-21.035-8.729l-8.515-19.828c-4.023-.488-8.11-.748-12.261-.748-4.152 0-8.244.26-12.264.748l-8.514 19.828c-7.475 1.943-14.54 4.908-21.036 8.729l-20.053-8.007c-6.462 5.05-12.288 10.88-17.34 17.34l8.007 20.05c-3.82 6.499-6.785 13.564-8.726 21.038l-19.828 8.514c-.491 4.018-.748 8.111-.748 12.265 0 4.146.257 8.234.748 12.258l19.828 8.513c1.94 7.475 4.905 14.54 8.726 21.038l-8.007 20.052c5.052 6.46 10.878 12.289 17.34 17.34l20.053-8.008c6.496 3.821 13.562 6.785 21.036 8.722l8.514 19.836c4.02.487 8.111.748 12.264.748 4.15 0 8.237-.261 12.261-.748l8.515-19.836c7.474-1.937 14.536-4.9 21.035-8.722l20.049 8.008c6.461-5.051 12.289-10.88 17.34-17.34l-8.008-20.052c3.826-6.498 6.789-13.563 8.73-21.038l19.828-8.513c.488-4.023.748-8.111.748-12.258 0-4.153-.259-8.247-.748-12.265zm-99.751 71.923c-32.951 0-59.663-26.712-59.663-59.661 0-32.951 26.712-59.663 59.663-59.663 32.95 0 59.663 26.712 59.663 59.663 0 32.949-26.713 59.661-59.663 59.661z" style="fill:none;stroke:rgb(0,0,0);stroke-width:8;stroke-linecap:round;stroke-linejoin:round;stroke-miterlimit:10"/></g></g></g><g id="Main" display="none"><g display="inline"><g><path d="m491.341 162.595-235.341-158.595-235.341 158.595 13.064 19.384 222.277-149.791 222.277 149.791z" fill="rgb(0,0,0)"/><path d="m76.348 153.255v331.807h29.644v-306.306h300.016v306.306h29.644v-331.807l-179.652-121.067z" fill="rgb(0,0,0)"/><path d="m105.992 178.756h300.016v24.479h-300.016z" fill="rgb(0,0,0)"/><path d="m105.992 203.234h300.016v24.479h-300.016z" fill="rgb(0,0,0)"/><path d="m105.992 227.714h300.016v24.479h-300.016z" fill="rgb(0,0,0)"/><path d="m20.659 485.062h470.682v22.938h-470.682z" fill="rgb(0,0,0)"/><path d="m105.992 415.455h69.605v69.606h-69.605z" fill="rgb(0,0,0)"/><path d="m149.85 436.034-9.054-5.312-9.054 5.312v-20.579h18.108z" fill="rgb(0,0,0)"/><path d="m175.598 415.455h69.606v69.606h-69.606z" fill="rgb(0,0,0)"/><path d="m219.455 436.034-9.053-5.312-9.054 5.312v-20.579h18.107z" fill="rgb(0,0,0)"/><path d="m245.204 415.455h69.606v69.606h-69.606z" fill="rgb(0,0,0)"/><path d="m289.061 436.034-9.053-5.312-9.054 5.312v-20.579h18.107z" fill="rgb(0,0,0)"/><path d="m105.992 345.849h69.605v69.606h-69.605z" fill="rgb(0,0,0)"/><path d="m149.85 366.429-9.054-5.314-9.054 5.314v-20.58h18.108z" fill="rgb(0,0,0)"/><path d="m175.598 345.849h69.606v69.606h-69.606z" fill="rgb(0,0,0)"/><path d="m219.455 366.429-9.053-5.314-9.054 5.314v-20.58h18.107z" fill="rgb(0,0,0)"/><path d="m105.992 276.243h69.605v69.605h-69.605z" fill="rgb(0,0,0)"/><path d="m149.85 296.823-9.054-5.314-9.054 5.314v-20.58h18.108z" fill="rgb(0,0,0)"/><g style="fill:none;stroke:rgb(0,0,0);stroke-width:8;stroke-linecap:round;stroke-linejoin:round;stroke-miterlimit:10"><path d="m20.659 485.062h470.682v22.938h-470.682z"/><path d="m149.85 416.13v19.904l-9.054-5.312-9.054 5.312v-19.904"/><path d="m219.455 416.13v19.904l-9.053-5.312-9.054 5.312v-19.904"/><path d="m289.061 416.13v19.904l-9.053-5.312-9.054 5.312v-19.904"/><path d="m149.85 346.524v19.905l-9.054-5.314-9.054 5.314v-19.905"/><path d="m219.455 346.524v19.905l-9.053-5.314-9.054 5.314v-19.905"/><path d="m149.85 276.918v19.905l-9.054-5.314-9.054 5.314v-19.905"/><path d="m491.341 162.595-235.341-158.595-235.341 158.595 13.064 19.384 222.277-149.791 222.277 149.791z"/><path d="m435.652 153.255v331.807"/><path d="m76.348 153.255v331.807"/><path d="m406.008 485.062v-306.306h-300.016v306.306"/><path d="m105.992 203.234h300.016"/></g><g><path d="m105.992 227.714h300.016" style="fill:none;stroke:rgb(0,0,0);stroke-width:8;stroke-linecap:round;stroke-linejoin:round;stroke-miterlimit:10"/></g><g><path d="m105.992 252.192h300.016" style="fill:none;stroke:rgb(0,0,0);stroke-width:8;stroke-linecap:round;stroke-linejoin:round;stroke-miterlimit:10"/></g><path d="m105.992 416.13 208.819-.675v69.607" style="fill:none;stroke:rgb(0,0,0);stroke-width:8;stroke-linecap:round;stroke-linejoin:round;stroke-miterlimit:10"/><path d="m105.992 346.524 139.212-.675v139.213" style="fill:none;stroke:rgb(0,0,0);stroke-width:8;stroke-linecap:round;stroke-linejoin:round;stroke-miterlimit:10"/><path d="m105.992 276.243h69.606v208.819" style="fill:none;stroke:rgb(0,0,0);stroke-width:8;stroke-linecap:round;stroke-linejoin:round;stroke-miterlimit:10"/></g><path d="m326.935 395.565 18.272-11.643c-.983-7.24-3.243-14.07-6.564-20.252l-21.643 1.323c-4.16-4.816-9.398-8.672-15.352-11.172l-5.421-20.955c-3.457-.617-7.011-.958-10.646-.958s-7.189.341-10.646.958l-5.42 20.955c-5.953 2.5-11.192 6.355-15.352 11.172l-21.643-1.322c-3.321 6.182-5.581 13.012-6.564 20.252l18.272 11.643c.544 6.572 2.606 12.713 5.854 18.059l-7.93 20.133c4.924 5.131 10.737 9.402 17.208 12.538l16.73-13.789c3.049.714 6.223 1.103 9.49 1.103s6.441-.389 9.49-1.103l16.73 13.789c6.471-3.138 12.283-7.407 17.206-12.54l-7.928-20.131c3.249-5.347 5.312-11.487 5.857-18.06zm-41.353 15.407c-10.422 0-18.871-8.449-18.871-18.87 0-10.422 8.449-18.87 18.871-18.87 10.423 0 18.87 8.448 18.87 18.87 0 10.42-8.447 18.87-18.87 18.87z" style="fill:rgb(0,0,0);stroke:rgb(0,0,0);stroke-width:8;stroke-linecap:round;stroke-linejoin:round;stroke-miterlimit:10"/><g><path d="m487.615 263.981-19.828-8.514c-1.941-7.474-4.904-14.539-8.73-21.038l8.008-20.05c-5.051-6.46-10.879-12.29-17.34-17.34l-20.049 8.007c-6.499-3.821-13.562-6.786-21.035-8.729l-8.515-19.828c-4.023-.488-8.11-.748-12.261-.748-4.152 0-8.244.26-12.264.748l-8.514 19.828c-7.475 1.943-14.54 4.908-21.036 8.729l-20.053-8.007c-6.462 5.05-12.288 10.88-17.34 17.34l8.007 20.05c-3.82 6.499-6.785 13.564-8.726 21.038l-19.828 8.514c-.491 4.018-.748 8.111-.748 12.265 0 4.146.257 8.234.748 12.258l19.828 8.513c1.94 7.475 4.905 14.54 8.726 21.038l-8.007 20.052c5.052 6.46 10.878 12.289 17.34 17.34l20.053-8.008c6.496 3.821 13.562 6.785 21.036 8.722l8.514 19.836c4.02.487 8.111.748 12.264.748 4.15 0 8.237-.261 12.261-.748l8.515-19.836c7.474-1.937 14.536-4.9 21.035-8.722l20.049 8.008c6.461-5.051 12.289-10.88 17.34-17.34l-8.008-20.052c3.826-6.498 6.789-13.563 8.73-21.038l19.828-8.513c.488-4.023.748-8.111.748-12.258 0-4.153-.259-8.247-.748-12.265zm-99.751 71.923c-32.951 0-59.663-26.712-59.663-59.661 0-32.951 26.712-59.663 59.663-59.663 32.95 0 59.663 26.712 59.663 59.663 0 32.949-26.713 59.661-59.663 59.661z" fill="rgb(0,0,0)"/><path d="m487.615 263.981-19.828-8.514c-1.941-7.474-4.904-14.539-8.73-21.038l8.008-20.05c-5.051-6.46-10.879-12.29-17.34-17.34l-20.049 8.007c-6.499-3.821-13.562-6.786-21.035-8.729l-8.515-19.828c-4.023-.488-8.11-.748-12.261-.748-4.152 0-8.244.26-12.264.748l-8.514 19.828c-7.475 1.943-14.54 4.908-21.036 8.729l-20.053-8.007c-6.462 5.05-12.288 10.88-17.34 17.34l8.007 20.05c-3.82 6.499-6.785 13.564-8.726 21.038l-19.828 8.514c-.491 4.018-.748 8.111-.748 12.265 0 4.146.257 8.234.748 12.258l19.828 8.513c1.94 7.475 4.905 14.54 8.726 21.038l-8.007 20.052c5.052 6.46 10.878 12.289 17.34 17.34l20.053-8.008c6.496 3.821 13.562 6.785 21.036 8.722l8.514 19.836c4.02.487 8.111.748 12.264.748 4.15 0 8.237-.261 12.261-.748l8.515-19.836c7.474-1.937 14.536-4.9 21.035-8.722l20.049 8.008c6.461-5.051 12.289-10.88 17.34-17.34l-8.008-20.052c3.826-6.498 6.789-13.563 8.73-21.038l19.828-8.513c.488-4.023.748-8.111.748-12.258 0-4.153-.259-8.247-.748-12.265zm-99.751 71.923c-32.951 0-59.663-26.712-59.663-59.661 0-32.951 26.712-59.663 59.663-59.663 32.95 0 59.663 26.712 59.663 59.663 0 32.949-26.713 59.661-59.663 59.661z" style="fill:none;stroke:rgb(0,0,0);stroke-width:8;stroke-linecap:round;stroke-linejoin:round;stroke-miterlimit:10"/></g></g></g><g id="Shadow" display="none"><g display="inline"><g><path d="m491.341 162.595-235.341-158.595-235.341 158.595 13.064 19.384 222.277-149.791 222.277 149.791z" fill="rgb(0,0,0)"/><path d="m76.348 153.255v331.807h29.644v-306.306h300.016v306.306h29.644v-331.807l-179.652-121.067z" fill="rgb(0,0,0)"/><g fill="rgb(0,0,0)"><path d="m105.992 178.756h300.016v24.479h-300.016z"/><path d="m105.992 203.234h300.016v24.479h-300.016z"/><path d="m105.992 227.714h300.016v24.479h-300.016z"/></g><path d="m20.659 485.062h470.682v22.938h-470.682z" fill="rgb(0,0,0)"/><path d="m105.992 415.455h69.605v69.606h-69.605z" fill="rgb(0,0,0)"/><path d="m149.85 436.034-9.054-5.312-9.054 5.312v-20.579h18.108z" fill="rgb(0,0,0)"/><path d="m175.598 415.455h69.606v69.606h-69.606z" fill="rgb(0,0,0)"/><path d="m219.455 436.034-9.053-5.312-9.054 5.312v-20.579h18.107z" fill="rgb(0,0,0)"/><path d="m245.204 415.455h69.606v69.606h-69.606z" fill="rgb(0,0,0)"/><path d="m289.061 436.034-9.053-5.312-9.054 5.312v-20.579h18.107z" fill="rgb(0,0,0)"/><path d="m105.992 345.849h69.605v69.606h-69.605z" fill="rgb(0,0,0)"/><path d="m149.85 366.429-9.054-5.314-9.054 5.314v-20.58h18.108z" fill="rgb(0,0,0)"/><path d="m175.598 345.849h69.606v69.606h-69.606z" fill="rgb(0,0,0)"/><path d="m219.455 366.429-9.053-5.314-9.054 5.314v-20.58h18.107z" fill="rgb(0,0,0)"/><path d="m105.992 276.243h69.605v69.605h-69.605z" fill="rgb(0,0,0)"/><path d="m149.85 296.823-9.054-5.314-9.054 5.314v-20.58h18.108z" fill="rgb(0,0,0)"/></g><path d="m326.935 395.565 18.272-11.643c-.983-7.24-3.243-14.07-6.564-20.252l-21.643 1.323c-4.16-4.816-9.398-8.672-15.352-11.172l-5.421-20.955c-3.457-.617-7.011-.958-10.646-.958s-7.189.341-10.646.958l-5.42 20.955c-5.953 2.5-11.192 6.355-15.352 11.172l-21.643-1.322c-3.321 6.182-5.581 13.012-6.564 20.252l18.272 11.643c.544 6.572 2.606 12.713 5.854 18.059l-7.93 20.133c4.924 5.131 10.737 9.402 17.208 12.538l16.73-13.789c3.049.714 6.223 1.103 9.49 1.103s6.441-.389 9.49-1.103l16.73 13.789c6.471-3.138 12.283-7.407 17.206-12.54l-7.928-20.131c3.249-5.347 5.312-11.487 5.857-18.06zm-41.353 15.407c-10.422 0-18.871-8.449-18.871-18.87 0-10.422 8.449-18.87 18.871-18.87 10.423 0 18.87 8.448 18.87 18.87 0 10.42-8.447 18.87-18.87 18.87z" fill="rgb(0,0,0)"/><g><path d="m487.615 263.981-19.828-8.514c-1.941-7.474-4.904-14.539-8.73-21.038l8.008-20.05c-5.051-6.46-10.879-12.29-17.34-17.34l-20.049 8.007c-6.499-3.821-13.562-6.786-21.035-8.729l-8.515-19.828c-4.023-.488-8.11-.748-12.261-.748-4.152 0-8.244.26-12.264.748l-8.514 19.828c-7.475 1.943-14.54 4.908-21.036 8.729l-20.053-8.007c-6.462 5.05-12.288 10.88-17.34 17.34l8.007 20.05c-3.82 6.499-6.785 13.564-8.726 21.038l-19.828 8.514c-.491 4.018-.748 8.111-.748 12.265 0 4.146.257 8.234.748 12.258l19.828 8.513c1.94 7.475 4.905 14.54 8.726 21.038l-8.007 20.052c5.052 6.46 10.878 12.289 17.34 17.34l20.053-8.008c6.496 3.821 13.562 6.785 21.036 8.722l8.514 19.836c4.02.487 8.111.748 12.264.748 4.15 0 8.237-.261 12.261-.748l8.515-19.836c7.474-1.937 14.536-4.9 21.035-8.722l20.049 8.008c6.461-5.051 12.289-10.88 17.34-17.34l-8.008-20.052c3.826-6.498 6.789-13.563 8.73-21.038l19.828-8.513c.488-4.023.748-8.111.748-12.258 0-4.153-.259-8.247-.748-12.265zm-99.751 71.923c-32.951 0-59.663-26.712-59.663-59.661 0-32.951 26.712-59.663 59.663-59.663 32.95 0 59.663 26.712 59.663 59.663 0 32.949-26.713 59.661-59.663 59.661z" fill="rgb(0,0,0)"/></g></g></g><g id="Line" display="none"><g style="fill:none;stroke:rgb(0,0,0);stroke-width:8;stroke-linecap:round;stroke-linejoin:round;stroke-miterlimit:10"><path d="m20.659 485.062h470.682v22.938h-470.682z" display="inline"/><path d="m149.85 416.13v19.904l-9.054-5.312-9.054 5.312v-19.904" display="inline"/><path d="m219.455 416.13v19.904l-9.053-5.312-9.054 5.312v-19.904" display="inline"/><path d="m289.061 416.13v19.904l-9.053-5.312-9.054 5.312v-19.904" display="inline"/><path d="m149.85 346.524v19.905l-9.054-5.314-9.054 5.314v-19.905" display="inline"/><path d="m219.455 346.524v19.905l-9.053-5.314-9.054 5.314v-19.905" display="inline"/><path d="m149.85 276.918v19.905l-9.054-5.314-9.054 5.314v-19.905" display="inline"/><path d="m491.341 162.595-235.341-158.595-235.341 158.595 13.064 19.384 222.277-149.791 222.277 149.791z" display="inline"/><path d="m435.652 153.255v331.807" display="inline"/><path d="m76.348 153.255v331.807" display="inline"/><path d="m406.008 485.062v-306.306h-300.016v306.306" display="inline"/><path d="m105.992 203.234h300.016" display="inline"/></g><g display="inline"><path d="m105.992 227.714h300.016" style="fill:none;stroke:rgb(0,0,0);stroke-width:8;stroke-linecap:round;stroke-linejoin:round;stroke-miterlimit:10"/></g><g display="inline"><path d="m105.992 252.192h300.016" style="fill:none;stroke:rgb(0,0,0);stroke-width:8;stroke-linecap:round;stroke-linejoin:round;stroke-miterlimit:10"/></g><path d="m105.992 416.13 208.819-.675v69.607" style="display:inline;fill:none;stroke:rgb(0,0,0);stroke-width:8;stroke-linecap:round;stroke-linejoin:round;stroke-miterlimit:10"/><path d="m105.992 346.524 139.212-.675v139.213" style="display:inline;fill:none;stroke:rgb(0,0,0);stroke-width:8;stroke-linecap:round;stroke-linejoin:round;stroke-miterlimit:10"/><path d="m105.992 276.243h69.606v208.819" style="display:inline;fill:none;stroke:rgb(0,0,0);stroke-width:8;stroke-linecap:round;stroke-linejoin:round;stroke-miterlimit:10"/><path d="m487.615 263.981-19.828-8.514c-1.941-7.474-4.904-14.539-8.73-21.038l8.008-20.05c-5.051-6.46-10.879-12.29-17.34-17.34l-20.049 8.007c-6.499-3.821-13.562-6.786-21.035-8.729l-8.515-19.828c-4.023-.488-8.11-.748-12.261-.748-4.152 0-8.244.26-12.264.748l-8.514 19.828c-7.475 1.943-14.54 4.908-21.036 8.729l-20.053-8.007c-6.462 5.05-12.288 10.88-17.34 17.34l8.007 20.05c-3.82 6.499-6.785 13.564-8.726 21.038l-19.828 8.514c-.491 4.018-.748 8.111-.748 12.265 0 4.146.257 8.234.748 12.258l19.828 8.513c1.94 7.475 4.905 14.54 8.726 21.038l-8.007 20.052c5.052 6.46 10.878 12.289 17.34 17.34l20.053-8.008c6.496 3.821 13.562 6.785 21.036 8.722l8.514 19.836c4.02.487 8.111.748 12.264.748 4.15 0 8.237-.261 12.261-.748l8.515-19.836c7.474-1.937 14.536-4.9 21.035-8.722l20.049 8.008c6.461-5.051 12.289-10.88 17.34-17.34l-8.008-20.052c3.826-6.498 6.789-13.563 8.73-21.038l19.828-8.513c.488-4.023.748-8.111.748-12.258 0-4.153-.259-8.247-.748-12.265zm-99.751 71.923c-32.951 0-59.663-26.712-59.663-59.661 0-32.951 26.712-59.663 59.663-59.663 32.95 0 59.663 26.712 59.663 59.663 0 32.949-26.713 59.661-59.663 59.661z" style="display:inline;fill:none;stroke:rgb(0,0,0);stroke-width:8;stroke-linecap:round;stroke-linejoin:round;stroke-miterlimit:10"/></g><g id="Base" display="none"><path d="m323.811 476.062v-26.292c4.232-2.813 8.157-6.097 11.694-9.786 2.424-2.526 3.161-6.267 1.878-9.526l-6.393-16.232c2.031-4.189 3.5-8.722 4.316-13.322l14.736-9.39c2.95-1.878 4.554-5.333 4.082-8.801-1.115-8.207-3.657-16.047-7.555-23.301-.384-.714-.854-1.361-1.393-1.933l.244-.098c4.835 2.533 9.891 4.63 15.081 6.254l6.828 15.91c1.262 2.939 4.017 5.003 7.189 5.386 4.452.54 8.943.813 13.345.813 3.018 0 6.078-.129 9.143-.385v90.702h-73.195zm-69.607-130.213c0-2.38-.968-4.706-2.654-6.382-1.673-1.664-3.956-2.62-6.261-2.62l-.253.004.124-.002-60.563.294v-60.899c0-4.963-4.037-9-9-9h-60.605v-6.051h164.564c-.179.547-.307 1.115-.378 1.696-.54 4.423-.814 8.916-.814 13.357 0 4.43.273 8.921.814 13.348.387 3.169 2.449 5.919 5.381 7.18l15.907 6.829c1.626 5.19 3.724 10.246 6.257 15.082l-3.437 8.605c-1.342-1.695-3.277-2.892-5.479-3.284-4.063-.725-8.176-1.092-12.226-1.092s-8.164.367-12.229 1.093c-3.451.614-6.251 3.206-7.132 6.603l-4.372 16.906c-2.677 1.434-5.247 3.126-7.646 5.029v-6.696z" display="inline" fill="none"/><path d="m285.582 401.972c-5.443 0-9.871-4.428-9.871-9.87s4.428-9.87 9.871-9.87c5.442 0 9.87 4.428 9.87 9.87s-4.428 9.87-9.87 9.87z" display="inline" fill="none"/><path d="m439.652 255.879v40.728c2.491-6.312 3.875-13.177 3.875-20.363s-1.383-14.053-3.875-20.365z" display="inline" fill="none"/><path d="m387.864 326.904c-27.936 0-50.663-22.727-50.663-50.661 0-5.132.771-10.18 2.296-15.051h57.511v64.881c-3.013.552-6.074.831-9.144.831z" display="inline" fill="none"/><path d="m261.029 24.725c-1.492-1.005-3.231-1.536-5.029-1.536s-3.537.531-5.028 1.535l-214.816 144.762-3.004-4.457 222.848-150.176 222.848 150.177-3.004 4.457z" display="inline" fill="rgb(0,0,0)"/><path d="m415.008 233.5c4.358 2.782 8.298 6.231 11.645 10.214v65.057c-3.347 3.982-7.286 7.432-11.645 10.214z" display="inline" fill="rgb(0,0,0)"/><path d="m85.348 476.062v-318.019l170.652-115.002 170.652 115.002v35.25c-3.707-1.736-7.528-3.224-11.425-4.447l-.22-.511v-9.579c0-4.933-3.988-8.951-8.91-9-1.344-1.196-3.036-1.976-4.887-2.201-4.429-.537-8.919-.81-13.349-.81-4.431 0-8.92.272-13.346.81-1.85.226-3.542 1.004-4.886 2.201h-263.637c-4.963 0-9 4.037-9 9v297.306z" display="inline" fill="rgb(0,0,0)"/><path d="m415.008 476.062v-111.919l.218-.508c3.896-1.22 7.718-2.705 11.427-4.442v116.869z" display="inline" fill="rgb(0,0,0)"/><g fill="rgb(0,0,0)"><path d="m343.242 194.234-13.905-5.553c-1.071-.426-2.191-.641-3.337-.641-1.998 0-3.966.677-5.541 1.906-1.7 1.328-3.422 2.766-5.137 4.287h-200.33v-6.479h245.978l-.469 1.09c-4.568 1.435-9.05 3.241-13.365 5.389h-3.894z" display="inline"/><path d="m369.48 223.714h32.527v-1.308c-4.519-1.188-9.258-1.826-14.144-1.826-6.439 0-12.623 1.112-18.383 3.134z" display="inline"/><path d="m114.992 218.714v-6.479h184.931c-.44 1.797-.327 3.718.378 5.484l.397.995z" display="inline"/><path d="m114.992 243.192v-6.479h190.272c-1.016 2.121-1.951 4.284-2.801 6.479z" display="inline"/><path d="m349.503 243.192c2.028-2.355 4.271-4.52 6.713-6.479h40.792v6.479z" display="inline"/></g><path d="m29.659 494.062h452.682v4.938h-452.682z" display="inline" fill="rgb(0,0,0)"/><path d="m114.992 476.062v-50.961l7.75-.024v10.958c0 3.221 1.736 6.213 4.531 7.812 1.351.776 2.899 1.189 4.469 1.189 1.6 0 3.175-.429 4.556-1.238l4.498-2.641 4.499 2.641c1.383.81 2.956 1.237 4.555 1.237 1.57 0 3.119-.413 4.479-1.194 2.785-1.593 4.521-4.585 4.521-7.806v-11.075l7.748-.025v51.128h-51.606z" display="inline" fill="rgb(0,0,0)"/><path d="m142.82 427.271 3.029 1.777v-9.048l-10.107.032v9.016l3.029-1.777c1.25-.732 2.799-.732 4.049 0z" display="inline" fill="rgb(0,0,0)"/><path d="m184.598 476.062v-51.186l7.75-.025v11.184c0 3.22 1.735 6.212 4.528 7.811 1.355.777 2.903 1.19 4.472 1.19 1.6 0 3.175-.429 4.556-1.238l4.499-2.641 4.497 2.641c1.384.81 2.957 1.237 4.556 1.237 1.57 0 3.119-.413 4.479-1.194 2.785-1.593 4.521-4.585 4.521-7.806v-11.3l7.589-.024-2.265 5.749c-1.284 3.263-.545 7.003 1.882 9.53.18.188.361.374.543.56v35.513h-51.607z" display="inline" fill="rgb(0,0,0)"/><path d="m212.427 427.271 3.028 1.777v-9.272l-10.107.032v9.241l3.03-1.778c1.251-.732 2.8-.732 4.049 0z" display="inline" fill="rgb(0,0,0)"/><path d="m254.204 476.062v-22.282c.41.21.821.415 1.233.614 1.217.589 2.573.9 3.924.9 2.085 0 4.118-.73 5.726-2.056l13.501-11.127c1.225.171 2.46.298 3.694.379l2.223 1.306c1.383.811 2.958 1.238 4.557 1.238 1.57 0 3.119-.414 4.479-1.195.221-.126.435-.262.642-.405l11.629 9.585v23.042h-51.608z" display="inline" fill="rgb(0,0,0)"/><path d="m114.992 355.48 7.75-.037v10.985c0 3.219 1.735 6.212 4.528 7.811 1.357.778 2.903 1.189 4.471 1.189 1.6 0 3.174-.428 4.554-1.236l4.501-2.642 4.498 2.641c1.384.81 2.957 1.237 4.556 1.237 1.567 0 3.114-.411 4.474-1.19 2.791-1.598 4.526-4.591 4.526-7.81v-11.161l7.748-.037v51.704l-51.605.166v-51.62z" display="inline" fill="rgb(0,0,0)"/><path d="m142.82 357.665 3.029 1.778v-9.112l-10.107.049v9.063l3.029-1.778c1.25-.732 2.799-.732 4.049 0z" display="inline" fill="rgb(0,0,0)"/><path d="m184.598 355.143 7.75-.037v11.323c0 3.221 1.736 6.213 4.531 7.812 1.351.776 2.898 1.188 4.468 1.188 1.6 0 3.174-.428 4.554-1.236l4.502-2.642 4.497 2.64c1.084.638 2.293 1.039 3.541 1.181-.597 2.409-1.064 4.857-1.401 7.341-.472 3.468 1.132 6.923 4.084 8.802l14.733 9.388c.104.594.221 1.188.348 1.779v4.029l-51.606.166v-51.734zm43.857-.213 1.926-.009c-.67.162-1.316.402-1.926.711z" display="inline" fill="rgb(0,0,0)"/><path d="m208.378 357.665c1.25-.732 2.799-.733 4.049.001l3.028 1.776v-9.449l-10.107.049v9.401z" display="inline" fill="rgb(0,0,0)"/><path d="m114.992 285.243h7.75v11.58c0 3.219 1.735 6.212 4.528 7.811 1.358.778 2.905 1.19 4.472 1.19 1.604 0 3.183-.431 4.563-1.244l4.49-2.636 4.499 2.641c1.375.809 2.952 1.238 4.555 1.238 1.567 0 3.114-.411 4.474-1.19 2.791-1.598 4.526-4.591 4.526-7.81v-11.58h7.748v51.987l-51.605.25z" display="inline" fill="rgb(0,0,0)"/><path d="m138.771 288.06c1.25-.734 2.799-.734 4.049 0l3.029 1.777v-9.594h-10.107v9.594z" display="inline" fill="rgb(0,0,0)"/><path d="m258.357 435.459c-1.949-1.229-3.818-2.593-5.594-4.082l5.693-14.455c1.023-2.601.77-5.579-.681-7.969-2.619-4.312-4.159-9.065-4.577-14.13-.232-2.789-1.778-5.35-4.137-6.85l-13.127-8.364c.561-2.244 1.272-4.443 2.131-6.583l15.549.949c.172.012.369.019.566.019 2.61 0 5.088-1.139 6.798-3.123 3.282-3.801 7.44-6.828 12.021-8.751 2.575-1.083 4.528-3.342 5.229-6.042l3.892-15.047c1.161-.081 2.317-.121 3.461-.121 1.145 0 2.301.04 3.462.121l3.893 15.044c.698 2.701 2.651 4.961 5.226 6.043 4.583 1.925 8.741 4.952 12.027 8.758 1.712 1.981 4.188 3.118 6.792 3.118.199 0 .399-.007.6-.021l15.518-.947c.858 2.14 1.57 4.339 2.131 6.583l-13.13 8.366c-2.356 1.5-3.901 4.06-4.133 6.846-.42 5.066-1.96 9.82-4.578 14.132-1.45 2.39-1.704 5.368-.681 7.969l5.692 14.454c-1.774 1.489-3.644 2.854-5.594 4.083l-12.01-9.898c-1.61-1.326-3.642-2.056-5.722-2.056-.695 0-1.392.081-2.067.241-2.426.567-4.929.857-7.425.857s-4.999-.29-7.439-.86c-.663-.157-1.357-.238-2.052-.238-2.082 0-4.115.73-5.724 2.056zm27.225-71.228c-15.368 0-27.871 12.503-27.871 27.87s12.503 27.87 27.871 27.87c15.367 0 27.87-12.503 27.87-27.87s-12.503-27.87-27.87-27.87z" display="inline" fill="rgb(0,0,0)"/><path d="m387.863 367.742c-2.015 0-4.056-.068-6.098-.204l-6.407-14.928c-1.107-2.578-3.299-4.459-6.014-5.162-6.553-1.698-12.854-4.312-18.729-7.767-1.382-.813-2.96-1.244-4.564-1.244-1.149 0-2.273.217-3.341.645l-15.092 6.026c-3.057-2.677-5.942-5.563-8.621-8.622l6.027-15.094c1.024-2.564.801-5.518-.6-7.899-3.455-5.877-6.07-12.182-7.772-18.738-.706-2.713-2.586-4.901-5.159-6.008l-14.925-6.407c-.136-2.036-.204-4.076-.204-6.094 0-2.021.068-4.063.204-6.101l14.923-6.407c2.575-1.107 4.455-3.296 5.16-6.007 1.701-6.555 4.316-12.859 7.773-18.74 1.4-2.382 1.624-5.335.599-7.9l-6.026-15.091c2.681-3.062 5.566-5.948 8.621-8.622l15.096 6.027c1.071.426 2.192.641 3.339.641 1.604 0 3.183-.43 4.563-1.243 5.871-3.453 12.176-6.069 18.736-7.775 2.709-.703 4.897-2.583 6.005-5.157l6.407-14.924c2.037-.135 4.077-.203 6.094-.203 2.019 0 4.063.068 6.104.204l6.407 14.921c1.108 2.576 3.297 4.456 6.007 5.16 6.555 1.704 12.859 4.321 18.737 7.777 1.379.811 2.956 1.24 4.561 1.24 1.145 0 2.266-.215 3.33-.637l15.101-6.031c3.057 2.677 5.942 5.563 8.621 8.621l-6.028 15.093c-1.025 2.567-.8 5.522.603 7.904 3.454 5.866 6.07 12.17 7.776 18.734.703 2.711 2.583 4.9 5.157 6.007l14.924 6.407c.137 2.043.205 4.085.205 6.102 0 2.012-.068 4.052-.205 6.095l-14.922 6.405c-2.576 1.107-4.456 3.297-5.16 6.008-1.705 6.565-4.321 12.869-7.775 18.734-1.402 2.382-1.628 5.337-.603 7.904l6.028 15.094c-2.678 3.059-5.563 5.944-8.621 8.622l-15.092-6.028c-1.066-.426-2.189-.643-3.339-.643-1.604 0-3.184.431-4.565 1.245-5.876 3.455-12.178 6.068-18.726 7.766-2.715.703-4.906 2.584-6.013 5.16l-6.408 14.93c-2.042.136-4.083.204-6.099.204zm.001-160.162c-37.861 0-68.663 30.802-68.663 68.663 0 37.86 30.802 68.661 68.663 68.661s68.663-30.801 68.663-68.661c0-37.861-30.801-68.663-68.663-68.663z" display="inline" fill="rgb(0,0,0)"/></g><g id="Blue" display="none"><g display="inline"><path d="m402.008 379.521c-.43.229-.902.386-1.401.446-4.257.516-8.544.777-12.741.777-4.203 0-8.491-.262-12.745-.777-1.415-.171-2.632-1.083-3.194-2.394l-7.751-18.06c-6.406-1.819-12.591-4.384-18.435-7.644l-18.258 7.291c-1.321.527-2.824.313-3.946-.563-6.708-5.243-12.773-11.308-18.028-18.027-.877-1.121-1.092-2.625-.563-3.947l7.29-18.258c-3.26-5.844-5.825-12.028-7.646-18.435l-18.054-7.751c-1.309-.563-2.22-1.777-2.393-3.191-.516-4.226-.777-8.513-.777-12.742 0-4.24.262-8.53.777-12.75.173-1.413 1.084-2.628 2.393-3.19l9.579-4.113h-186.123v16.051h65.605c2.209 0 4 1.791 4 4v65.924l65.587-.318c1.054-.031 2.086.414 2.841 1.165.755.75 1.179 1.771 1.179 2.835v14.834l3.283.2c3.893-4.122 8.549-7.512 13.638-9.926l4.938-19.093c.393-1.514 1.63-2.661 3.17-2.936 7.583-1.353 15.113-1.354 22.698 0 1.539.274 2.777 1.422 3.169 2.936l4.939 19.093c5.087 2.414 9.744 5.803 13.638 9.926l19.722-1.204c1.569-.11 3.028.724 3.768 2.099 3.614 6.727 5.971 13.997 7.005 21.607.21 1.546-.498 3.073-1.814 3.911l-16.647 10.607c-.721 5.62-2.496 11.1-5.2 16.047l7.222 18.339c.572 1.453.246 3.107-.835 4.234-3.921 4.09-8.308 7.603-13.085 10.5v34.038h83.197v-101.541z" fill="none"/><path d="m285.582 406.972c8.199 0 14.87-6.671 14.87-14.87s-6.671-14.87-14.87-14.87c-8.2 0-14.871 6.671-14.871 14.87s6.671 14.87 14.871 14.87z" fill="none"/><path d="m439.652 255.879v40.728c2.491-6.312 3.875-13.177 3.875-20.363s-1.383-14.053-3.875-20.365z" fill="none"/><path d="m387.864 331.904c4.886 0 9.625-.639 14.144-1.826v-73.886h-66.056c-2.413 6.226-3.751 12.983-3.751 20.051 0 30.692 24.971 55.661 55.663 55.661z" fill="none"/><path d="m74.109 149.939c.002-.001.003-.002.004-.002l179.652-121.066c.676-.455 1.455-.683 2.235-.683s1.56.228 2.235.683l179.651 121.066c.001 0 .002.001.004.002l39.305 26.487 8.593-12.75-229.788-154.853-229.788 154.854 8.593 12.75z" fill="rgb(0,0,0)"/><path d="m431.652 310.545v-68.605c-5.682-7.235-13.105-13.035-21.645-16.753v102.111c8.54-3.718 15.964-9.518 21.645-16.753z" fill="rgb(0,0,0)"/><path d="m101.992 481.062v-302.306c0-2.209 1.791-4 4-4h266.013c.591-1.224 1.759-2.072 3.114-2.237 8.484-1.03 16.984-1.032 25.488 0 1.357.165 2.525 1.014 3.115 2.237h2.285c2.209 0 4 1.791 4 4v10.607l1.547 3.603c6.404 1.824 12.59 4.391 18.432 7.649l1.666-.665v-44.567l-175.652-118.371-175.652 118.371v325.679z" fill="rgb(0,0,0)"/><path d="m429.986 351.87c-5.846 3.261-12.03 5.825-18.433 7.644l-1.546 3.602v117.946h21.645v-128.527z" fill="rgb(0,0,0)"/><g fill="rgb(0,0,0)"><path d="m368.558 182.756h-258.566v16.479h207.253c2.028-1.861 4.122-3.651 6.291-5.346 1.122-.876 2.623-1.09 3.946-.563l14.799 5.909h6.047c5.068-2.607 10.374-4.711 15.846-6.269z"/><path d="m369.48 223.714h32.527v-1.308c-4.519-1.188-9.258-1.826-14.144-1.826-6.439 0-12.623 1.112-18.383 3.134z"/><path d="m309.398 207.234h-199.406v16.479h198.087l-3.135-7.851c-.528-1.322-.313-2.826.563-3.947 1.252-1.599 2.552-3.157 3.891-4.681z"/><path d="m109.992 248.192h195.968c1.665-4.856 3.761-9.566 6.274-14.073l-.961-2.405h-201.281z"/><path d="m402.008 248.192v-16.479h-47.504c-5.925 4.45-10.926 10.059-14.688 16.479z"/></g><path d="m24.659 489.062h462.682v14.938h-462.682z" fill="rgb(0,0,0)"/><path d="m171.598 419.918-17.748.057v16.06c0 1.435-.768 2.759-2.013 3.471-.615.354-1.302.529-1.987.529-.7 0-1.399-.184-2.024-.55l-7.029-4.125-7.029 4.125c-1.236.726-2.768.735-4.012.021-1.245-.712-2.013-2.036-2.013-3.471v-15.975l-17.75.058v60.944h61.605z" fill="rgb(0,0,0)"/><path d="m142.82 427.271 3.029 1.777v-9.048l-10.107.032v9.016l3.029-1.777c1.25-.732 2.799-.732 4.049 0z" fill="rgb(0,0,0)"/><path d="m241.204 438.459c-.657-.631-1.304-1.273-1.937-1.933-1.082-1.127-1.408-2.781-.836-4.235l2.772-7.039v-5.559l-17.749.057v16.284c0 1.435-.768 2.759-2.013 3.471-.615.354-1.302.529-1.987.529-.7 0-1.399-.184-2.024-.55l-7.028-4.125-7.03 4.125c-1.236.726-2.767.735-4.013.021-1.244-.712-2.012-2.037-2.012-3.471v-16.2l-17.75.059v61.169h61.606v-42.603z" fill="rgb(0,0,0)"/><path d="m212.427 427.271 3.028 1.777v-9.272l-10.107.032v9.241l3.03-1.778c1.251-.732 2.8-.732 4.049 0z" fill="rgb(0,0,0)"/><path d="m310.811 450.155c-.558-.144-1.091-.394-1.552-.773l-15.245-12.565c-.357.067-.717.118-1.074.177-.26 1.048-.932 1.963-1.892 2.512-1.243.715-2.774.705-4.012-.021l-3.272-1.921c-2.115-.085-4.227-.317-6.32-.699l-1.219.716-14.319 11.802c-1.205.994-2.881 1.194-4.288.513-2.936-1.422-5.738-3.074-8.413-4.921v36.088h61.606z" fill="rgb(0,0,0)"/><path d="m171.598 350.206-17.748.086v16.137c0 1.435-.768 2.759-2.013 3.472-.615.353-1.302.528-1.987.528-.7 0-1.399-.184-2.024-.55l-7.029-4.126-7.029 4.126c-1.236.725-2.768.734-4.012.021-1.245-.713-2.013-2.037-2.013-3.472v-16.01l-17.75.086v61.612l61.605-.199z" fill="rgb(0,0,0)"/><path d="m142.82 357.665 3.029 1.778v-9.112l-10.107.049v9.063l3.029-1.778c1.25-.732 2.799-.732 4.049 0z" fill="rgb(0,0,0)"/><path d="m179.598 350.167v61.726l61.606-.199v-9.555c-.315-1.398-.567-2.813-.749-4.235l-16.647-10.607c-1.316-.838-2.024-2.365-1.814-3.911 1.034-7.61 3.391-14.881 7.005-21.607.737-1.374 2.203-2.21 3.768-2.099l8.438.515v-10.325l-17.749.086v16.475c0 1.435-.768 2.759-2.013 3.472-.615.353-1.302.528-1.987.528-.7 0-1.4-.184-2.024-.551l-7.028-4.125-7.03 4.126c-1.236.725-2.768.735-4.012.021-1.245-.712-2.013-2.036-2.013-3.471v-16.348z" fill="rgb(0,0,0)"/><path d="m208.378 357.665c1.25-.732 2.799-.733 4.049.001l3.028 1.776v-9.449l-10.107.049v9.401z" fill="rgb(0,0,0)"/><path d="m109.992 280.243v62.262l61.605-.299v-61.963h-17.747v16.58c0 1.435-.768 2.759-2.013 3.472-.615.353-1.302.528-1.987.528-.7 0-1.4-.184-2.024-.551l-7.029-4.125-7.029 4.125c-1.234.728-2.768.735-4.012.022-1.245-.713-2.013-2.037-2.013-3.472v-16.58h-17.751z" fill="rgb(0,0,0)"/><path d="m138.771 288.06c1.25-.734 2.799-.734 4.049 0l3.029 1.777v-9.594h-10.107v9.594z" fill="rgb(0,0,0)"/><path d="m324.785 392.192 16.062-10.234c-.893-4.916-2.427-9.652-4.579-14.135l-19.023 1.162c-1.246.084-2.455-.433-3.271-1.378-3.788-4.386-8.586-7.878-13.873-10.098-1.151-.484-2.011-1.478-2.323-2.687l-4.764-18.412c-4.988-.668-9.874-.668-14.862 0l-4.762 18.412c-.313 1.209-1.173 2.202-2.324 2.687-5.289 2.221-10.086 5.713-13.873 10.098-.814.945-2.023 1.461-3.271 1.378l-19.023-1.162c-2.152 4.482-3.687 9.219-4.579 14.135l16.062 10.234c1.055.671 1.733 1.797 1.837 3.043.483 5.846 2.263 11.334 5.286 16.313.648 1.068.761 2.379.303 3.542l-6.968 17.69c3.624 3.458 7.647 6.392 12.009 8.756l14.702-12.117c.962-.793 2.242-1.095 3.456-.808 5.652 1.322 11.504 1.322 17.156 0 1.215-.288 2.493.015 3.456.808l14.701 12.117c4.364-2.366 8.388-5.301 12.008-8.758l-6.966-17.688c-.458-1.163-.346-2.474.303-3.542 3.022-4.979 4.802-10.467 5.286-16.313.101-1.246.78-2.372 1.834-3.043zm-62.074-.09c0-12.61 10.26-22.87 22.871-22.87 12.61 0 22.87 10.26 22.87 22.87s-10.26 22.87-22.87 22.87c-12.611 0-22.871-10.26-22.871-22.87z" fill="rgb(0,0,0)"/><path d="m449.044 201.619-17.885 7.143c-1.148.456-2.445.36-3.511-.267-6.276-3.69-13.011-6.485-20.015-8.307-1.196-.311-2.181-1.157-2.669-2.293l-7.594-17.685c-6.366-.624-12.662-.624-19.015 0l-7.593 17.685c-.488 1.136-1.473 1.982-2.669 2.293-7.01 1.822-13.744 4.617-20.015 8.306-1.068.629-2.365.724-3.512.268l-17.889-7.143c-4.902 4.021-9.409 8.529-13.441 13.442l7.143 17.885c.459 1.148.36 2.444-.267 3.511-3.69 6.278-6.484 13.013-8.302 20.016-.312 1.197-1.158 2.183-2.294 2.671l-17.687 7.594c-.311 3.161-.468 6.351-.468 9.509 0 3.151.157 6.338.469 9.502l17.686 7.593c1.136.488 1.982 1.474 2.294 2.671 1.818 7.004 4.611 13.738 8.302 20.016.627 1.066.726 2.362.267 3.511l-7.143 17.887c4.03 4.911 8.538 9.419 13.441 13.442l17.889-7.144c1.146-.459 2.443-.361 3.512.268 6.274 3.69 13.008 6.482 20.011 8.297 1.198.311 2.185 1.157 2.673 2.294l7.594 17.692c6.364.623 12.638.624 19.014 0l7.594-17.692c.488-1.137 1.475-1.983 2.673-2.294 6.998-1.813 13.73-4.605 20.011-8.298 1.065-.628 2.362-.726 3.511-.267l17.885 7.144c4.906-4.026 9.413-8.533 13.441-13.442l-7.144-17.887c-.459-1.149-.36-2.446.268-3.513 3.689-6.266 6.484-13 8.307-20.015.311-1.196 1.157-2.182 2.293-2.67l17.685-7.592c.313-3.181.47-6.367.47-9.503 0-3.143-.157-6.332-.47-9.51l-17.685-7.593c-1.136-.488-1.982-1.474-2.293-2.67-1.822-7.014-4.617-13.748-8.307-20.015-.628-1.066-.727-2.363-.268-3.513l7.144-17.886c-4.029-4.909-8.537-9.416-13.441-13.441zm-61.18 138.285c-35.104 0-63.663-28.559-63.663-63.661 0-35.104 28.56-63.663 63.663-63.663s63.663 28.56 63.663 63.663-28.559 63.661-63.663 63.661z" fill="rgb(0,0,0)"/></g></g><g id="Glyph" display="none"><path d="m27.29 173.297-8.885-13.183 237.595-160.114 237.595 160.114-8.885 13.183-40.64-27.387c-.002-.001-.003-.002-.004-.002l-185.754-125.179c-.699-.471-1.505-.706-2.312-.706s-1.612.235-2.312.706l-185.754 125.179c-.001 0-.002.001-.004.002zm410.33 138.675v-70.936c-5.875-7.481-13.551-13.479-22.38-17.322v105.58c8.829-3.844 16.505-9.841 22.38-17.322zm-340.86 176.309v-312.576c0-2.283 1.852-4.136 4.136-4.136h275.051c.61-1.265 1.818-2.143 3.22-2.313 8.772-1.064 17.562-1.066 26.354 0 1.403.171 2.611 1.049 3.221 2.313h2.363c2.284 0 4.136 1.853 4.136 4.136v10.968l1.6 3.726c6.621 1.886 13.018 4.539 19.058 7.909l1.723-.688v-46.082l-181.622-122.392-181.62 122.392v336.743zm339.137-133.58c-6.044 3.371-12.439 6.023-19.059 7.903l-1.599 3.724v121.953h22.38v-132.892zm-63.515-174.859h-267.351v17.038h214.295c2.097-1.925 4.262-3.775 6.505-5.527 1.16-.906 2.712-1.127 4.08-.583l15.302 6.11h6.252c5.24-2.696 10.727-4.871 16.384-6.481zm.954 42.348h33.633v-1.352c-4.673-1.228-9.573-1.889-14.625-1.889-6.659.001-13.053 1.152-19.008 3.241zm-62.123-17.039h-206.182v17.039h204.817l-3.241-8.117c-.547-1.367-.324-2.922.582-4.081 1.294-1.654 2.638-3.265 4.024-4.841zm-206.182 42.35h202.626c1.722-5.021 3.889-9.892 6.487-14.552l-.993-2.486h-208.12zm301.938 0v-17.038h-49.118c-6.126 4.602-11.297 10.4-15.187 17.038zm-390.169 249.053v15.446h478.4v-15.446zm151.93-71.493-18.352.059v16.605c0 1.483-.793 2.853-2.081 3.589-.636.365-1.346.547-2.055.547-.724 0-1.447-.189-2.093-.568l-7.269-4.265-7.268 4.265c-1.278.75-2.862.761-4.148.021-1.287-.736-2.081-2.105-2.081-3.589v-16.518l-18.354.06v63.015h63.699v-63.221zm-29.754 7.603 3.132 1.838v-9.355l-10.451.033v9.322l3.133-1.838c1.291-.757 2.893-.757 4.186 0zm101.725 11.567c-.68-.652-1.348-1.316-2.002-1.998-1.119-1.165-1.456-2.876-.864-4.379l2.866-7.278v-5.748l-18.352.059v16.838c0 1.483-.794 2.853-2.081 3.589-.637.365-1.347.547-2.055.547-.725 0-1.447-.189-2.094-.568l-7.267-4.265-7.27 4.265c-1.278.75-2.86.761-4.148.021-1.287-.736-2.08-2.106-2.08-3.589v-16.751l-18.354.061v63.247h63.699v-44.051zm-29.755-11.567 3.131 1.838v-9.588l-10.45.033v9.556l3.133-1.839c1.294-.757 2.895-.757 4.186 0zm101.727 23.661c-.577-.148-1.128-.406-1.604-.8l-15.764-12.992c-.369.07-.74.122-1.11.183-.269 1.084-.963 2.03-1.956 2.598-1.285.739-2.868.729-4.147-.021l-3.384-1.986c-2.188-.088-4.37-.328-6.535-.723l-1.26.74-14.807 12.202c-1.245 1.028-2.979 1.235-4.434.53-3.035-1.47-5.933-3.179-8.698-5.088v37.313h63.699zm-143.943-103.345-18.352.089v16.685c0 1.483-.793 2.853-2.081 3.59-.636.365-1.346.547-2.055.547-.724 0-1.447-.19-2.093-.569l-7.269-4.266-7.268 4.266c-1.278.75-2.862.76-4.148.022-1.287-.737-2.081-2.106-2.081-3.59v-16.554l-18.354.089v63.706l63.699-.206v-63.809zm-29.754 7.713 3.132 1.838v-9.422l-10.451.051v9.371l3.133-1.838c1.291-.757 2.893-.757 4.186 0zm38.026-7.753v63.822l63.699-.206v-9.879c-.326-1.446-.586-2.908-.774-4.38l-17.213-10.968c-1.361-.866-2.093-2.445-1.876-4.044 1.069-7.868 3.506-15.386 7.243-22.341.762-1.421 2.277-2.285 3.896-2.17l8.725.532v-10.677l-18.352.089v17.034c0 1.483-.794 2.853-2.081 3.59-.637.365-1.347.547-2.055.547-.725 0-1.448-.19-2.094-.57l-7.267-4.265-7.27 4.266c-1.278.75-2.861.761-4.147.021-1.288-.736-2.081-2.105-2.081-3.589v-16.902zm29.758 7.753c1.293-.758 2.895-.759 4.187.001l3.131 1.836v-9.77l-10.45.05v9.721zm-101.729-80.052v64.377l63.699-.309v-64.068h-18.352v17.144c0 1.483-.793 2.853-2.081 3.59-.636.364-1.346.546-2.055.546-.724 0-1.448-.189-2.093-.569l-7.269-4.266-7.268 4.266c-1.276.752-2.862.761-4.148.023-1.287-.737-2.081-2.106-2.081-3.59v-17.144zm29.758 8.082c1.292-.76 2.894-.76 4.187 0l3.132 1.838v-9.92h-10.451v9.92zm190.434 110.817c-.501 6.044-2.341 11.719-5.466 16.866-.67 1.104-.786 2.46-.313 3.662l7.202 18.29c-3.743 3.574-7.903 6.608-12.416 9.055l-15.2-12.528c-.996-.82-2.317-1.133-3.573-.835-5.845 1.367-11.896 1.367-17.739 0-1.255-.297-2.579.015-3.574.835l-15.201 12.528c-4.51-2.444-8.67-5.478-12.417-9.053l7.205-18.292c.474-1.202.357-2.558-.313-3.662-3.126-5.147-4.966-10.822-5.466-16.866-.106-1.289-.809-2.453-1.899-3.146l-16.606-10.582c.923-5.083 2.509-9.98 4.734-14.615l19.67 1.201c1.29.086 2.54-.447 3.382-1.425 3.916-4.533 8.876-8.145 14.345-10.44 1.19-.501 2.079-1.527 2.403-2.777l4.924-19.038c5.157-.69 10.209-.69 15.367 0l4.925 19.038c.323 1.25 1.212 2.276 2.402 2.777 5.467 2.295 10.428 5.906 14.345 10.44.844.978 2.094 1.512 3.383 1.425l19.669-1.201c2.226 4.635 3.813 9.532 4.735 14.615l-16.607 10.582c-1.092.693-1.794 1.857-1.901 3.146zm-38.636 20.406c13.039 0 23.647-10.608 23.647-23.646 0-13.039-10.608-23.647-23.647-23.647-13.04 0-23.648 10.608-23.648 23.647-.001 13.038 10.608 23.646 23.648 23.646zm182.914-206.703-7.387 18.494c-.475 1.188-.373 2.529.276 3.632 3.815 6.479 6.705 13.442 8.589 20.694.321 1.237 1.197 2.256 2.371 2.761l18.285 7.851c.323 3.286.486 6.584.486 9.833 0 3.242-.163 6.537-.486 9.826l-18.285 7.85c-1.174.505-2.05 1.523-2.371 2.761-1.884 7.253-4.773 14.216-8.589 20.694-.649 1.103-.751 2.443-.276 3.632l7.387 18.494c-4.166 5.076-8.825 9.736-13.898 13.899l-18.492-7.386c-1.188-.475-2.528-.374-3.63.275-6.494 3.817-13.455 6.704-20.691 8.579-1.238.321-2.259 1.197-2.764 2.372l-7.852 18.294c-6.593.646-13.079.645-19.659 0l-7.852-18.294c-.505-1.175-1.525-2.051-2.764-2.372-7.241-1.876-14.203-4.763-20.691-8.578-1.104-.65-2.445-.751-3.631-.276l-18.496 7.386c-5.07-4.16-9.731-8.821-13.898-13.899l7.386-18.494c.475-1.188.372-2.527-.275-3.63-3.816-6.49-6.704-13.454-8.584-20.695-.322-1.238-1.198-2.257-2.372-2.762l-18.286-7.851c-.322-3.271-.485-6.566-.485-9.825 0-3.266.163-6.563.484-9.832l18.287-7.852c1.174-.505 2.05-1.523 2.372-2.762 1.879-7.24 4.768-14.204 8.584-20.695.647-1.103.75-2.442.275-3.63l-7.386-18.493c4.17-5.079 8.829-9.74 13.898-13.898l18.496 7.385c1.186.472 2.526.374 3.631-.276 6.484-3.813 13.447-6.704 20.695-8.588 1.236-.321 2.255-1.196 2.76-2.371l7.851-18.285c6.568-.646 13.078-.646 19.66 0l7.852 18.285c.505 1.175 1.523 2.05 2.76 2.371 7.242 1.883 14.205 4.773 20.695 8.589 1.102.648 2.442.747 3.63.275l18.492-7.385c5.071 4.161 9.731 8.822 13.898 13.897zm-11.331 63.262c0-36.296-29.529-65.826-65.826-65.826-36.296 0-65.825 29.53-65.825 65.826 0 36.295 29.529 65.824 65.825 65.824 36.297 0 65.826-29.529 65.826-65.824z" display="inline"/></g><g id="Outline"><path d="m491.341 481.062h-51.688v-125.332l8.589 3.431c1.32.527 2.825.313 3.947-.563 6.712-5.247 12.776-11.313 18.027-18.027.877-1.122 1.092-2.625.563-3.947l-7.291-18.256c3.26-5.837 5.826-12.022 7.651-18.437l18.054-7.751c1.31-.563 2.221-1.779 2.393-3.194.516-4.249.777-8.535.777-12.739 0-4.215-.262-8.504-.777-12.747-.172-1.415-1.083-2.631-2.393-3.193l-18.054-7.752c-1.825-6.413-4.392-12.599-7.651-18.436l7.291-18.255c.528-1.322.313-2.825-.563-3.947-5.253-6.718-11.318-12.783-18.028-18.027-1.123-.877-2.626-1.091-3.946-.563l-8.589 3.43v-35.98l36.39 24.522c.686.462 1.463.683 2.231.683 1.286 0 2.549-.618 3.321-1.765l13.063-19.385c.593-.88.812-1.959.608-3-.202-1.042-.811-1.96-1.69-2.553l-235.341-158.596c-1.352-.91-3.119-.91-4.471 0l-235.34 158.594c-.88.593-1.488 1.511-1.69 2.553-.203 1.041.016 2.12.608 3l13.063 19.385c1.233 1.831 3.719 2.315 5.553 1.082l36.39-24.522v320.287h-51.689c-2.209 0-4 1.791-4 4v22.938c0 2.209 1.791 4 4 4h470.682c2.209 0 4-1.791 4-4v-22.938c0-2.209-1.791-4-4-4zm-4 22.938h-462.682v-14.938h462.682zm-231.341-495.177 229.788 154.854-8.593 12.75-39.305-26.487c-.002-.001-.003-.002-.004-.002l-179.651-121.067c-.676-.455-1.455-.683-2.235-.683s-1.56.228-2.235.683l-179.652 121.067c-.001 0-.002.001-.004.002l-39.305 26.487-8.593-12.75zm0 28.189 175.652 118.371v44.567l-1.666.665c-5.842-3.259-12.027-5.825-18.432-7.649l-1.547-3.603v-10.607c0-2.209-1.791-4-4-4h-2.285c-.59-1.224-1.758-2.072-3.115-2.237-8.504-1.032-17.004-1.03-25.488 0-1.355.165-2.523 1.014-3.114 2.237h-266.013c-2.209 0-4 1.791-4 4v302.306h-21.644v-325.679zm199.342 195.934c-.459 1.149-.36 2.446.268 3.513 3.689 6.267 6.484 13.001 8.307 20.015.311 1.196 1.157 2.182 2.293 2.67l17.685 7.593c.313 3.178.47 6.367.47 9.51 0 3.136-.157 6.322-.47 9.503l-17.685 7.592c-1.136.488-1.982 1.474-2.293 2.67-1.822 7.015-4.617 13.749-8.307 20.015-.628 1.066-.727 2.363-.268 3.513l7.144 17.887c-4.028 4.909-8.535 9.416-13.441 13.442l-17.885-7.144c-1.148-.459-2.445-.361-3.511.267-6.28 3.692-13.013 6.484-20.011 8.298-1.198.311-2.185 1.157-2.673 2.294l-7.594 17.692c-6.376.624-12.649.623-19.014 0l-7.594-17.692c-.488-1.137-1.475-1.983-2.673-2.294-7.003-1.814-13.736-4.606-20.011-8.297-1.068-.629-2.365-.727-3.512-.268l-17.889 7.144c-4.903-4.023-9.411-8.531-13.441-13.442l7.143-17.887c.459-1.148.36-2.444-.267-3.511-3.69-6.277-6.483-13.012-8.302-20.016-.312-1.197-1.158-2.183-2.294-2.671l-17.686-7.593c-.312-3.164-.469-6.351-.469-9.502 0-3.158.157-6.348.468-9.509l17.687-7.594c1.136-.488 1.982-1.474 2.294-2.671 1.817-7.003 4.611-13.737 8.302-20.016.627-1.066.726-2.362.267-3.511l-7.143-17.885c4.032-4.913 8.539-9.421 13.441-13.442l17.889 7.143c1.146.456 2.443.361 3.512-.268 6.271-3.688 13.005-6.483 20.015-8.306 1.196-.311 2.181-1.157 2.669-2.293l7.593-17.685c6.353-.624 12.648-.624 19.015 0l7.594 17.685c.488 1.136 1.473 1.982 2.669 2.293 7.004 1.821 13.738 4.616 20.015 8.307 1.065.627 2.362.723 3.511.267l17.885-7.143c4.904 4.024 9.412 8.532 13.441 13.441zm-113.061-33.712-14.799-5.909c-1.323-.526-2.824-.313-3.946.563-2.169 1.694-4.263 3.484-6.291 5.346h-207.253v-16.479h258.565l-4.384 10.21c-5.472 1.558-10.777 3.661-15.846 6.269zm-37.337 16.629 3.135 7.851h-198.087v-16.479h199.406c-1.34 1.523-2.64 3.082-3.891 4.682-.876 1.12-1.091 2.624-.563 3.946zm7.29 18.256c-2.514 4.507-4.609 9.217-6.274 14.073h-195.968v-16.479h201.281zm-166.384 46.124v9.594l-3.029-1.777c-1.25-.734-2.799-.734-4.049 0l-3.029 1.777v-9.594zm-16.095 20.052c1.244.713 2.777.705 4.012-.022l7.029-4.125 7.029 4.125c.624.367 1.324.551 2.024.551.686 0 1.372-.176 1.987-.528 1.245-.713 2.013-2.037 2.013-3.472v-16.58h17.748v61.963l-61.605.299v-62.262h17.75v16.58c0 1.434.768 2.758 2.013 3.471zm5.987 50.085 10.107-.049v9.112l-3.029-1.778c-1.25-.732-2.799-.732-4.049 0l-3.029 1.778zm-25.75.125 17.75-.086v16.01c0 1.435.768 2.759 2.013 3.472 1.244.713 2.775.703 4.012-.021l7.029-4.126 7.029 4.126c.625.366 1.324.55 2.024.55.686 0 1.372-.176 1.987-.528 1.245-.713 2.013-2.037 2.013-3.472v-16.137l17.748-.086v61.712l-61.605.199zm105.463-.512v9.449l-3.028-1.776c-1.25-.734-2.799-.733-4.049-.001l-3.03 1.778v-9.401zm-16.095 19.906c1.244.715 2.775.704 4.012-.021l7.03-4.126 7.028 4.125c.624.367 1.324.551 2.024.551.686 0 1.372-.176 1.987-.528 1.245-.713 2.013-2.037 2.013-3.472v-16.475l17.749-.086v10.325l-8.438-.515c-1.564-.111-3.03.725-3.768 2.099-3.614 6.727-5.971 13.997-7.005 21.607-.21 1.546.498 3.073 1.814 3.911l16.647 10.607c.182 1.423.434 2.837.749 4.235v9.555l-61.606.199v-61.726l17.75-.086v16.348c.002 1.437.769 2.762 2.014 3.473zm118.302 41.649c-.648 1.068-.761 2.379-.303 3.542l6.966 17.688c-3.62 3.457-7.644 6.392-12.008 8.758l-14.701-12.117c-.963-.793-2.241-1.096-3.456-.808-5.652 1.322-11.504 1.322-17.156 0-1.214-.287-2.494.015-3.456.808l-14.702 12.117c-4.361-2.364-8.385-5.298-12.009-8.756l6.968-17.69c.458-1.163.346-2.474-.303-3.542-3.023-4.979-4.803-10.467-5.286-16.313-.104-1.246-.782-2.372-1.837-3.043l-16.062-10.234c.893-4.916 2.427-9.652 4.579-14.135l19.023 1.162c1.248.083 2.457-.433 3.271-1.378 3.787-4.385 8.584-7.877 13.873-10.098 1.151-.484 2.011-1.478 2.324-2.687l4.762-18.412c4.988-.668 9.874-.668 14.862 0l4.764 18.412c.313 1.209 1.172 2.202 2.323 2.687 5.287 2.22 10.085 5.712 13.873 10.098.816.945 2.025 1.462 3.271 1.378l19.023-1.162c2.152 4.482 3.687 9.219 4.579 14.135l-16.062 10.234c-1.054.671-1.733 1.797-1.837 3.043-.481 5.846-2.26 11.334-5.283 16.313zm-112.314 8.261 10.107-.032v9.272l-3.028-1.777c-1.249-.732-2.798-.732-4.049 0l-3.03 1.778zm-69.606.224 10.107-.032v9.048l-3.029-1.777c-1.25-.732-2.799-.732-4.049 0l-3.029 1.777zm-25.75.084 17.75-.058v15.975c0 1.435.768 2.759 2.013 3.471 1.244.715 2.775.705 4.012-.021l7.029-4.125 7.029 4.125c.625.366 1.324.55 2.024.55.686 0 1.372-.176 1.987-.529 1.245-.712 2.013-2.036 2.013-3.471v-16.06l17.748-.057v61.144h-61.605zm69.606-.224 17.75-.059v16.2c0 1.434.768 2.759 2.012 3.471 1.246.715 2.776.705 4.013-.021l7.03-4.125 7.028 4.125c.625.366 1.324.55 2.024.55.686 0 1.372-.176 1.987-.529 1.245-.712 2.013-2.036 2.013-3.471v-16.284l17.749-.057v5.559l-2.772 7.039c-.572 1.454-.246 3.108.836 4.235.633.659 1.279 1.302 1.937 1.933v42.603h-61.606v-61.169zm69.606 25.081c2.675 1.847 5.478 3.499 8.413 4.921 1.407.682 3.083.481 4.288-.513l14.319-11.802 1.219-.716c2.094.382 4.205.614 6.32.699l3.272 1.921c1.237.726 2.769.735 4.012.021.96-.549 1.632-1.464 1.892-2.512.357-.059.717-.109 1.074-.177l15.245 12.565c.461.38.994.63 1.552.773v30.906h-61.606zm69.607 2.049c4.777-2.897 9.164-6.41 13.085-10.5 1.081-1.127 1.407-2.781.835-4.234l-7.222-18.339c2.704-4.947 4.479-10.427 5.2-16.047l16.647-10.607c1.316-.838 2.024-2.365 1.814-3.911-1.034-7.61-3.391-14.881-7.005-21.607-.739-1.375-2.198-2.209-3.768-2.099l-19.722 1.204c-3.894-4.123-8.551-7.512-13.638-9.926l-4.939-19.093c-.392-1.514-1.63-2.661-3.169-2.936-7.585-1.354-15.115-1.353-22.698 0-1.54.274-2.777 1.422-3.17 2.936l-4.938 19.093c-5.089 2.414-9.745 5.804-13.638 9.926l-3.283-.2v-14.834c0-1.064-.424-2.085-1.179-2.835-.755-.751-1.787-1.196-2.841-1.165l-65.587.318v-65.924c0-2.209-1.791-4-4-4h-65.605v-16.051h186.121l-9.579 4.113c-1.309.563-2.22 1.777-2.393 3.19-.516 4.22-.777 8.51-.777 12.75 0 4.229.262 8.517.777 12.742.173 1.414 1.084 2.629 2.393 3.191l18.054 7.751c1.821 6.406 4.387 12.591 7.646 18.435l-7.29 18.258c-.528 1.322-.313 2.826.563 3.947 5.255 6.72 11.32 12.784 18.028 18.027 1.122.877 2.625 1.091 3.946.563l18.258-7.291c5.844 3.26 12.028 5.824 18.435 7.644l7.751 18.06c.563 1.311 1.779 2.223 3.194 2.394 4.254.516 8.542.777 12.745.777 4.197 0 8.484-.262 12.741-.777.499-.061.972-.217 1.401-.446v101.541h-83.197v-34.038zm91.197 34.039v-117.947l1.546-3.602c6.402-1.818 12.587-4.383 18.433-7.644l1.666.665v128.526h-21.645z"/><path d="m285.582 414.972c12.61 0 22.87-10.26 22.87-22.87s-10.26-22.87-22.87-22.87c-12.611 0-22.871 10.26-22.871 22.87s10.26 22.87 22.871 22.87zm0-37.741c8.199 0 14.87 6.671 14.87 14.87s-6.671 14.87-14.87 14.87c-8.2 0-14.871-6.671-14.871-14.87s6.671-14.87 14.871-14.87z"/><path d="m387.864 212.58c-35.104 0-63.663 28.56-63.663 63.663s28.56 63.661 63.663 63.661 63.663-28.559 63.663-63.661c0-35.103-28.559-63.663-63.663-63.663zm-51.912 43.612h66.056v73.886c-4.519 1.188-9.258 1.826-14.144 1.826-30.692 0-55.663-24.97-55.663-55.661 0-7.067 1.338-13.825 3.751-20.051zm18.552-24.478h47.504v16.479h-62.191c3.761-6.421 8.762-12.029 14.687-16.479zm47.504-8h-32.528c5.76-2.021 11.943-3.134 18.384-3.134 4.886 0 9.625.639 14.144 1.826zm8 1.473c8.539 3.718 15.963 9.518 21.645 16.753v68.605c-5.682 7.235-13.105 13.035-21.645 16.753zm29.644 30.692c2.491 6.313 3.875 13.178 3.875 20.364s-1.384 14.052-3.875 20.363z"/></g><g id="Gradient" display="none"><path d="m491.341 481.062h-51.688v-125.332l8.589 3.431c1.32.527 2.825.313 3.947-.563 6.712-5.247 12.776-11.313 18.027-18.027.877-1.122 1.092-2.625.563-3.947l-7.291-18.256c3.26-5.837 5.826-12.022 7.651-18.437l18.054-7.751c1.31-.563 2.221-1.779 2.393-3.194.516-4.249.777-8.535.777-12.739 0-4.215-.262-8.504-.777-12.747-.172-1.415-1.083-2.631-2.393-3.193l-18.054-7.752c-1.825-6.413-4.392-12.599-7.651-18.436l7.291-18.255c.528-1.322.313-2.825-.563-3.947-5.253-6.718-11.318-12.783-18.028-18.027-1.123-.877-2.626-1.091-3.946-.563l-8.589 3.43v-35.98l36.39 24.522c.686.462 1.463.683 2.231.683 1.286 0 2.549-.618 3.321-1.765l13.063-19.385c.593-.88.812-1.959.608-3-.202-1.042-.811-1.96-1.69-2.553l-235.341-158.596c-1.352-.91-3.119-.91-4.471 0l-235.34 158.594c-.88.593-1.488 1.511-1.69 2.553-.203 1.041.016 2.12.608 3l13.063 19.385c1.233 1.831 3.719 2.315 5.553 1.082l36.39-24.522v320.287h-51.689c-2.209 0-4 1.791-4 4v22.938c0 2.209 1.791 4 4 4h470.682c2.209 0 4-1.791 4-4v-22.938c0-2.209-1.791-4-4-4zm-4 22.938h-462.682v-14.938h462.682zm-231.341-495.177 229.788 154.854-8.593 12.75-39.305-26.487c-.002-.001-.003-.002-.004-.002l-179.651-121.067c-.676-.455-1.455-.683-2.235-.683s-1.56.228-2.235.683l-179.652 121.067c-.001 0-.002.001-.004.002l-39.305 26.487-8.593-12.75zm0 28.189 175.652 118.371v44.567l-1.666.665c-5.842-3.259-12.027-5.825-18.432-7.649l-1.547-3.603v-10.607c0-2.209-1.791-4-4-4h-2.285c-.59-1.224-1.758-2.072-3.115-2.237-8.504-1.032-17.004-1.03-25.488 0-1.355.165-2.523 1.014-3.114 2.237h-266.013c-2.209 0-4 1.791-4 4v302.306h-21.644v-325.679zm199.342 195.934c-.459 1.149-.36 2.446.268 3.513 3.689 6.267 6.484 13.001 8.307 20.015.311 1.196 1.157 2.182 2.293 2.67l17.685 7.593c.313 3.178.47 6.367.47 9.51 0 3.136-.157 6.322-.47 9.503l-17.685 7.592c-1.136.488-1.982 1.474-2.293 2.67-1.822 7.015-4.617 13.749-8.307 20.015-.628 1.066-.727 2.363-.268 3.513l7.144 17.887c-4.028 4.909-8.535 9.416-13.441 13.442l-17.885-7.144c-1.148-.459-2.445-.361-3.511.267-6.28 3.692-13.013 6.484-20.011 8.298-1.198.311-2.185 1.157-2.673 2.294l-7.594 17.692c-6.376.624-12.649.623-19.014 0l-7.594-17.692c-.488-1.137-1.475-1.983-2.673-2.294-7.003-1.814-13.736-4.606-20.011-8.297-1.068-.629-2.365-.727-3.512-.268l-17.889 7.144c-4.903-4.023-9.411-8.531-13.441-13.442l7.143-17.887c.459-1.148.36-2.444-.267-3.511-3.69-6.277-6.483-13.012-8.302-20.016-.312-1.197-1.158-2.183-2.294-2.671l-17.686-7.593c-.312-3.164-.469-6.351-.469-9.502 0-3.158.157-6.348.468-9.509l17.687-7.594c1.136-.488 1.982-1.474 2.294-2.671 1.817-7.003 4.611-13.737 8.302-20.016.627-1.066.726-2.362.267-3.511l-7.143-17.885c4.032-4.913 8.539-9.421 13.441-13.442l17.889 7.143c1.146.456 2.443.361 3.512-.268 6.271-3.688 13.005-6.483 20.015-8.306 1.196-.311 2.181-1.157 2.669-2.293l7.593-17.685c6.353-.624 12.648-.624 19.015 0l7.594 17.685c.488 1.136 1.473 1.982 2.669 2.293 7.004 1.821 13.738 4.616 20.015 8.307 1.065.627 2.362.723 3.511.267l17.885-7.143c4.904 4.024 9.412 8.532 13.441 13.441zm-113.061-33.712-14.799-5.909c-1.323-.526-2.824-.313-3.946.563-2.169 1.694-4.263 3.484-6.291 5.346h-207.253v-16.479h258.565l-4.384 10.21c-5.472 1.558-10.777 3.661-15.846 6.269zm-37.337 16.629 3.135 7.851h-198.087v-16.479h199.406c-1.34 1.523-2.64 3.082-3.891 4.682-.876 1.12-1.091 2.624-.563 3.946zm7.29 18.256c-2.514 4.507-4.609 9.217-6.274 14.073h-195.968v-16.479h201.281zm-166.384 46.124v9.594l-3.029-1.777c-1.25-.734-2.799-.734-4.049 0l-3.029 1.777v-9.594zm-16.095 20.052c1.244.713 2.777.705 4.012-.022l7.029-4.125 7.029 4.125c.624.367 1.324.551 2.024.551.686 0 1.372-.176 1.987-.528 1.245-.713 2.013-2.037 2.013-3.472v-16.58h17.748v61.963l-61.605.299v-62.262h17.75v16.58c0 1.434.768 2.758 2.013 3.471zm5.987 50.085 10.107-.049v9.112l-3.029-1.778c-1.25-.732-2.799-.732-4.049 0l-3.029 1.778zm-25.75.125 17.75-.086v16.01c0 1.435.768 2.759 2.013 3.472 1.244.713 2.775.703 4.012-.021l7.029-4.126 7.029 4.126c.625.366 1.324.55 2.024.55.686 0 1.372-.176 1.987-.528 1.245-.713 2.013-2.037 2.013-3.472v-16.137l17.748-.086v61.712l-61.605.199zm105.463-.512v9.449l-3.028-1.776c-1.25-.734-2.799-.733-4.049-.001l-3.03 1.778v-9.401zm-16.095 19.906c1.244.715 2.775.704 4.012-.021l7.03-4.126 7.028 4.125c.624.367 1.324.551 2.024.551.686 0 1.372-.176 1.987-.528 1.245-.713 2.013-2.037 2.013-3.472v-16.475l17.749-.086v10.325l-8.438-.515c-1.564-.111-3.03.725-3.768 2.099-3.614 6.727-5.971 13.997-7.005 21.607-.21 1.546.498 3.073 1.814 3.911l16.647 10.607c.182 1.423.434 2.837.749 4.235v9.555l-61.606.199v-61.726l17.75-.086v16.348c.002 1.437.769 2.762 2.014 3.473zm118.302 41.649c-.648 1.068-.761 2.379-.303 3.542l6.966 17.688c-3.62 3.457-7.644 6.392-12.008 8.758l-14.701-12.117c-.963-.793-2.241-1.096-3.456-.808-5.652 1.322-11.504 1.322-17.156 0-1.214-.287-2.494.015-3.456.808l-14.702 12.117c-4.361-2.364-8.385-5.298-12.009-8.756l6.968-17.69c.458-1.163.346-2.474-.303-3.542-3.023-4.979-4.803-10.467-5.286-16.313-.104-1.246-.782-2.372-1.837-3.043l-16.062-10.234c.893-4.916 2.427-9.652 4.579-14.135l19.023 1.162c1.248.083 2.457-.433 3.271-1.378 3.787-4.385 8.584-7.877 13.873-10.098 1.151-.484 2.011-1.478 2.324-2.687l4.762-18.412c4.988-.668 9.874-.668 14.862 0l4.764 18.412c.313 1.209 1.172 2.202 2.323 2.687 5.287 2.22 10.085 5.712 13.873 10.098.816.945 2.025 1.462 3.271 1.378l19.023-1.162c2.152 4.482 3.687 9.219 4.579 14.135l-16.062 10.234c-1.054.671-1.733 1.797-1.837 3.043-.481 5.846-2.26 11.334-5.283 16.313zm-112.314 8.261 10.107-.032v9.272l-3.028-1.777c-1.249-.732-2.798-.732-4.049 0l-3.03 1.778zm-69.606.224 10.107-.032v9.048l-3.029-1.777c-1.25-.732-2.799-.732-4.049 0l-3.029 1.777zm-25.75.084 17.75-.058v15.975c0 1.435.768 2.759 2.013 3.471 1.244.715 2.775.705 4.012-.021l7.029-4.125 7.029 4.125c.625.366 1.324.55 2.024.55.686 0 1.372-.176 1.987-.529 1.245-.712 2.013-2.036 2.013-3.471v-16.06l17.748-.057v61.144h-61.605zm69.606-.224 17.75-.059v16.2c0 1.434.768 2.759 2.012 3.471 1.246.715 2.776.705 4.013-.021l7.03-4.125 7.028 4.125c.625.366 1.324.55 2.024.55.686 0 1.372-.176 1.987-.529 1.245-.712 2.013-2.036 2.013-3.471v-16.284l17.749-.057v5.559l-2.772 7.039c-.572 1.454-.246 3.108.836 4.235.633.659 1.279 1.302 1.937 1.933v42.603h-61.606v-61.169zm69.606 25.081c2.675 1.847 5.478 3.499 8.413 4.921 1.407.682 3.083.481 4.288-.513l14.319-11.802 1.219-.716c2.094.382 4.205.614 6.32.699l3.272 1.921c1.237.726 2.769.735 4.012.021.96-.549 1.632-1.464 1.892-2.512.357-.059.717-.109 1.074-.177l15.245 12.565c.461.38.994.63 1.552.773v30.906h-61.606zm69.607 2.049c4.777-2.897 9.164-6.41 13.085-10.5 1.081-1.127 1.407-2.781.835-4.234l-7.222-18.339c2.704-4.947 4.479-10.427 5.2-16.047l16.647-10.607c1.316-.838 2.024-2.365 1.814-3.911-1.034-7.61-3.391-14.881-7.005-21.607-.739-1.375-2.198-2.209-3.768-2.099l-19.722 1.204c-3.894-4.123-8.551-7.512-13.638-9.926l-4.939-19.093c-.392-1.514-1.63-2.661-3.169-2.936-7.585-1.354-15.115-1.353-22.698 0-1.54.274-2.777 1.422-3.17 2.936l-4.938 19.093c-5.089 2.414-9.745 5.804-13.638 9.926l-3.283-.2v-14.834c0-1.064-.424-2.085-1.179-2.835-.755-.751-1.787-1.196-2.841-1.165l-65.587.318v-65.924c0-2.209-1.791-4-4-4h-65.605v-16.051h186.121l-9.579 4.113c-1.309.563-2.22 1.777-2.393 3.19-.516 4.22-.777 8.51-.777 12.75 0 4.229.262 8.517.777 12.742.173 1.414 1.084 2.629 2.393 3.191l18.054 7.751c1.821 6.406 4.387 12.591 7.646 18.435l-7.29 18.258c-.528 1.322-.313 2.826.563 3.947 5.255 6.72 11.32 12.784 18.028 18.027 1.122.877 2.625 1.091 3.946.563l18.258-7.291c5.844 3.26 12.028 5.824 18.435 7.644l7.751 18.06c.563 1.311 1.779 2.223 3.194 2.394 4.254.516 8.542.777 12.745.777 4.197 0 8.484-.262 12.741-.777.499-.061.972-.217 1.401-.446v101.541h-83.197v-34.038zm91.197 34.039v-117.947l1.546-3.602c6.402-1.818 12.587-4.383 18.433-7.644l1.666.665v128.526h-21.645zm-124.426-66.09c12.61 0 22.87-10.26 22.87-22.87s-10.26-22.87-22.87-22.87c-12.611 0-22.871 10.26-22.871 22.87s10.26 22.87 22.871 22.87zm0-37.741c8.199 0 14.87 6.671 14.87 14.87s-6.671 14.87-14.87 14.87c-8.2 0-14.871-6.671-14.871-14.87s6.671-14.87 14.871-14.87zm102.282-164.651c-35.104 0-63.663 28.56-63.663 63.663s28.56 63.661 63.663 63.661 63.663-28.559 63.663-63.661c0-35.103-28.559-63.663-63.663-63.663zm-51.912 43.612h66.056v73.886c-4.519 1.188-9.258 1.826-14.144 1.826-30.692 0-55.663-24.97-55.663-55.661 0-7.067 1.338-13.825 3.751-20.051zm18.552-24.478h47.504v16.479h-62.191c3.761-6.421 8.762-12.029 14.687-16.479zm47.504-8h-32.528c5.76-2.021 11.943-3.134 18.384-3.134 4.886 0 9.625.639 14.144 1.826zm8 1.473c8.539 3.718 15.963 9.518 21.645 16.753v68.605c-5.682 7.235-13.105 13.035-21.645 16.753zm29.644 30.692c2.491 6.313 3.875 13.178 3.875 20.364s-1.384 14.052-3.875 20.363z" display="inline" fill="url(#SVGID_1_)"/></g><g id="Outline_Blue" display="none"><path d="m491.341 481.062h-51.688v-125.332l8.589 3.431c1.32.527 2.825.313 3.947-.563 6.712-5.247 12.776-11.313 18.027-18.027.877-1.122 1.092-2.625.563-3.947l-7.291-18.256c3.26-5.837 5.826-12.022 7.651-18.437l18.054-7.751c1.31-.563 2.221-1.779 2.393-3.194.516-4.249.777-8.535.777-12.739 0-4.215-.262-8.504-.777-12.747-.172-1.415-1.083-2.631-2.393-3.193l-18.054-7.752c-1.825-6.413-4.392-12.599-7.651-18.436l7.291-18.255c.528-1.322.313-2.825-.563-3.947-5.253-6.718-11.318-12.783-18.028-18.027-1.123-.877-2.626-1.091-3.946-.563l-8.589 3.43v-35.98l36.39 24.522c.686.462 1.463.683 2.231.683 1.286 0 2.549-.618 3.321-1.765l13.063-19.385c.593-.88.812-1.959.608-3-.202-1.042-.811-1.96-1.69-2.553l-235.341-158.596c-1.352-.91-3.119-.91-4.471 0l-235.34 158.594c-.88.593-1.488 1.511-1.69 2.553-.203 1.041.016 2.12.608 3l13.063 19.385c1.233 1.831 3.719 2.315 5.553 1.082l36.39-24.522v320.287h-51.689c-2.209 0-4 1.791-4 4v22.938c0 2.209 1.791 4 4 4h470.682c2.209 0 4-1.791 4-4v-22.938c0-2.209-1.791-4-4-4zm-4 22.938h-462.682v-14.938h462.682zm-231.341-495.177 229.788 154.854-8.593 12.75-39.305-26.487c-.002-.001-.003-.002-.004-.002l-179.651-121.067c-.676-.455-1.455-.683-2.235-.683s-1.56.228-2.235.683l-179.652 121.067c-.001 0-.002.001-.004.002l-39.305 26.487-8.593-12.75zm0 28.189 175.652 118.371v44.567l-1.666.665c-5.842-3.259-12.027-5.825-18.432-7.649l-1.547-3.603v-10.607c0-2.209-1.791-4-4-4h-2.285c-.59-1.224-1.758-2.072-3.115-2.237-8.504-1.032-17.004-1.03-25.488 0-1.355.165-2.523 1.014-3.114 2.237h-266.013c-2.209 0-4 1.791-4 4v302.306h-21.644v-325.679zm199.342 195.934c-.459 1.149-.36 2.446.268 3.513 3.689 6.267 6.484 13.001 8.307 20.015.311 1.196 1.157 2.182 2.293 2.67l17.685 7.593c.313 3.178.47 6.367.47 9.51 0 3.136-.157 6.322-.47 9.503l-17.685 7.592c-1.136.488-1.982 1.474-2.293 2.67-1.822 7.015-4.617 13.749-8.307 20.015-.628 1.066-.727 2.363-.268 3.513l7.144 17.887c-4.028 4.909-8.535 9.416-13.441 13.442l-17.885-7.144c-1.148-.459-2.445-.361-3.511.267-6.28 3.692-13.013 6.484-20.011 8.298-1.198.311-2.185 1.157-2.673 2.294l-7.594 17.692c-6.376.624-12.649.623-19.014 0l-7.594-17.692c-.488-1.137-1.475-1.983-2.673-2.294-7.003-1.814-13.736-4.606-20.011-8.297-1.068-.629-2.365-.727-3.512-.268l-17.889 7.144c-4.903-4.023-9.411-8.531-13.441-13.442l7.143-17.887c.459-1.148.36-2.444-.267-3.511-3.69-6.277-6.483-13.012-8.302-20.016-.312-1.197-1.158-2.183-2.294-2.671l-17.686-7.593c-.312-3.164-.469-6.351-.469-9.502 0-3.158.157-6.348.468-9.509l17.687-7.594c1.136-.488 1.982-1.474 2.294-2.671 1.817-7.003 4.611-13.737 8.302-20.016.627-1.066.726-2.362.267-3.511l-7.143-17.885c4.032-4.913 8.539-9.421 13.441-13.442l17.889 7.143c1.146.456 2.443.361 3.512-.268 6.271-3.688 13.005-6.483 20.015-8.306 1.196-.311 2.181-1.157 2.669-2.293l7.593-17.685c6.353-.624 12.648-.624 19.015 0l7.594 17.685c.488 1.136 1.473 1.982 2.669 2.293 7.004 1.821 13.738 4.616 20.015 8.307 1.065.627 2.362.723 3.511.267l17.885-7.143c4.904 4.024 9.412 8.532 13.441 13.441zm-113.061-33.712-14.799-5.909c-1.323-.526-2.824-.313-3.946.563-2.169 1.694-4.263 3.484-6.291 5.346h-207.253v-16.479h258.565l-4.384 10.21c-5.472 1.558-10.777 3.661-15.846 6.269zm-37.337 16.629 3.135 7.851h-198.087v-16.479h199.406c-1.34 1.523-2.64 3.082-3.891 4.682-.876 1.12-1.091 2.624-.563 3.946zm7.29 18.256c-2.514 4.507-4.609 9.217-6.274 14.073h-195.968v-16.479h201.281zm-166.384 46.124v9.594l-3.029-1.777c-1.25-.734-2.799-.734-4.049 0l-3.029 1.777v-9.594zm-16.095 20.052c1.244.713 2.777.705 4.012-.022l7.029-4.125 7.029 4.125c.624.367 1.324.551 2.024.551.686 0 1.372-.176 1.987-.528 1.245-.713 2.013-2.037 2.013-3.472v-16.58h17.748v61.963l-61.605.299v-62.262h17.75v16.58c0 1.434.768 2.758 2.013 3.471zm5.987 50.085 10.107-.049v9.112l-3.029-1.778c-1.25-.732-2.799-.732-4.049 0l-3.029 1.778zm-25.75.125 17.75-.086v16.01c0 1.435.768 2.759 2.013 3.472 1.244.713 2.775.703 4.012-.021l7.029-4.126 7.029 4.126c.625.366 1.324.55 2.024.55.686 0 1.372-.176 1.987-.528 1.245-.713 2.013-2.037 2.013-3.472v-16.137l17.748-.086v61.712l-61.605.199zm105.463-.512v9.449l-3.028-1.776c-1.25-.734-2.799-.733-4.049-.001l-3.03 1.778v-9.401zm-16.095 19.906c1.244.715 2.775.704 4.012-.021l7.03-4.126 7.028 4.125c.624.367 1.324.551 2.024.551.686 0 1.372-.176 1.987-.528 1.245-.713 2.013-2.037 2.013-3.472v-16.475l17.749-.086v10.325l-8.438-.515c-1.564-.111-3.03.725-3.768 2.099-3.614 6.727-5.971 13.997-7.005 21.607-.21 1.546.498 3.073 1.814 3.911l16.647 10.607c.182 1.423.434 2.837.749 4.235v9.555l-61.606.199v-61.726l17.75-.086v16.348c.002 1.437.769 2.762 2.014 3.473zm118.302 41.649c-.648 1.068-.761 2.379-.303 3.542l6.966 17.688c-3.62 3.457-7.644 6.392-12.008 8.758l-14.701-12.117c-.963-.793-2.241-1.096-3.456-.808-5.652 1.322-11.504 1.322-17.156 0-1.214-.287-2.494.015-3.456.808l-14.702 12.117c-4.361-2.364-8.385-5.298-12.009-8.756l6.968-17.69c.458-1.163.346-2.474-.303-3.542-3.023-4.979-4.803-10.467-5.286-16.313-.104-1.246-.782-2.372-1.837-3.043l-16.062-10.234c.893-4.916 2.427-9.652 4.579-14.135l19.023 1.162c1.248.083 2.457-.433 3.271-1.378 3.787-4.385 8.584-7.877 13.873-10.098 1.151-.484 2.011-1.478 2.324-2.687l4.762-18.412c4.988-.668 9.874-.668 14.862 0l4.764 18.412c.313 1.209 1.172 2.202 2.323 2.687 5.287 2.22 10.085 5.712 13.873 10.098.816.945 2.025 1.462 3.271 1.378l19.023-1.162c2.152 4.482 3.687 9.219 4.579 14.135l-16.062 10.234c-1.054.671-1.733 1.797-1.837 3.043-.481 5.846-2.26 11.334-5.283 16.313zm-112.314 8.261 10.107-.032v9.272l-3.028-1.777c-1.249-.732-2.798-.732-4.049 0l-3.03 1.778zm-69.606.224 10.107-.032v9.048l-3.029-1.777c-1.25-.732-2.799-.732-4.049 0l-3.029 1.777zm-25.75.084 17.75-.058v15.975c0 1.435.768 2.759 2.013 3.471 1.244.715 2.775.705 4.012-.021l7.029-4.125 7.029 4.125c.625.366 1.324.55 2.024.55.686 0 1.372-.176 1.987-.529 1.245-.712 2.013-2.036 2.013-3.471v-16.06l17.748-.057v61.144h-61.605zm69.606-.224 17.75-.059v16.2c0 1.434.768 2.759 2.012 3.471 1.246.715 2.776.705 4.013-.021l7.03-4.125 7.028 4.125c.625.366 1.324.55 2.024.55.686 0 1.372-.176 1.987-.529 1.245-.712 2.013-2.036 2.013-3.471v-16.284l17.749-.057v5.559l-2.772 7.039c-.572 1.454-.246 3.108.836 4.235.633.659 1.279 1.302 1.937 1.933v42.603h-61.606v-61.169zm69.606 25.081c2.675 1.847 5.478 3.499 8.413 4.921 1.407.682 3.083.481 4.288-.513l14.319-11.802 1.219-.716c2.094.382 4.205.614 6.32.699l3.272 1.921c1.237.726 2.769.735 4.012.021.96-.549 1.632-1.464 1.892-2.512.357-.059.717-.109 1.074-.177l15.245 12.565c.461.38.994.63 1.552.773v30.906h-61.606zm69.607 2.049c4.777-2.897 9.164-6.41 13.085-10.5 1.081-1.127 1.407-2.781.835-4.234l-7.222-18.339c2.704-4.947 4.479-10.427 5.2-16.047l16.647-10.607c1.316-.838 2.024-2.365 1.814-3.911-1.034-7.61-3.391-14.881-7.005-21.607-.739-1.375-2.198-2.209-3.768-2.099l-19.722 1.204c-3.894-4.123-8.551-7.512-13.638-9.926l-4.939-19.093c-.392-1.514-1.63-2.661-3.169-2.936-7.585-1.354-15.115-1.353-22.698 0-1.54.274-2.777 1.422-3.17 2.936l-4.938 19.093c-5.089 2.414-9.745 5.804-13.638 9.926l-3.283-.2v-14.834c0-1.064-.424-2.085-1.179-2.835-.755-.751-1.787-1.196-2.841-1.165l-65.587.318v-65.924c0-2.209-1.791-4-4-4h-65.605v-16.051h186.121l-9.579 4.113c-1.309.563-2.22 1.777-2.393 3.19-.516 4.22-.777 8.51-.777 12.75 0 4.229.262 8.517.777 12.742.173 1.414 1.084 2.629 2.393 3.191l18.054 7.751c1.821 6.406 4.387 12.591 7.646 18.435l-7.29 18.258c-.528 1.322-.313 2.826.563 3.947 5.255 6.72 11.32 12.784 18.028 18.027 1.122.877 2.625 1.091 3.946.563l18.258-7.291c5.844 3.26 12.028 5.824 18.435 7.644l7.751 18.06c.563 1.311 1.779 2.223 3.194 2.394 4.254.516 8.542.777 12.745.777 4.197 0 8.484-.262 12.741-.777.499-.061.972-.217 1.401-.446v101.541h-83.197v-34.038zm91.197 34.039v-117.947l1.546-3.602c6.402-1.818 12.587-4.383 18.433-7.644l1.666.665v128.526h-21.645z" display="inline"/><path d="m285.582 414.972c12.61 0 22.87-10.26 22.87-22.87s-10.26-22.87-22.87-22.87c-12.611 0-22.871 10.26-22.871 22.87s10.26 22.87 22.871 22.87zm0-37.741c8.199 0 14.87 6.671 14.87 14.87s-6.671 14.87-14.87 14.87c-8.2 0-14.871-6.671-14.871-14.87s6.671-14.87 14.871-14.87z" display="inline"/><path d="m387.864 212.58c-35.104 0-63.663 28.56-63.663 63.663s28.56 63.661 63.663 63.661 63.663-28.559 63.663-63.661c0-35.103-28.559-63.663-63.663-63.663zm-51.912 43.612h66.056v73.886c-4.519 1.188-9.258 1.826-14.144 1.826-30.692 0-55.663-24.97-55.663-55.661 0-7.067 1.338-13.825 3.751-20.051zm18.552-24.478h47.504v16.479h-62.191c3.761-6.421 8.762-12.029 14.687-16.479zm47.504-8h-32.528c5.76-2.021 11.943-3.134 18.384-3.134 4.886 0 9.625.639 14.144 1.826zm8 1.473c8.539 3.718 15.963 9.518 21.645 16.753v68.605c-5.682 7.235-13.105 13.035-21.645 16.753zm29.644 30.692c2.491 6.313 3.875 13.178 3.875 20.364s-1.384 14.052-3.875 20.363z" display="inline"/></g></svg>