<?xml version="1.0" encoding="utf-8"?>
<!-- Generator: Adobe Illustrator 23.1.0, SVG Export Plug-In . SVG Version: 6.00 Build 0)  -->
<svg version="1.1" id="Layer_1" xmlns="http://www.w3.org/2000/svg" xmlns:xlink="http://www.w3.org/1999/xlink" x="0px" y="0px"
	 viewBox="0 0 415 424.01" style="enable-background:new 0 0 415 424.01;" xml:space="preserve">
<style type="text/css">
	.st0{fill:#509643;}
	.st1{fill:#A3BF93;}
	.st2{fill:#9ACA3D;}
</style>
<g>
	<path class="st0" d="M395.72,234.57c-0.59,2.3-0.79,4.68-1.43,6.98c-1.83,6.48-5.34,12.04-9.33,17.35
		c-0.65,0.87-1.31,1.74-1.96,2.62c-2.33,2.31-4.77,4.48-7.51,6.32c-6.65,4.46-13.96,6.67-21.96,6.68c-10.01,0-20.01-0.53-30.02-0.33
		c-0.7,0.01-1.5,0.13-1.96-0.66c-10.78-18.75-21.56-37.5-32.34-56.25c-5.38-9.35-10.72-18.72-16.14-28.05
		c-0.6-1.04-0.45-1.4,0.55-1.98c25.57-14.71,51.11-29.45,76.65-44.21c0.88-0.51,1.27-0.58,1.85,0.43
		c12.95,22.73,25.97,45.42,38.92,68.15c2.56,4.5,3.71,9.48,4.38,14.58c0.07,0.5-0.12,1.06,0.31,1.48
		C395.72,229.97,395.72,232.27,395.72,234.57z"/>
	<path class="st1" d="M160.02,29.91c-0.05,0.1-0.05,0.2,0.02,0.29c-1.56,0.99-3.29,0.38-4.94,0.5c-0.79,0.06-1.66,0.16-2.32-0.52
		c0.04-0.09,0.05-0.18,0.03-0.28C155.22,29.91,157.62,29.91,160.02,29.91z"/>
	<path class="st2" d="M73.49,330.83c-3.08-5.73-6.19-11.45-9.25-17.2c-12.62-23.74-25.3-47.46-37.8-71.27
		c-4.98-9.49-4.96-19.09,0.59-28.48c7.44-12.56,14.86-25.14,22.33-37.68c0.62-1.05,0.49-1.49-0.54-2.1
		c-9.11-5.38-18.2-10.82-27.29-16.25c-0.43-0.26-0.95-0.4-1.33-1.04c0.57-0.04,1.05-0.1,1.54-0.1c28.73,0,57.46,0,86.19-0.02
		c1.03,0,1.7,0.23,2.28,1.17c15.95,25.89,31.94,51.75,47.91,77.63c0.23,0.37,0.63,0.69,0.54,1.42c-3.06-1.85-6.02-3.64-8.98-5.43
		c-7.98-4.84-15.97-9.67-23.93-14.54c-0.85-0.52-1.28-0.7-1.9,0.36c-10,17.35-20.05,34.66-30.08,51.99
		c-0.23,0.4-0.59,0.75-0.51,1.27c0.06,0.69-0.38,1.17-0.69,1.71c-5.14,8.89-10.31,17.77-15.46,26.66
		c-2.99,5.16-4.86,10.66-5.14,16.72c-0.21,4.54,0.45,8.92,1.51,13.28C73.64,329.55,74.08,330.2,73.49,330.83z"/>
	<path class="st2" d="M321.54,273.53c0.59,0.31,1.22,0.22,1.84,0.22c5.73,0.01,11.48-0.15,17.2,0.07c4.53,0.17,9.05,0.24,13.58,0.2
		c9.6-0.08,17.93-3.44,25.19-9.69c1.15-0.99,2.06-2.36,3.64-2.82c-4.41,7.02-8.8,14.06-13.22,21.07
		c-13.33,21.13-26.54,42.33-40.07,63.33c-5.42,8.41-13.55,12.95-23.65,13.03c-12.89,0.1-25.79-0.19-38.68-0.31
		c-2.03-0.02-4.07-0.04-6.1-0.14c-1.01-0.05-1.33,0.25-1.33,1.3c-0.05,5.58-0.22,11.17-0.27,16.75c-0.05,5.56-0.01,11.11-0.01,16.91
		c-1.04-0.47-1.17-1.07-1.43-1.53c-14.36-24.94-28.69-49.89-43.05-74.83c-0.44-0.77-0.47-1.33-0.04-2.12
		c14.5-26.82,28.97-53.65,43.44-80.48c0.19-0.36,0.41-0.7,0.82-1.41c0,2.89,0.05,5.38-0.01,7.88c-0.23,10.43-0.48,20.87-0.78,31.3
		c-0.03,1.1,0.47,1.15,1.31,1.15c6.84,0.01,13.68,0.05,20.52,0.09c13.1,0.08,26.21,0.18,39.31,0.25
		C320.33,273.74,320.98,273.94,321.54,273.53z"/>
	<path class="st2" d="M168.13,31.43c4.17,0,8.35-0.03,12.52,0c14.25,0.12,28.5,0.26,42.76,0.41c10.02,0.1,20.04,0.2,30.07,0.32
		c4.8,0.05,9.63-0.16,14.39,0.27c10.28,0.94,18.96,4.72,24.41,14.27c7.26,12.72,14.83,25.27,22.22,37.91c0.57,0.98,0.96,1,1.87,0.46
		c9.22-5.4,18.47-10.75,27.72-16.11c0.43-0.25,0.86-0.49,1.68-0.95c-2.03,3.69-3.84,7-5.67,10.31
		c-12.33,22.31-24.66,44.61-36.96,66.93c-0.51,0.93-1.05,1.29-2.14,1.34c-10.94,0.49-21.88,1.06-32.82,1.6
		c-12.87,0.63-25.74,1.26-38.61,1.89c-7.07,0.35-14.13,0.7-21.66,1.07c1.02-0.62,1.66-1.03,2.32-1.4
		c10.55-6.01,21.1-12.03,31.67-18.02c0.83-0.47,1.21-0.77,0.58-1.83c-10.33-17.45-20.61-34.93-30.91-52.4
		c-0.13-0.22-0.31-0.41-0.46-0.61c-0.97-0.46-1.32-1.45-1.84-2.27c-4.84-7.62-9.7-15.21-14.52-22.85c-1.98-3.13-3.88-6.29-6.47-9
		c-2.65-2.78-5.53-5.22-8.93-7.01c-3.1-1.63-6.22-3.2-9.8-3.5C169.02,32.23,168.21,32.35,168.13,31.43z"/>
	<path class="st0" d="M73.49,330.83c-0.5-2.64-1.26-5.23-1.63-7.91c-0.95-7.07-0.2-13.9,2.92-20.34
		c3.23-6.65,7.29-12.85,10.95-19.27c2.11-3.71,4.26-7.4,6.4-11.09c0.34-0.58,0.75-1.11,1.13-1.67c32.23,0,64.45,0.01,96.68-0.03
		c1.36,0,1.82,0.24,1.82,1.74c-0.01,29.14,0.04,58.28,0.07,87.43c0,2.66,0.37,2.28-2.35,2.28c-24.29,0.01-48.58-0.15-72.86,0.09
		c-8.08,0.08-15.48-1.79-22.54-5.37c-6.99-3.54-12.25-8.95-16.04-15.8C76.27,337.67,74.62,334.37,73.49,330.83z"/>
	<path class="st0" d="M168.13,31.43c0.57,0.57,1.38,0.48,2.05,0.58c6.08,0.94,11.05,4.02,15.68,7.86c4.33,3.6,7.13,8.34,10.07,13
		c4.86,7.7,9.76,15.38,14.64,23.06c0.19,0.31,0.35,0.64,0.53,0.96c-4.8,8.59-9.61,17.17-14.39,25.77
		c-11.04,19.85-22.07,39.69-33.07,59.56c-0.53,0.96-0.87,1.2-1.94,0.61c-25.86-14.28-51.73-28.53-77.63-42.74
		c-0.96-0.52-1.07-0.88-0.54-1.83c12.82-23.03,25.46-46.17,38.48-69.09c4.24-7.47,10.91-12.66,18.82-16.14
		c3.81-1.68,7.82-2.52,11.95-2.85c2.42,0,4.84,0.01,7.25,0.01C162.73,30.61,165.43,31.02,168.13,31.43z"/>
</g>
</svg>
