<?xml version="1.0" encoding="utf-8"?>
<!-- Generator: Adobe Illustrator 23.1.0, SVG Export Plug-In . SVG Version: 6.00 Build 0)  -->
<svg version="1.1" id="Layer_1" xmlns="http://www.w3.org/2000/svg" xmlns:xlink="http://www.w3.org/1999/xlink" x="0px" y="0px"
	 viewBox="0 0 415 424.01" style="enable-background:new 0 0 415 424.01;" xml:space="preserve">
<style type="text/css">
	.st0{fill:#ED2025;}
	.st1{fill:#FFFFFF;}
	.st2{fill:#010101;}
	.st3{fill:#FDFCFC;}
	.st4{fill:#FCFCFC;}
	.st5{fill:#FBFAFA;}
	.st6{fill:#F9F9F9;}
	.st7{fill:#F4F3F3;}
	.st8{fill:#F8F8F8;}
	.st9{fill:#D0CFCF;}
	.st10{fill:#FBFBFB;}
	.st11{fill:#DBD9D9;}
</style>
<g>
	<path class="st0" d="M205.74,34.52c13.22-0.38,26.2,1.42,39.05,4.35c13.52,3.08,26.53,7.58,39,13.71
		c16.86,8.29,32.06,18.92,45.53,32c10.79,10.47,20.02,22.22,27.79,35.07c7.19,11.9,12.91,24.49,17.07,37.77
		c2.9,9.26,5.24,18.65,6.58,28.26c1.55,11.1,1.93,22.27,1.6,33.46c-0.39,12.92-2.39,25.61-5.74,38.09
		c-3.11,11.6-7.13,22.87-12.4,33.67c-4.24,8.7-9.1,17.06-14.77,24.86c-7.62,10.48-16.15,20.21-25.88,28.87
		c-8.11,7.22-16.79,13.66-26.06,19.29c-9.48,5.76-19.44,10.56-29.84,14.41c-11.44,4.24-23.22,7.2-35.26,9.08
		c-11.48,1.8-23.06,2.23-34.65,1.77c-10.87-0.43-21.63-2.04-32.27-4.3c-11.14-2.37-21.81-6.2-32.24-10.72
		c-11.54-5-22.45-11.1-32.59-18.53c-6.5-4.77-12.74-9.86-18.56-15.48c-11.29-10.9-21.31-22.84-29.27-36.37
		c-7.01-11.91-12.83-24.42-16.98-37.66c-2.38-7.58-4.26-15.27-5.48-23.12c-0.7-4.46-1.6-8.91-2.04-13.4
		c-0.54-5.56-0.75-11.15-0.76-16.75c0-5.65,0.19-11.29,0.74-16.9c0.81-8.2,2.16-16.32,4.01-24.36c3.23-14.05,8.05-27.54,14.51-40.41
		c3.65-7.28,7.78-14.32,12.48-20.99c10.4-14.74,22.61-27.76,36.92-38.83c11.85-9.17,24.65-16.6,38.33-22.67
		c11.46-5.08,23.43-8.41,35.61-11.03c7.67-1.65,15.48-2.46,23.33-2.91C197.59,34.53,201.66,34.55,205.74,34.52z"/>
	<path class="st1" d="M64.3,211.12c-0.07-14.11,2.48-27.81,6.71-41.21c2.15-6.81,4.8-13.45,8.16-19.77
		c2.03-3.81,4.34-7.48,6.54-11.2c9.11-15.44,21.2-28.28,35.3-39.16c12.51-9.66,26.47-16.78,41.44-21.94
		c9.66-3.33,19.62-5.26,29.72-6.27c8.46-0.85,16.98-1.1,25.49-0.12c17.54,2.02,33.97,7.33,48.99,16.65
		c6.77,4.2,13.15,8.96,18.74,14.71c0.78,0.8,0.69,1.14-0.03,1.86c-10.63,10.62-21.17,21.32-31.84,31.9
		c-15.61,15.48-31.18,31-46.7,46.57c-31.11,31.23-62.31,62.37-93.45,93.56c-5.13,5.13-10.2,10.32-15.25,15.53
		c-0.83,0.86-1.31,0.85-2.16-0.01c-6.01-6.1-10.85-13.06-15.38-20.29c-4.63-7.38-8.09-15.26-10.64-23.56
		c-2.26-7.35-4.18-14.78-4.78-22.5C64.77,220.97,64.32,216.06,64.3,211.12z"/>
	<path class="st1" d="M272.46,171.28c0.34-0.37,0.65-0.76,1.01-1.12c12.86-12.89,25.72-25.77,38.56-38.67
		c0.78-0.79,1.16-0.96,2.08-0.04c9.81,9.81,16.89,21.44,22.73,33.89c2.11,4.51,3.28,9.37,4.61,14.14
		c2.11,7.56,3.35,15.28,4.04,23.11c0.7,7.97,0.4,15.89-0.38,23.82c-1.1,11.11-3.73,21.87-7.61,32.32
		c-4.95,13.31-11.51,25.76-20.25,36.99c-4.11,5.28-8.17,10.61-13.22,15.07c-0.91-0.37-1.56-1.12-2.21-1.78
		c-1.98-2.01-4.31-3.49-6.84-4.66c-1.41-0.65-2.35-1.62-2.95-3.06c-1.67-4.01-4.08-7.64-6.01-11.53c-0.59-1.2-1.53-2.2-2.97-2.34
		c-2.74-0.27-3.99-2.46-5.54-4.24c-0.42-0.48-0.64-1.15-1.09-1.63c-1.04-1.1-1.35-2.37-1.2-3.89c0.15-1.6,0.01-3.23-0.14-4.83
		c-0.22-2.3-2.17-3.12-4.06-1.75c-1.89,1.38-3.24,3.25-4.4,5.24c-0.83,1.43-1.22,1.54-2.36,0.33c-0.21-0.22-0.42-0.43-0.67-0.61
		c-0.82-0.59-0.75-1.22-0.13-1.91c0.87-0.98,1.85-1.83,3.16-2.8c-1.8,0.81-3.31,1.45-4.66,2.4c-0.67,0.47-1.31,0.42-1.96-0.04
		c-0.33-0.23-0.65-0.51-1.03-0.63c-2.62-0.86-4.13-2.74-4.86-5.43c-0.27,0.42-0.05,0.68-0.03,0.96c0.03,0.3,0.09,0.6,0.15,0.89
		c0.21,1.1-0.34,1.47-1.35,1.44c-2.13-0.06-3.32-1.12-3.36-2.99c-0.06,0.39,0.09,0.95-0.37,1.07c-0.54,0.14-0.58-0.45-0.68-0.8
		c-0.33-1.11-0.48-2.26-0.72-3.43c-0.32,0.51-0.73,0.74-1.28,0.55c-0.59-0.21-0.61-0.75-0.65-1.25c-0.22-2.51-0.64-5-0.96-7.5
		c-0.12-0.9-0.26-1.81-0.7-2.62c-0.58-1.07-1.29-1.07-1.85,0c-0.73,1.38-1.27,2.86-1.86,4.3c-0.72,1.76-0.97,1.89-2.67,1.22
		c-1.27-0.49-2.35-0.16-3.44,0.48c-1.33,0.78-2.28,0.48-2.64-0.96c-0.51-2-1.21-3.73-3.43-4.38c-0.61-0.18-0.82-0.85-0.98-1.45
		c-1.21-4.67-4.14-7.81-8.5-9.81c-3.46-1.59-6.97-1.35-10.51-0.61c-1.93,0.4-3.72,1.18-5.41,2.26c-2.02,1.29-3.07,3.14-3.69,5.34
		c-0.19,0.69-0.21,1.42,0.01,2.09c1.95,5.83,5.2,10.47,11.18,12.9c3.8,1.55,7.36,0.99,10.81-0.66c1.64-0.79,2.89-1,4.39,0.13
		c1.67,1.25,3.55,1.33,5.41,0.37c0.84-0.43,1.37,0.02,1.8,0.61c0.72,0.99,1.52,1.87,2.61,2.47c0.54,0.3,0.83,0.76,0.62,1.39
		c-0.78,2.35-0.87,4.86-1.73,7.2c-0.6,1.65-3.17,2.86-4.83,2.28c-3.41-1.18-6.49-2.94-9.53-4.86c-5.07-3.2-10.18-6.36-15.31-9.47
		c-1.47-0.89-3.05-1.56-4.76-1.89c-0.77-0.15-1.52-0.14-2.14,0.43c-1.92,1.79-4.16,3.17-6.15,4.86c-2.5,2.12-5.05,4.19-7.27,6.6
		c-2.8,3.02-5.82,5.83-8.56,8.9c-1.8,2.01-3.67,4.01-5.09,6.34c-0.86,1.42-2.11,2.13-3.77,2.48c-2.17,0.46-4.3,0.41-6.45,0.14
		c-0.66-0.08-1.3-0.17-1.76,0.38c-0.02,0.17,0.02,0.28,0.14,0.29c3.07,0.34,6.14,0.28,9.2,0.05c1.86-0.14,3.05-1.41,3.95-2.97
		c2.14-3.7,5.15-6.67,8.19-9.61c1.47-1.42,2.92-2.81,4.86-3.74c1.79-0.86,2.85-2.79,4.32-4.17c2.53-2.38,4.89-4.94,7.79-6.9
		c0.81-0.55,1.53-0.66,2.52-0.28c3.19,1.2,6.14,2.82,8.84,4.88c2.05,1.57,4.35,2.75,6.52,4.12c1.46,0.92,1.46,0.96,0.73,2.48
		c-0.38,0.79-0.89,1.43-1.54,2.02c-1.55,1.4-2.75,3.1-3.71,4.93c-0.75,1.43-1.66,2.77-2.42,4.18c-0.1,0.18-0.23,0.33-0.31,0.52
		c-0.55,1.23-2.42,1.54-2.58,2.57c-0.19,1.3-0.52,2.38-1.2,3.45c-0.46,0.73-0.88,1.48-0.63,2.41c0.1,0.36-0.01,0.71-0.2,1.01
		c-1.9,3.02-2.73,6.47-3.92,9.76c-0.58,1.61-4.63,7.85-5.94,9c-1.7,1.5-2.87,3.39-3.74,5.43c-0.81,1.9-1.79,3.6-3.53,4.79
		c-0.29,0.2-0.93,0.44-0.29,1.01c0.49,0.44,0.89,0.61,1.35-0.04c0.65-0.9,1.51-1.62,2.28-2.42c0.81-0.84,1.58-1.66,1.51-2.97
		c-0.02-0.39,0.18-0.79,0.41-1.12c0.23-0.33,0.49-0.71,0.96-0.58c0.44,0.13,0.11,0.64,0.4,1.03c-0.59-1.56-0.01-2.53,1.03-3.58
		c2.29-2.31,4.59-4.67,5.92-7.71c0.85-1.93,1.43-3.98,2.08-5.99c1.29-3.98,3.24-7.53,5.68-10.92c1.64-2.27,3.15-4.67,4.56-7.11
		c0.92-1.58,1.49-3.32,2.5-4.84c0.51-0.76,1.09-1.44,1.77-2.06c0.78-0.71,1.58-0.72,2.49-0.21c1.74,0.98,3.17,2.32,4.48,3.78
		c1.88,2.08,4.05,3.76,6.54,5.05c1.55,0.8,1.64,1.3,0.49,2.62c-1.36,1.56-2.88,2.84-5.12,2.82c-0.24,0-0.5,0.04-0.67,0.26
		c1.4,0.97,3.31,0.74,4.91-0.57c0.98-0.81,1.64-1.91,2.53-2.81c0.32-0.32,0.58-0.83,1.06-0.79c1.51,0.13,2.99-0.18,4.47-0.24
		c1.1-0.04,2.29,0.05,3.44,0.09c0.99,0.03,1.46,0.53,1.67,1.42c0.21,0.88-0.34,1.26-1,1.63c-4.01,2.25-5.86,6.52-4.71,10.87
		c0.34,1.28,0.04,2.52-0.19,3.74c-0.37,1.95-0.36,3.92-0.46,5.87c-0.19,3.66-0.76,7.33-0.24,11.01c0.11,0.75-0.22,1.38-0.57,1.99
		c0.95-0.01,0.98,0.65,0.95,1.33c-0.08,1.71-0.24,3.41-0.25,5.13c-0.01,2.82,0.48,5.63,0.3,8.44c-0.16,2.53-0.13,5.08-0.49,7.59
		c-0.02,0.14-0.17,0.24-0.31,0.31c-3.63,1.22-7.42,1.72-11.18,2.3c-7.18,1.11-14.42,1.48-21.69,1.28
		c-12.09-0.33-23.89-2.36-35.4-6.08c-14.48-4.68-27.29-12.27-38.7-22.28c-1.25-1.1-2.38-2.33-3.63-3.42c-0.78-0.68-0.7-1.1,0-1.8
		c6.33-6.3,12.61-12.63,18.92-18.95c4.31-4.32,8.66-8.6,12.93-12.96c32.93-33.67,66.49-66.72,99.68-100.15
		c0.28-0.28,0.6-0.53,0.9-0.8c0.78,0.05,1.25,0.64,1.77,1.08c1.2,1.02,2.43,1.96,3.93,2.51c1.02,0.37,1.48,1.15,1.44,2.24
		c-0.02,0.45,0.03,0.91,0,1.36c-0.08,1.07,0.31,1.79,1.3,2.32c1.36,0.72,2.39,1.86,3.17,3.17c0.63,1.06,0.44,1.45-0.77,1.59
		c-1.33,0.15-2.62,0.51-4.16,0.66c0.71,0.42,1.22,0.24,1.66,0.09c2.25-0.78,3.65,0.37,4.84,2.05c0.32,0.45,0.63,0.92,0.92,1.38
		c1.36,2.18,3.54,2.85,5.86,3.25c1.71,0.29,3.32,0.79,4.8,1.73c1.09,0.69,1.18,1.18,0.33,2.16c-0.43,0.5-0.98,0.87-1.48,1.3
		c-0.59,0.5-1.2,1.04-0.6,1.9c0.59,0.85,1.35,1.18,2.34,0.63c1.1-0.62,2.15-1.31,3.17-2.05c1.2-0.87,1.85-0.79,2.88,0.29
		c1.76,1.84,3.41,3.76,5.74,5.02c1.29,0.69,1.8,1.93,1.23,3.21c-0.43,0.98-0.46,2.06-0.33,3.13c0.26,2.02,1.26,2.92,3.3,2.95
		c0.77,0.01,1.53-0.11,2.22-0.4c1.26-0.53,2.24-0.28,3.03,0.83c0.75,1.07,1.89,1.63,2.99,2.26c2.71,1.54,5.33,3.26,8.42,4.01
		c0.44,0.11,0.9,0.27,1.24,0.55c1.39,1.17,2.96,1.76,4.77,1.98c1.37,0.17,1.4,0.5,1,2.25c0.08-1.15,0.76-2.13,2.54-2.35
		c1.23-0.15,2.36-0.86,3.48-1.43c1.23-0.62,1.95-1.68,1.83-3.06c-0.12-1.43,0.37-2.23,1.41-2.34c-0.96,0.37-1.82-0.02-2.48-1.38
		c-0.57-1.18-1.17-2.31-1.62-3.55c-0.97-2.63-3.06-4.43-4.93-6.41c-2.68-2.84-5.92-4.77-9.42-6.39c-1.12-0.52-2.26-0.83-3.46-1.05
		c-0.56-0.1-1.2-0.21-1.26-0.88c-0.07-0.76,0.64-0.94,1.18-1.17c0.7-0.29,1.39-0.09,2.06,0.15c1.57,0.57,3.06,1.3,4.54,2.07
		c2.49,1.3,5.05,1.65,7.71,0.48c0.74-0.33,1.54-0.48,2.35-0.51c2.82-0.11,5.47-0.86,7.94-2.19c0.84-0.45,1.65-0.49,2.16,0.28
		c0.86,1.32,2.09,1.37,3.52,1.31c-0.81-0.1-1.25-0.6-1.71-1.07c-1.52-1.54-2.92-1.77-4.84-0.68c-1.02,0.57-2.11,0.96-3.16,1.45
		c-1.7,0.79-3.22,0.42-4.43-0.84c-1.35-1.4-2.89-2-4.82-2.12c-2-0.13-3.88-1.04-5.9-1.3c-1.4-0.18-2.71-0.19-3.89,0.72
		c-0.4,0.3-0.88,0.61-1.4,0.4c-2.34-0.96-4.85-0.41-7.25-0.9c-1.66-0.34-1.92-0.6-1.07-2.12c0.75-1.36,1.07-2.9,2.09-4.16
		c0.82-1.02,1.42-2.19,2.67-2.8c0.46-0.23,0.8-0.68,0.79-1.22c-0.04-2.21,1.42-3.39,3.08-4.31c2.02-1.12,3.65-2.61,5.05-4.39
		c-1.99,1.94-4.57,2.75-7.07,3.78c-2.03,0.83-4.03,1.85-5,4.06c-0.21,0.47-0.57,0.82-0.96,1.15c-1.87,1.55-2.13,2.63-1.14,4.77
		c0.16,0.34,0.26,0.65-0.04,0.97c-0.54,0.57-3.85,1.09-4.63,0.72c-1.04-0.49-1.16-0.88-0.28-1.62c0.71-0.59,0.99-1.21,0.78-2.1
		c-0.18-0.77,0.11-1.49,0.3-2.22c0.79-3.1,1.17-6.23,0.8-9.43c-0.03-0.25,0.01-0.54-0.13-0.74c-1.18-1.79-0.32-3.24,0.75-4.66
		c0.82-1.09,1.33-2.38,2.18-3.45c0.53-0.66,0.36-1.31,0.04-1.98c-0.45-0.92-0.77-1.87-0.51-2.93c-0.48,0.87-0.36,1.77-0.05,2.64
		c0.41,1.17,0.15,2.04-0.68,3.01c-1.37,1.61-2.76,3.2-4.19,4.76c-0.5,0.54-0.53,1.15-0.57,1.81c-0.19,3.15,0.37,6.23,0.75,9.33
		c0.04,0.35,0.12,0.7,0.14,1.05c0.18,2.61-1.34,3.89-3.94,3.34c-1.04-0.22-1.28-0.98-1.42-1.88c-0.67-4.21-1.9-8.13-5.12-11.24
		c-2.79-2.7-5.58-5.39-8.55-7.89c-0.15-0.13,0.06-0.01-0.12-0.09C272.89,177.72,273.44,174.12,272.46,171.28z"/>
	<path class="st2" d="M235.45,349.33c-0.06-1.32,0.54-2.72,0.3-3.88c-0.43-2.08,0.39-4.02,0.13-6.06c-0.29-2.28-0.09-4.62-0.2-6.93
		c-0.09-1.95,0.18-3.88,0.2-5.95c-0.53,0.47-0.96,0.86-1.39,1.25c-0.35-0.48,0.04-0.74,0.23-0.97c1.08-1.24,0.7-2.74,0.69-4.12
		c-0.04-5.87,0.4-11.71,1.04-17.53c0.04-0.4,0.13-0.77-0.03-1.18c-1.46-3.87,0.93-9.45,4.77-11.27c0.44-0.21,1.37-0.12,1-1.12
		c-0.28-0.76-0.44-1.41-1.62-1.21c-1.03,0.18-2.2,0.47-3.23-0.21c-0.32-0.21-0.58,0.01-0.82,0.18c-0.49,0.34-1.11,0.54-1.57,0.35
		c-2.08-0.87-2.97,0.56-3.99,1.86c-0.71,0.91-1.47,1.8-2.57,2.28c-1.77,0.77-3.49,0.88-5.1-0.5c0.73-0.46,1.52-0.73,2.37-0.75
		c2.43-0.08,3.63-1.87,4.92-3.53c0.35-0.44-0.01-0.58-0.37-0.73c-3.94-1.67-6.71-4.8-9.66-7.71c-0.62-0.61-1.36-1.13-2.12-1.57
		c-0.74-0.43-1.47-0.4-2.2,0.27c-1.44,1.3-2.02,3.1-2.95,4.69c-0.29,0.49,0.35,0.77,0.39,1.21c-0.42,0.1-0.75-0.63-1.18,0.2
		c-1.76,3.41-4.05,6.49-6.21,9.66c-2.86,4.2-4.38,9-5.9,13.81c-0.62,1.95-1.64,3.82-3.16,5.42c-0.91,0.96-2.39,1.68-2.54,3.29
		c0,0.05-0.02,0.13-0.05,0.14c-0.9,0.32-1.82,0.73-1.96,1.75c-0.12,0.87,0.09,1.78,0.17,3.01c-0.73-0.85-0.36-1.59-0.63-2.26
		c-0.76,0.35-1.13,1.18-1.03,1.77c0.32,1.89-1.18,2.59-2.12,3.63c-0.85,0.93-1.81,1.74-2.31,2.91c-0.91-0.26-1.23-1.17-2.17-1.71
		c3.36-1.46,4.05-4.83,5.66-7.53c0.85-1.43,1.93-2.65,3.12-3.8c1.03-0.99,2.04-2.08,2.42-3.52c0.4-1.49,1.9-2.15,2.44-3.58
		c0.68-1.82,1.31-3.65,1.95-5.48c0.52-1.49,1.17-2.94,1.75-4.41c0.33-0.85,1.35-1.26,0.9-2.65c-0.34-1.04,0.83-2.26,1.51-3.32
		c0.48-0.76,1.14-1.57-0.55-2.16c3.3-1.2,4.46-3.94,5.84-6.44c0.71-1.28,1.5-2.5,2.3-3.72c1.25-1.9,3.4-3.08,4.14-5.44
		c-3.49-1.91-6.94-4.23-10.33-6.65c-2.14-1.52-4.65-2.3-6.97-3.45c-0.47-0.23-0.61,0.16-0.89,0.3c-2.46,1.28-4.2,3.43-6.21,5.23
		c-2.25,2.01-3.92,4.78-6.52,6.23c-4.65,2.57-7.48,6.89-11.09,10.45c-0.64,0.63-1.08,1.44-1.45,2.28c-1.13,2.58-3.17,3.85-5.94,3.82
		c-3-0.03-6.02,0.36-8.99-0.38c1.16-1.56,1.15-1.53,3.06-1.22c2.57,0.42,5.09,0.05,7.59-0.56c1.11-0.27,1.68-1.24,2.07-2.06
		c0.74-1.56,2.04-2.59,3.07-3.87c1.77-2.21,3.69-4.31,5.69-6.31c4.68-4.69,9.11-9.64,14.54-13.53c1.27-0.91,2.65-1.71,3.7-2.94
		c0.75-0.88,1.82-0.74,2.82-0.52c2.86,0.62,5.22,2.28,7.66,3.77c5.65,3.46,11.3,6.92,16.94,10.4c1.56,0.96,3.31,1.43,4.98,2.12
		c1.19,0.49,3.64-0.89,4.14-2.08c1.02-2.43,0.73-5.18,1.9-7.57c0.21-0.43-0.22-0.52-0.46-0.61c-1.26-0.45-2.11-1.38-2.79-2.44
		c-0.53-0.83-0.84-0.9-1.8-0.4c-2.19,1.13-4.3,0.3-6.17-1.01c-0.78-0.54-1.28-0.88-2.22-0.24c-1.9,1.3-4.11,1.93-6.38,2.09
		c-4.68,0.32-8.56-1.58-11.78-4.79c-2.56-2.55-4.44-5.61-5.36-9.14c-0.69-2.64,0.46-4.86,2.25-6.67c2.64-2.67,6.1-3.68,9.69-4.1
		c5.27-0.62,9.82,1.02,13.52,4.9c1.76,1.84,2.69,4.1,3.42,6.47c0.17,0.55,0.23,1.07,0.92,1.2c2.16,0.4,2.77,2.13,3.25,3.91
		c0.13,0.48,0.11,0.95,0.49,1.37c0.42,0.45,0.65,0.75,1.31,0.22c1.58-1.26,3.29-1.72,5.11-0.37c0.68,0.51,0.74-0.22,0.89-0.55
		c0.77-1.73,1.51-3.47,2.25-5.22c0.26-0.61,0.47-1.41,1.25-1.27c0.78,0.13,1.33,0.75,1.55,1.6c0.78,3.14,0.99,6.35,1.43,9.54
		c0.07,0.5-0.31,1.28,0.32,1.46c0.73,0.21,1.15-0.42,1.42-1.14c0.36,1.59,0.71,3.18,1.11,4.96c0.24-0.9,0.43-1.6,0.61-2.29
		c0.59,0,0.45,0.42,0.39,0.64c-0.51,2.13-0.06,2.78,2.18,3.11c1.92,0.28,1.91,0.28,1.55-1.62c-0.15-0.78-0.52-1.52-0.31-2.55
		c1.19,1.17,1.5,2.69,2.2,3.97c0.4,0.73,0.82,1.21,1.65,1.56c1.32,0.55,2.54,2.04,3.75,1.98c1.23-0.06,2.41-1.48,3.78-1.99
		c0.81-0.3,1.51-0.94,2.66-1.07c-1.11,1.52-2.65,2.18-3.64,3.45c-0.54,0.69-1.22,1.14,0.16,1.7c0.56,0.23,0.89,1.04,1.38,1.65
		c0.43-0.82,1.59-1.31,0.69-2.64c0.78,0.7,1.11,0.26,1.38-0.31c0.79-1.68,2.05-2.97,3.6-3.92c2.38-1.46,4.29-0.46,4.47,2.34
		c0.12,1.75,0.31,3.5,0.08,5.25c-0.15,1.11,0.24,1.93,0.88,2.86c1.27,1.84,2.82,3.43,4.15,5.19c0.32,0.42,0.65,0.38,1.04,0.41
		c2.67,0.21,4.24,1.67,5.37,4.08c1.87,3.99,3.97,7.88,6.11,11.74c0.69,1.25,2.2,1.65,3.45,2.25c2.97,1.4,5.29,3.59,7.42,6.02
		c-0.42,0.43-0.84,0.86-1.26,1.28c-1.89-0.46-3.44-1.56-4.9-2.77c-0.73-0.6-1.45-1.22-2.24-1.88c0.42,0.63,0.79,1.22,0.95,1.87
		c0.47,1.91,1.13,3.74,2.16,5.43c0.21,0.33,0.38,0.72,0.12,1.13c-0.47,0.4-0.95,0.8-1.42,1.21c-0.85-0.23-1.11-0.98-1.37-1.68
		c-0.84-2.28-1.88-4.45-3.5-6.31c-0.73-0.84-1.24-1.88-1.55-2.93c-0.55-1.89-1.87-2.77-3.63-3.24c-0.71-0.19-1.41-0.46-2.53-0.49
		c1.22,2.24,1.1,4.46,1.03,6.66c-0.11,3.48-0.99,6.76-2.77,9.78c-0.92,1.56-2.19,2.76-3.84,3.52c-0.55,0.25-1.23,0.51-1.64-0.12
		c-0.39-0.58,0.17-1.02,0.53-1.43c3.4-3.87,3.77-8.44,2.9-13.21c-0.35-1.9-1.74-2.26-3.21-0.97c-1.23,1.08-2.51,1.84-4.24,1.43
		c-0.88-0.2-1.31,0.38-1.49,1.14c-0.38,1.67-0.69,3.35-1.07,5.02c-0.23,1.03,0.13,1.99,0.67,2.88c1.02,1.7,2.2,3.26,3.95,4.29
		c0.26,0.15,0.5,0.34,0.7,0.57c0.62,0.73,0.47,1.15-0.5,1.3c-1.65,0.26-3.06-0.35-4.37-1.29c-0.52-0.37-0.93-0.93-1.67-1.1
		c-0.37,0.62-0.06,1.16,0.2,1.67c1.34,2.7,2.04,5.69,3.66,8.28c0.54,0.87,0.97,1.91,0.52,3.03c-0.58,0.37-1.15,0.73-1.73,1.1
		c-0.27-0.06-0.46-0.22-0.56-0.46c-0.85-2.21-1.86-4.35-2.76-6.54c-0.29-0.69-0.5-1.4-0.9-2.06c-0.98-1.62-1.12-3.44-1.02-5.26
		c0.09-1.67-0.4-2.98-1.62-4.18c-2.14-2.1-3.35-4.76-4.01-7.66c-0.15-0.68-0.41-1.2-0.98-1.62c-0.97-0.7-1.54-1.66-1.96-2.79
		c-1.09-2.93-2.53-5.71-3.85-8.54c-0.55-1.18-2.27-1.79-3.46-1.24c-1.54,0.7-3.04,1.06-4.61,0.12c-0.42-0.25-0.87-0.17-1.3,0.05
		c-2.34,1.18-4.19,2.79-4.77,5.5c-0.31,1.43-0.65,2.85-1.43,4.12c-0.24,0.39-0.28,0.87-0.25,1.32c0.25,4.07-0.26,8.13,0.23,12.22
		c0.17,1.39-0.11,2.98-0.31,4.45c-0.19,1.4-0.05,2.68,0.53,3.96c0.41,0.89,0.53,1.76-0.7,2.2c-0.64,0.23-0.68,0.84-0.67,1.4
		c0.07,2.77-0.19,5.54,0.21,8.3c0.37,2.57-0.38,5.11-0.25,7.69c0.04,0.93,0.32,1.9-0.12,2.81
		C237.16,349.06,236.34,349.34,235.45,349.33z"/>
	<path class="st2" d="M272.46,171.28c0.94,1.85,1.36,3.87,1.98,5.83c0.2,0.64,0.29,1.41,1.32,1.24c0.19-0.03,0.46,0.18,0.64,0.34
		c3.76,3.42,7.79,6.56,10.89,10.66c1.44,1.91,2.33,3.93,2.67,6.41c0.16,1.15,0.44,2.49,0.82,3.7c0.32,1,1.26,0.64,1.96,0.6
		c2.33-0.11,2.7-0.54,2.46-2.8c-0.3-2.8-0.51-5.61-0.96-8.39c-0.42-2.61,0.51-4.58,2.48-6.09c1.3-1,1.81-2.64,3.14-3.6
		c0.53-0.38,0.27-1,0.09-1.54c-0.32-0.95-0.65-1.91-0.51-2.94c0.09-0.65,0.46-1.29,1.13-1.12c0.76,0.2,0.23,0.8,0.07,1.24
		c-0.4,1.07,0.09,1.98,0.61,2.83c0.48,0.78,0.29,1.29-0.22,2.01c-1.22,1.71-2.29,3.52-3.4,5.3c-0.21,0.34-0.41,0.76-0.18,1.15
		c1.89,3.25,0.78,6.62,0.42,9.95c-0.17,1.6-1.34,3.06-0.51,4.8c0.2,0.43-0.27,0.8-0.67,1.06c-0.4,0.26-0.9,0.39-1.15,0.86
		c1.84,1.64,3.59-0.17,5.64-0.09c-2.05-1.34-1.37-2.93-0.74-4.53c0.18-0.44,0.4-0.8,0.88-0.95c1.03-0.33,1.5-1.11,1.66-2.13
		c0.04-0.24,0.07-0.61,0.22-0.68c1.56-0.76,2.65-2.31,4.36-2.75c2.16-0.56,4.08-1.65,6.06-2.61c0.54-0.26,0.87-0.95,1.31-1.42
		c0.23-0.25,0.37-0.89,0.87-0.37c0.3,0.3,0.31,0.7-0.06,1.06c-1.64,1.61-3.13,3.38-5.25,4.47c-1.72,0.88-3.38,1.86-3.02,4.32
		c0.11,0.74-0.72,1.19-1.33,1.52c-1.89,1.03-2.65,2.95-3.57,4.67c-0.41,0.76-0.62,1.68-1.12,2.43c-0.55,0.83-0.24,1.13,0.6,1.03
		c1.98-0.23,3.93,0.33,5.86,0.48c1.75,0.13,3.07-0.18,4.66-0.64c1.9-0.55,3.96,0.12,5.89,0.68c0.72,0.21,1.45,0.61,2.17,0.59
		c2.33-0.06,4.13,0.75,5.69,2.53c0.84,0.95,2.16,1.2,3.48,0.57c1.31-0.62,2.69-1.07,3.94-1.86c1.48-0.94,3.38-0.43,4.53,0.93
		c0.52,0.61,0.98,1.47,2.08,1c0.29-0.13,0.44,0.13,0.48,0.41c0.05,0.32-0.14,0.41-0.41,0.5c-1.14,0.38-3.26-0.25-4.01-1.24
		c-0.59-0.78-1.06-0.91-2.08-0.37c-2.35,1.25-4.9,2.09-7.62,2.1c-0.98,0-1.88,0.18-2.76,0.58c-2.69,1.21-5.32,0.9-7.8-0.49
		c-1.68-0.94-3.46-1.61-5.22-2.33c-0.37-0.15-0.84-0.36-1.15-0.04c-0.36,0.37-1.23,0.33-1.1,1c0.11,0.58,0.8,0.43,1.29,0.49
		c2.88,0.33,5.26,1.91,7.69,3.28c3.35,1.88,5.86,4.77,8.37,7.62c0.77,0.88,1.52,1.83,1.76,2.95c0.38,1.71,1.57,3,2.12,4.6
		c0.2,0.56,0.49,0.46,0.93,0.34c0.77-0.21,1.54-0.5,2.37-0.25c-0.02,0.1,0,0.25-0.05,0.28c-1.93,1.2-2.01,1.31-2.66,3.85
		c-0.19,0.77-0.6,1.41-1.28,1.8c-1.61,0.94-3.27,1.8-5.14,2.02c-0.66,0.08-0.94,0.23-1.07,0.91c-0.18,0.94-0.55,1.85-0.97,2.73
		c-0.35-0.87-0.26-1.71,0.07-2.48c0.42-0.97-0.06-1.3-0.86-1.31c-1.83-0.03-3.39-0.63-4.76-1.86c-0.43-0.38-1.04-0.63-1.61-0.77
		c-3.68-0.9-6.7-3.13-9.93-4.94c-0.39-0.22-0.86-0.49-1.03-0.86c-0.79-1.69-1.97-1.65-3.44-1c-0.62,0.27-1.32,0.39-2.05,0.35
		c-1.88-0.1-3.1-1.09-3.44-2.9c-0.25-1.31-0.13-2.61,0.25-3.88c0.42-1.43-0.17-2.58-1.59-3.01c-0.48-0.15-1.03-0.21-1.32-0.66
		c-1.02-1.58-2.81-2.42-3.81-4.03c-0.58-0.93-1.31-1.25-2.33-0.36c-0.94,0.82-2.05,1.46-3.13,2.1c-0.78,0.46-1.6,0.81-2.49,0.05
		c-1.35-1.16-1.42-1.78-0.09-3.01c0.55-0.51,1.14-0.99,1.73-1.45c0.72-0.55,0.73-0.96-0.11-1.43c-1.67-0.92-3.39-1.58-5.32-1.79
		c-2.96-0.32-5.07-1.97-6.43-4.59c-0.43-0.84-1.3-1.23-1.88-1.93c-0.73-0.88-1.55-0.21-2.33-0.13c-0.6,0.06-1.19,0.23-1.79,0.26
		c-0.56,0.04-1.02-0.24-0.99-0.84c0.03-0.74,0.51-0.36,0.94-0.36c0.84,0.01,1.69-0.18,2.52-0.36c0.76-0.16,1.52-0.28,2.38-0.19
		c-1.14-2-2.52-3.51-4.48-4.66c-1.13-0.66-0.85-2.34-0.69-3.58c0.11-0.87-0.03-1.41-0.84-1.62c-2.46-0.64-4.13-2.41-5.91-4.04
		c0.13-0.13,0.26-0.25,0.39-0.38c1.06-0.03,1.67,0.84,2.49,1.28c0.57,0.31,1.11,0.67,1.9,0.92c-0.34-1.81-1.68-3.15-1.69-4.91
		c2.42-2.61,4.93-5.12,7.53-7.54c1.37,0.1,2.33,1.09,3.48,1.66c0.44,0.22,0.88,0.69,1.37,0.36c0.62-0.42,0.07-0.99,0.01-1.5
		c-0.19-1.48-1.31-2.72-1.12-4.3C271.91,171.81,272.18,171.54,272.46,171.28z"/>
	<path class="st1" d="M237.97,348.77c-0.51-2.32-0.27-4.65,0.01-6.97c0.14-1.17,0.08-2.33-0.05-3.46c-0.35-2.92-0.17-5.84-0.22-8.76
		c-0.01-0.58-0.09-1.39,0.75-1.41c1.51-0.03,1.04-0.87,0.7-1.58c-1.29-2.66-0.54-5.29-0.01-7.94c0.14-0.7-0.44-1.29-0.38-2.03
		c0.21-2.98-0.45-5.99,0.18-8.97c0.04-0.2-0.25-0.46-0.24-0.69c0.03-1.14-0.47-2.31,0.61-3.37c0.5-0.49,0.64-1.47,0.73-2.25
		c0.38-3.63,2.71-5.67,5.7-7.23c0.43-0.23,0.77-0.19,1.1,0.09c1.63,1.41,3.21,0.74,4.71-0.18c0.54-0.33,0.87-0.64,1.29,0.07
		c0.09,0.15,0.39,0.35,0.5,0.3c1.6-0.68,1.63,0.8,2,1.55c1.48,3.02,2.98,6.04,4.09,9.23c0.24,0.69,0.66,1.43,1.27,1.62
		c1.26,0.39,1.28,1.25,1.47,2.3c0.55,2.94,1.94,5.49,4.19,7.5c1.23,1.1,1.47,2.42,1.31,3.95c-0.22,2.11,0.47,3.94,1.34,5.89
		c0.87,1.95,1.97,3.85,2.47,5.96c0.22,0.93,0.99,1.61,1.03,2.6c-5.98,3.53-12.26,6.43-18.75,8.91
		C248.6,345.86,243.36,347.54,237.97,348.77z"/>
	<path class="st1" d="M274.24,333.88c-1.15-3.94-3.22-7.5-4.7-11.3c-0.37-0.94-0.3-1.74-0.01-2.63c1.09,0.81,2.1,1.71,3.25,2.39
		c1.12,0.67,2.4,0.97,3.73,0.6c0.1-0.52-0.26-0.71-0.54-0.85c-2.06-0.98-3.25-2.78-4.5-4.56c-0.81-1.15-1.02-2.39-0.74-3.72
		c0.35-1.67,0.8-3.33,1.09-5.01c0.17-0.98,0.75-1.46,1.54-1.16c2.38,0.91,3.71-0.73,5.05-2.06c0.76-0.75,0.98-0.63,1.7,0.02
		c2.33,2.09,1.92,4.8,1.69,7.36c-0.3,3.29-1.16,6.46-3.88,8.74c-0.1,0.08-0.11,0.27-0.2,0.48c0.63,0.34,1.16,0.1,1.67-0.2
		c1.18-0.7,2.27-1.51,3.02-2.68c2.93-4.58,3.62-9.59,2.84-14.89c-0.13-0.9-0.65-1.67-1.15-2.72c2.2,0.46,4.1,0.98,5.92,1.82
		c0.87,0.41,0.88,1.31,1.16,2c0.79,1.93,1.78,3.7,3.18,5.25c0.94,1.04,1.2,2.41,1.74,3.64c0.4,0.92,0.75,1.87,1.36,2.68
		c-5.27,4.98-11.12,9.21-17.17,13.17C278.31,331.52,276.37,332.86,274.24,333.88z"/>
	<path class="st3" d="M298.87,315.86c-1.92-2.79-2.15-6.3-3.91-9.2c2.64,1.79,4.99,3.96,7.82,5.42
		C301.56,313.43,300.37,314.8,298.87,315.86z"/>
	<path class="st4" d="M271.63,172.07c0.61,1.7,1.22,3.4,1.82,5.1c0.13,0.36,0.37,0.78-0.14,1.04c-0.42,0.22-0.77,0.52-1.34,0.13
		c-1.32-0.9-2.71-1.67-4.07-2.5C269.14,174.59,270.39,173.33,271.63,172.07z"/>
	<path class="st5" d="M260.37,183.39c0.84,1.79,1.68,3.58,2.67,5.67c-2.25-0.57-3.73-1.91-5.37-2.96
		C258.47,185.1,259.38,184.2,260.37,183.39z"/>
	<path class="st2" d="M150.32,191.68c1.37,2.28,3.36,4.28,3.71,6.98c0.26,1.97,0.19,4.05-1.25,5.84c-1.25,1.56-2.61,3.05-3.74,4.69
		c-2.39,3.46-4.71,6.99-4.66,11.51c0.01,1.13,0.02,2.4-0.62,3.48c-0.29,0.49-0.59,1.04-1.26,0.74c-0.56-0.25-1.07-0.71-0.96-1.4
		c0.29-1.82,0.55-3.66,1.03-5.44c0.46-1.66,1-3.37,1.18-5.02c0.23-2.2,1.67-3.47,2.82-4.96c1.47-1.9,3.22-3.58,4.79-5.41
		c0.32-0.37,1.47-1.46-0.44-1.14c-0.17,0.03-0.35,0.1-0.3-0.26c0.25-1.72-0.94-2.76-1.92-3.89c-0.13-0.15-0.3-0.29-0.48-0.37
		c-0.8-0.32-0.67-2.34-2.02-1.36c-0.73,0.53-1.53,1.09-2.16,1.89c-3.16,3.99-7.05,7.02-11.47,9.7c-3.49,2.11-7.21,3.73-10.89,4.93
		c-4.27,1.39-9.17,2.05-13.27-1.5c-1.31-1.13-2.98-1.52-4.77-1.37c-1.59,0.13-3.12-1.37-2.95-2.96c0.26-2.43-0.55-4.42-2.04-6.27
		c-1.53-1.9-1.9-4.21-1.72-6.53c0.28-3.44,0.9-6.92,2.45-9.96c1.66-3.25,2.62-6.79,4.56-9.91c0.98-1.58,2.59-2.57,3.5-4.2
		c1.2-2.15,3.22-3.59,4.82-5.39c0.66-0.74,0.34-1.22-0.46-1.6c-1.15-0.55-2.61-0.28-3.49-1.69c-0.36-0.58-1.31,0.21-1.7,0.76
		c-1.47,2.05-3.32,3.77-4.9,5.7c-2.4,2.92-5.51,2.71-8.53,2.09c-2.01-0.41-4-0.72-6.02-0.84c-0.41-0.02-0.78-0.09-1.17-0.21
		c-0.74-0.23-1.18-0.81-0.99-1.46c0.17-0.56,0.71-0.93,1.54-0.84c1.96,0.2,3.78,0.76,5.66,1.32c3.51,1.05,6.58,0.08,8.91-2.96
		c1.44-1.87,3.19-3.53,5.17-4.78c2.25-1.43,4.92-1.92,7.4-0.82c2.15,0.95,3.48,0.57,5.04-1.09c2.23-2.37,4.96-4.27,7.12-6.68
		c3.12-3.49,7.1-5.76,10.87-8.34c0.29-0.2,0.55-0.44,0.84-0.62c0.51-0.33,0.21-0.73,0.08-1.07c-0.18-0.47-0.57-0.32-0.88-0.15
		c-2.14,1.17-4.24,2.39-6.23,3.82c-1.15,0.83-2.39,1.45-3.82,1.9c-2.74,0.86-5.25-0.28-7.87-0.31c-1.33-0.01-2.69,0.18-4.02-0.26
		c-0.83-0.28-1.69-0.6-1.48-1.53c0.25-1.11,1.46-1.22,2.23-0.88c1.93,0.84,3.96,0.96,5.97,1.21c2.41,0.3,4.66,0,6.71-1.62
		c2.73-2.17,6.03-3.32,9.31-4.42c0.97-0.32,2.02-0.17,3.07,0.26c0.94,0.39,1.9,0.8,3.08,0.73c1.73-0.1,3.25,0.77,4.28,2.24
		c0.34,0.48,0.45,1.3,1.25,0.89c0.75-0.38,0.53-1.13,0.22-1.71c-1.18-2.25-1.19-4.68-1.37-7.14c-0.18-2.39,1.24-4,2.39-5.62
		c1.65-2.32,3.64-4.41,6-6.12c1.1-0.79,1.03-2.51-0.16-4.01c-1.38-1.73-2.56-3.53-3.34-5.61c-0.24-0.64-0.44-1.17,0.27-1.53
		c0.67-0.34,1.5-0.13,1.69,0.49c0.62,2.01,2,3.64,2.57,5.7c0.28,1.01,0.87,2.15,1.58,3.09c1.16,1.55,1.06,2.47-0.46,3.72
		c-2.37,1.95-4.87,3.75-6.98,6c-0.17,0.18-0.51,0.47-0.5,0.49c0.83,1.06,0.81,2.52,1.54,3.57c0.6,0.85,1.83,0.73,2.64,0.4
		c2.24-0.93,4.67-0.65,6.93-1.32c1.75-0.52,3.52-0.97,5.25-1.57c0.64-0.22,1.13-0.44,1.89-0.25c1.61,0.41,1.24-0.94,1.24-1.77
		c0.01-1.99-0.12-3.98,0.19-5.96c0.34-2.24,1.39-4.02,3.17-5.47c2.86-2.33,5.8-4.62,8.39-7.23c1.46-1.48,2.36-3.55,3.4-5.41
		c0.46-0.82,1.04-1.47,1.73-2.06c0.41-0.35,0.9-0.53,1.37-0.12c0.43,0.37,0.27,0.82,0.01,1.22c-1.36,2.11-2.59,4.31-4.51,5.99
		c-0.33,0.29-0.82,0.46-0.79,1.02c0.14,2.52-1.84,3.2-3.56,4.08c-0.39,0.2-1.12,0.17-1.1,0.63c0.14,2.64-2.06,3.14-3.7,3.96
		c-2.61,1.29-4.11,3.92-3.43,6.76c0.21,0.87,0.41,1.74,0.6,2.61c0.3,1.43,0.99,2.61,2.52,3.3c1.14,0.51,2.2,1.43,3,2.41
		c1.58,1.96,3.41,3.76,3.83,6.49c0.21,1.37,0.92,2.73,2.63,2.99c0.18,0.03,0.49,0.02,0.52,0.11c0.58,1.65,2.3,2.11,3.34,3.26
		c1.1,1.22,2.27,1.67,3.98,1.68c1.93,0.02,3.32-0.65,4.71-1.77c1.04-0.84,2.25-1.41,3.62-1.51c0.33-0.02,0.59-0.12,0.8-0.35
		c1.64-1.85,4.08-2.4,6.03-3.75c1.4-0.96,2.85-1.85,4.23-2.85c0.68-0.5,1.38-0.69,2.21-0.78c0.58-0.06,1.01-0.05,1.27,0.46
		c0.27,0.52-0.14,0.88-0.5,1.11c-2.1,1.34-4.16,2.77-6.63,3.39c-0.4,0.1-0.92,0.11-1.13,0.62c-0.83,2.02-2.8,2.34-4.53,3.03
		c-0.28,0.11-0.61,0.15-0.81,0.34c-2.07,1.93-4.8,2.52-7.33,3.3c-1.86,0.57-3.94,0.39-5.81-1.01c-1.78-1.33-3.91-2.2-5.9-3.23
		c-0.59-0.3-0.83-0.04-0.68,0.62c0.58,2.43-0.23,4.05-2.38,5.51c-2.8,1.9-3.87,5.09-4.5,8.29c-0.16,0.82,1.09,1.28,1.81,1.53
		c1.3,0.45,2.46,0.99,3.36,2.05c0.34,0.4,0.7,0.38,1.19,0.11c2.08-1.18,4.49-1.65,6.4-3.22c1.28-1.06,2.79-0.71,3.88,0.18
		c2.04,1.66,4.46,1.13,6.71,1.58c1.21,0.24,2.52-0.21,3.64,0.67c0.71,0.56,0.91,1.18,0.57,1.97c-0.33,0.76-0.9,0.46-1.56,0.49
		c-3.87,0.21-7.03-2.11-10.63-2.79c-0.56-0.11-0.96-0.01-1.42,0.22c-1.64,0.84-3.25,1.63-5.22,1.61c-1.19-0.01-2.3,0.82-3.51,1.14
		c-2.88,0.76-5.42-0.07-7.96-1.18c-0.28-0.12-0.56-0.24-0.83-0.35c-1.33-0.53-1.97-0.24-2.34,1.09c-0.26,0.93-0.42,1.89-0.7,2.82
		c-0.18,0.61,0.34,0.72,0.57,1.05c0.9,1.32,2.56,2,2.94,3.77c0.51,2.3-0.61,4.05-1.74,5.82c-1.34,2.1-2.81,4.12-4.03,6.28
		c-0.37,0.65-0.98,0.87-1.41,1.35c-1.41,1.58-0.61,3.12-0.23,4.6c0.42,1.63,0.95,3.28,2.25,4.53c0.54,0.52,0.92,1.2,1.44,1.75
		c0.46,0.49,0.38,1-0.02,1.32c-0.42,0.34-1.13,0.41-1.53,0.05c-1.54-1.41-2.85-3.05-3.51-5.04c-0.48-1.48-1.3-2.81-1.59-4.37
		c-0.42-2.25-0.16-4.09,1.56-5.89c2.22-2.31,4.06-4.99,6.06-7.51c0.21-0.26,0.25-0.57,0.17-0.86c-0.43-1.53-1.88-1.65-3.03-2.19
		c-0.87-0.41-1.34,0.12-1.7,0.75c-0.66,1.14-1.96,2.04-1.49,3.66c0.04,0.15-0.11,0.51-0.21,0.52c-1.61,0.24-1.03,2.16-2.29,2.85
		c-1.19,0.65-1.99,1.99-3.09,2.86C154.74,186.61,152.77,189.43,150.32,191.68z"/>
	<path class="st4" d="M281.33,290.13c1.13-0.05,1.99,0.65,3.03,0.44c0.52-0.11,0.75,0.41,0.91,0.85c0.89,2.38,1.88,4.74,2.64,7.17
		c0.59,1.88,0.47,1.62-1.6,1.56c-2.01-0.05-2.42-0.92-2.62-2.61C283.38,294.97,282.18,292.62,281.33,290.13z"/>
	<path class="st6" d="M242.48,258.35c0.25,3.17,0.6,6.24,1.28,9.27c0.06,0.29,0.32,0.72-0.14,0.92c-0.32,0.14-0.57-0.17-0.76-0.38
		c-0.47-0.51-1.02-0.89-1.61-1.27c-0.5-0.32-0.96-0.87-0.88-1.63C240.63,262.87,240.8,260.47,242.48,258.35z"/>
	<path class="st5" d="M225.39,279.89c1.58,0.97,3.72,1.83,6.06,2.28c1.21,0.23,1.57,3.05,0.62,3.77c-0.32,0.24-0.55-0.03-0.81-0.16
		c-0.69-0.34-1.26-0.84-1.77-1.39C228,282.8,226.55,281.18,225.39,279.89z"/>
	<path class="st7" d="M240.9,272.65c-0.97,0.46-2.09,0.32-2.67,1.29c-0.2,0.34-0.51,0.15-0.75-0.06c-0.31-0.26-0.61-0.52-0.43-1
		c0.24-0.65,0.47-1.31,0.69-1.97c0.14-0.41,0.35-0.4,0.65-0.17C239.16,271.35,240.13,271.69,240.9,272.65z"/>
	<path class="st8" d="M235.16,284.48c1.09-0.17,1.63,0.44,1.58,1.31c-0.03,0.61-0.06,1.7-0.98,1.64c-0.65-0.05-1.96,0.14-1.91-0.79
		C233.89,285.97,233.77,284.55,235.16,284.48z"/>
	<path class="st9" d="M272.48,275.51c-0.12,0.32-0.25,0.65-0.36,0.97c-0.12,0.33,0.18,0.93-0.47,0.9c-0.53-0.03-1.18-0.07-1.55-0.38
		c-0.38-0.32,0.06-0.83,0.31-1.19c0.4-0.57,0.66-1.25,1.33-1.58C273.08,274.02,272.88,274.7,272.48,275.51z"/>
	<path class="st10" d="M272.48,275.51c0.12-0.64,0.23-1.28-0.74-1.29c0.51-0.38,1.01-0.75,1.69-1.25c0,1.81,0.43,3.44-0.01,5.11
		C272.52,277.61,272.52,277.61,272.48,275.51z"/>
	<path class="st11" d="M272.26,203.16c1.03,0.57,1.95,1.26,2.74,2.26C272.68,206.23,273.04,204.03,272.26,203.16z"/>
</g>
</svg>
