<?xml version="1.0" encoding="utf-8"?>
<!-- Generator: Adobe Illustrator 23.1.0, SVG Export Plug-In . SVG Version: 6.00 Build 0)  -->
<svg version="1.1" id="Layer_1" xmlns="http://www.w3.org/2000/svg" xmlns:xlink="http://www.w3.org/1999/xlink" x="0px" y="0px"
	 viewBox="0 0 415 424.01" style="enable-background:new 0 0 415 424.01;" xml:space="preserve">
<style type="text/css">
	.st0{fill:#4166B0;}
	.st1{fill:#FFFFFF;}
</style>
<g>
	<path class="st0" d="M214.83,197.39c0.93,1.99,1.93,3.95,2.76,5.98c5.88,14.22,11.82,28.42,17.53,42.71
		c1.57,3.94,3.98,5.51,8.22,5.85c16.98,1.33,33.92,3.05,50.88,4.56c14.96,1.33,29.93,2.58,44.9,3.82c4.23,0.35,5.78,1.83,5.67,6.01
		c-0.67,25.33-1.41,50.65-2.02,75.98c-0.09,3.71-2.3,4.9-5.29,5.52c-15.05,3.14-30.11,6.25-45.15,9.4
		c-24.07,5.04-48.14,10.09-72.22,15.14c-0.35,0.07-0.68,0.21-1.03,0.27c-5.37,1.01-5.92,0.55-5.92-4.9c0-54.73,0-109.46,0.02-164.19
		c0-1.96,0.25-3.92,0.39-5.88C213.99,197.57,214.41,197.48,214.83,197.39z M277.25,321.23c-0.12,0-0.24,0-0.36,0
		c0,4.97-0.07,9.95,0.02,14.92c0.09,5.45,1.19,6.38,6.69,5.88c1.88-0.17,3.76-0.45,5.63-0.76c4.23-0.7,5.62-2.33,5.63-6.7
		c0.03-9.01,0.17-18.01-0.04-27.02c-0.08-3.38,0.64-4.9,4.39-4.92c3.89-0.02,5.52-2.76,3.63-5.58c-4.16-6.19-8.45-12.31-12.91-18.28
		c-2.1-2.82-5.37-2.8-7.59-0.04c-4.96,6.19-9.78,12.5-14.51,18.87c-1.8,2.42-0.93,4.57,2.01,5.37c1.33,0.36,2.85,0.51,4.19,0.26
		c2.72-0.52,3.31,0.68,3.26,3.07C277.19,311.28,277.25,316.25,277.25,321.23z"/>
	<path class="st0" d="M202.13,197.64c0.16,1.49,0.46,2.98,0.46,4.47c0.02,55.68-0.01,111.36,0.09,167.03
		c0.01,3.39-1.33,4.23-4.23,3.67c-6.5-1.27-12.99-2.56-19.47-3.91c-33.33-6.98-66.66-13.99-100-20.96
		c-4.93-1.03-5.86-2.04-5.97-7.08c-0.53-22.96-1.08-45.93-1.64-68.89c-0.06-2.25-0.39-4.49-0.37-6.73c0.03-2.93,1.65-4.62,4.58-4.87
		c16.85-1.46,33.7-2.88,50.55-4.35c16.14-1.41,32.28-2.86,48.41-4.29c2.95-0.26,4.56-2.04,5.64-4.69
		c5.95-14.58,11.97-29.13,17.99-43.67c0.84-2.03,1.84-3.99,2.77-5.98C201.34,197.47,201.73,197.56,202.13,197.64z M185.45,332.14
		c0-4.02-0.13-8.05,0.05-12.06c0.12-2.73-0.83-3.89-3.6-3.88c-12.77,0.05-25.55,0.06-38.32-0.01c-2.75-0.02-3.82,1.18-3.8,3.81
		c0.05,5.79,0.06,11.59,0,17.38c-0.03,2.77,1.19,4.04,3.98,4.2c2.23,0.13,4.43,0.67,6.64,1.03c10.37,1.68,20.75,3.32,31.12,5.06
		c2.9,0.49,4.14-0.34,3.98-3.47C185.29,340.2,185.45,336.17,185.45,332.14z"/>
	<path class="st0" d="M206.08,152.32c-2.25,5.17-4.27,9.91-6.36,14.63c-9.8,22.08-19.7,44.12-29.37,66.25
		c-1.78,4.06-4.1,5.82-8.69,6.24c-27.91,2.56-55.79,5.52-83.69,8.32c-9.77,0.98-19.53,2.05-29.31,2.85c-5.8,0.47-7.33-2-4.82-7.36
		c9.83-21.03,19.75-42.01,29.48-63.08c1.47-3.19,3.61-4.58,6.92-5.18c29.1-5.25,58.18-10.6,87.26-15.94
		c12.1-2.22,24.18-4.49,36.28-6.72C204.31,152.23,204.89,152.32,206.08,152.32z"/>
	<path class="st0" d="M209.7,152.04c6.72,1.21,12.73,2.28,18.73,3.38c35.71,6.53,71.42,13.1,107.15,19.57
		c3.32,0.6,5.43,2.04,6.89,5.22c9.73,21.07,19.65,42.06,29.48,63.08c2.49,5.33,0.95,7.81-4.88,7.31
		c-13.32-1.14-26.61-2.52-39.92-3.83c-18.6-1.83-37.2-3.68-55.79-5.54c-6.71-0.67-13.41-1.46-20.12-2.09
		c-2.99-0.28-4.15-2.38-5.19-4.72c-7.92-17.86-15.84-35.72-23.77-53.58c-3.65-8.23-7.33-16.44-10.98-24.67
		C210.8,155.04,210.4,153.86,209.7,152.04z"/>
	<path class="st0" d="M363.6,95.25c-5.59,9.51-10.98,18.69-16.37,27.86c-6.9,11.74-13.88,23.44-20.65,35.25
		c-1.4,2.43-3.02,2.88-5.52,2.41c-30.93-5.71-61.87-11.36-92.8-17.04c-2.03-0.37-4.17-0.7-3.86-3.55
		c1.08-9.94,2.21-19.88,3.42-30.65c6.69,6.3,12.66,11.91,19.37,18.22c0.83-3.46,1.49-5.92,2-8.39c3.89-18.64,7.7-37.29,11.74-55.89
		c0.33-1.5,1.93-3.31,3.38-3.88c7.05-2.77,14.2-5.28,21.41-7.59c1.57-0.5,3.87-0.38,5.27,0.43c23.25,13.49,46.41,27.14,69.59,40.76
		C361.46,93.72,362.3,94.36,363.6,95.25z"/>
	<path class="st0" d="M182.76,135.7c6.22,1.69,12.44,3.37,19.38,5.26c-9.54,1.76-18.35,3.38-27.16,5
		c-26.74,4.92-53.48,9.82-80.2,14.79c-2.6,0.48-4.47-0.01-6.21-2.14c-4.8-5.86-9.66-11.68-14.75-17.29
		c-2.2-2.43-2.07-3.82,0.42-5.91c18.21-15.33,36.3-30.78,54.44-46.19c4.23-3.6,8.47-7.18,13.11-11.12c0.77,1.36,1.45,2.39,1.97,3.49
		c3.64,7.71,7.31,15.4,10.83,23.16c1.14,2.51,2.71,3.73,5.53,4.18c14,2.25,27.96,4.74,41.93,7.17c0.68,0.12,1.32,0.4,2.69,0.83
		c-7.66,6.08-14.89,11.83-22.13,17.58C182.65,134.91,182.71,135.31,182.76,135.7z"/>
	<path class="st1" d="M277.25,321.23c0-4.98-0.07-9.96,0.03-14.93c0.05-2.39-0.53-3.59-3.26-3.07c-1.34,0.26-2.86,0.1-4.19-0.26
		c-2.94-0.8-3.8-2.95-2.01-5.37c4.73-6.37,9.55-12.68,14.51-18.87c2.22-2.77,5.49-2.78,7.59,0.04c4.46,5.98,8.75,12.09,12.91,18.28
		c1.9,2.82,0.27,5.55-3.63,5.58c-3.76,0.02-4.47,1.54-4.39,4.92c0.2,9,0.07,18.01,0.04,27.02c-0.02,4.38-1.4,6.01-5.63,6.7
		c-1.87,0.31-3.75,0.59-5.63,0.76c-5.5,0.5-6.6-0.43-6.69-5.88c-0.09-4.97-0.02-9.94-0.02-14.92
		C277.01,321.23,277.13,321.23,277.25,321.23z"/>
	<path class="st1" d="M185.45,332.14c0,4.02-0.16,8.05,0.05,12.06c0.16,3.12-1.08,3.96-3.98,3.47c-10.36-1.74-20.74-3.38-31.12-5.06
		c-2.21-0.36-4.42-0.9-6.64-1.03c-2.79-0.16-4.01-1.43-3.98-4.2c0.06-5.79,0.05-11.59,0-17.38c-0.02-2.63,1.05-3.83,3.8-3.81
		c12.77,0.07,25.55,0.06,38.32,0.01c2.77-0.01,3.72,1.15,3.6,3.88C185.31,324.09,185.45,328.12,185.45,332.14z"/>
</g>
</svg>
