<?xml version="1.0" encoding="utf-8"?>
<!-- Generator: Adobe Illustrator 23.1.0, SVG Export Plug-In . SVG Version: 6.00 Build 0)  -->
<svg version="1.1" id="Layer_1" xmlns="http://www.w3.org/2000/svg" xmlns:xlink="http://www.w3.org/1999/xlink" x="0px" y="0px"
	 viewBox="0 0 415 424.01" style="enable-background:new 0 0 415 424.01;" xml:space="preserve">
<style type="text/css">
	.st0{fill:#FFFFFF;}
</style>
<g>
	<path d="M90.13,157.65c83.57,0,166.63,0,250.11,0c-3.24,19.81-6.37,38.99-9.5,58.18c-6.49,39.73-12.97,79.47-19.45,119.2
		c-1.31,8.05-2.8,16.07-3.86,24.15c-0.56,4.3-2.73,6.18-6.84,6.28c-3.83,0.1-7.66,0.29-11.49,0.29
		c-52.49,0.04-104.97,0.05-157.46,0.07c-6.16,0-7.37-0.89-8.43-7.25c-3.73-22.48-7.29-45-11.02-67.48
		c-6.12-36.93-12.33-73.84-18.48-110.76C92.47,172.82,91.33,165.29,90.13,157.65z M216.95,235.34c0.09,0.6,0.18,1.21,0.26,1.81
		c9.18,0.84,18.37,1.59,27.54,2.56c3.23,0.34,5.36-0.69,6.97-3.47c3.9-6.76,7.97-13.43,11.86-20.2c0.84-1.46,1.23-3.18,1.91-4.99
		c-1.15-0.19-1.65-0.41-2.09-0.32c-8.08,1.68-8.07,1.69-12.15-5.9c-0.63-1.17-1.3-2.32-1.93-3.49c-2.76-5.14-6.99-7.8-12.89-7.86
		c-9.48-0.09-18.95-0.28-28.43-0.4c-3.57-0.05-7.13-0.01-10.7-0.01c15.43,8.45,18.03,24.91,26.04,37.9c-1.44,0.86-2.45,1.4-3.4,2.05
		C218.92,233.75,217.95,234.56,216.95,235.34z M165.62,309.35c1.86-17.35,13.1-27.99,20.13-40.76c3.03,1.26,5.23,2.17,8.04,3.34
		c-0.16-1.45-0.06-2.13-0.32-2.63c-4.33-8.45-8.61-16.92-13.17-25.23c-0.59-1.08-2.7-1.88-4.1-1.88
		c-8.66,0.01-17.33,0.23-25.99,0.53c-1.39,0.05-2.76,0.82-5.27,1.62c3.47,2.45,5.82,4.12,8.21,5.81c-2.56,4.13-5.52,7.72-7.1,11.84
		c-1.19,3.11-1.94,7.56-0.6,10.27C151.52,284.44,158.39,296.22,165.62,309.35z M238.14,275.88c-1.05,0.36-1.51,0.38-1.64,0.59
		c-5.08,8.37-10.21,16.7-15.06,25.2c-0.62,1.08-0.14,3.35,0.63,4.56c4.36,6.88,8.93,13.64,13.54,20.36
		c0.87,1.26,2.28,2.15,4.27,3.98c0.68-3.89,1.17-6.71,1.7-9.76c4.49-0.25,8.93-0.58,13.38-0.72c4.98-0.16,8.2-2.45,10.56-6.93
		c5.83-11.03,12.06-21.84,18.1-32.75c0.54-0.98,0.87-2.08,1.56-3.76c-14.61,10.82-30.54,5.79-45.56,7.36
		C239.08,280.97,238.64,278.57,238.14,275.88z M213.97,284.64c-8.02,0-15.44,0.8-22.6-0.2c-8.9-1.25-13.27,2.96-16.85,10.08
		c-3.14,6.25-4.68,12.57-2.24,19.17c0.87,2.34,3.42,5.67,5.32,5.76c11.91,0.53,23.85,0.27,35.99,0.27c0.16-1.48,0.36-2.44,0.36-3.4
		C213.98,306.03,213.97,295.74,213.97,284.64z M237.81,249.95c3.92,6.59,7.51,12.73,11.19,18.81c6.28,10.4,6.3,10.25,18.6,10.14
		c6.91-0.06,12.17-3.06,16.35-8.18c2.59-3.17,3.59-6.98,1.28-10.67c-5.21-8.31-10.62-16.51-16.17-24.59
		c-0.61-0.89-3.08-1.53-3.99-1.03C256.04,239.36,247.17,244.56,237.81,249.95z M194.07,246.63c5.85-8.97,11.4-17.42,16.85-25.92
		c0.46-0.71,0.72-2.13,0.33-2.71c-4.28-6.24-7.93-13.18-13.3-18.32c-5.69-5.45-12.56-3.71-16.92,2.79
		c-4.63,6.89-8.99,13.96-13.56,20.9c-1.54,2.34-1.64,3.95,1,5.71C176.9,234.68,185.18,240.5,194.07,246.63z"/>
	<path d="M214.7,148.47c-43.48,0-86.96,0-130.44,0c-8.02,0-9.02-0.98-9.02-8.76c0-4.5-0.04-9,0.04-13.5
		c0.11-6.25,0.91-7.03,7.29-7.35c1.83-0.09,3.66-0.11,5.5-0.11c84.79-0.01,169.59-0.02,254.38,0.01c12.73,0,12.74,0.11,12.76,13.01
		c0.01,3.17,0.02,6.33,0,9.5c-0.03,5.41-1.66,7.15-7.08,7.18c-9.99,0.07-19.99,0.02-29.99,0.02
		C283.67,148.47,249.19,148.47,214.7,148.47z"/>
	<path d="M260.11,39.01c23,24.28,44.98,47.47,65.77,69.42c-42.85,0-88.69,0-131.67,0C214.96,86.57,237.02,63.33,260.11,39.01z"/>
	<path d="M114.27,108.84c14.19-14.79,28.42-29.74,42.88-44.47c0.94-0.95,4.42-1.05,5.3-0.16c9.57,9.72,18.85,19.72,28.56,30.01
		c-3.99,3.99-8.85,8.94-13.84,13.74c-0.72,0.69-2.12,0.95-3.2,0.95c-19.81,0.05-39.62,0.02-59.43-0.01
		C114.11,108.91,113.67,108.63,114.27,108.84z"/>
	<path class="st0" d="M216.95,235.34c1-0.77,1.97-1.59,3.01-2.3c0.94-0.65,1.96-1.19,3.4-2.05c-8.01-13-10.61-29.45-26.04-37.9
		c3.57,0,7.13-0.04,10.7,0.01c9.48,0.12,18.95,0.31,28.43,0.4c5.9,0.06,10.13,2.72,12.89,7.86c0.63,1.17,1.3,2.32,1.93,3.49
		c4.07,7.59,4.07,7.58,12.15,5.9c0.44-0.09,0.94,0.13,2.09,0.32c-0.68,1.81-1.07,3.53-1.91,4.99c-3.89,6.77-7.96,13.43-11.86,20.2
		c-1.61,2.79-3.74,3.82-6.97,3.47c-9.17-0.98-18.36-1.73-27.54-2.56C217.12,236.54,217.04,235.94,216.95,235.34z"/>
	<path class="st0" d="M165.62,309.35c-7.24-13.13-14.11-24.91-20.16-37.1c-1.35-2.71-0.59-7.16,0.6-10.27
		c1.58-4.12,4.54-7.71,7.1-11.84c-2.39-1.69-4.75-3.36-8.21-5.81c2.51-0.8,3.88-1.57,5.27-1.62c8.66-0.3,17.33-0.52,25.99-0.53
		c1.4,0,3.51,0.8,4.1,1.88c4.56,8.32,8.84,16.79,13.17,25.23c0.26,0.5,0.16,1.18,0.32,2.63c-2.82-1.17-5.02-2.08-8.04-3.34
		C178.72,281.36,167.48,291.99,165.62,309.35z"/>
	<path class="st0" d="M238.14,275.88c0.5,2.69,0.94,5.09,1.5,8.12c15.02-1.57,30.95,3.47,45.56-7.36c-0.69,1.69-1.02,2.78-1.56,3.76
		c-6.04,10.91-12.27,21.72-18.1,32.75c-2.37,4.48-5.58,6.77-10.56,6.93c-4.45,0.14-8.9,0.47-13.38,0.72
		c-0.53,3.05-1.02,5.87-1.7,9.76c-1.99-1.82-3.41-2.71-4.27-3.98c-4.61-6.72-9.18-13.48-13.54-20.36c-0.77-1.21-1.24-3.48-0.63-4.56
		c4.84-8.5,9.98-16.83,15.06-25.2C236.64,276.25,237.09,276.24,238.14,275.88z"/>
	<path class="st0" d="M213.97,284.64c0,11.09,0.01,21.39-0.01,31.68c0,0.96-0.2,1.92-0.36,3.4c-12.14,0-24.08,0.26-35.99-0.27
		c-1.91-0.08-4.45-3.42-5.32-5.76c-2.44-6.6-0.91-12.92,2.24-19.17c3.58-7.12,7.95-11.33,16.85-10.08
		C198.53,285.44,205.95,284.64,213.97,284.64z"/>
	<path class="st0" d="M237.81,249.95c9.37-5.39,18.24-10.59,27.25-15.52c0.92-0.5,3.38,0.14,3.99,1.03
		c5.55,8.09,10.96,16.28,16.17,24.59c2.31,3.68,1.31,7.5-1.28,10.67c-4.18,5.12-9.44,8.12-16.35,8.18
		c-12.3,0.11-12.32,0.26-18.6-10.14C245.32,262.67,241.72,256.54,237.81,249.95z"/>
	<path class="st0" d="M194.07,246.63c-8.9-6.12-17.18-11.95-25.61-17.56c-2.64-1.75-2.53-3.37-1-5.71c4.57-6.94,8.93-14,13.56-20.9
		c4.37-6.5,11.23-8.24,16.92-2.79c5.37,5.14,9.02,12.08,13.3,18.32c0.4,0.58,0.13,2-0.33,2.71
		C205.47,229.21,199.93,237.66,194.07,246.63z"/>
</g>
</svg>
